<svg width="34" height="34" viewBox="0 0 34 34" fill="none" xmlns="http://www.w3.org/2000/svg">
<path d="M16.6667 29.3345C12.5 29.3345 8.81668 27.2013 6.66667 24.0017C6.71667 20.6687 13.3333 18.8355 16.6667 18.8355C20 18.8355 26.6167 20.6687 26.6667 24.0017C25.5648 25.6422 24.0765 26.9866 22.3326 27.9166C20.5888 28.8465 18.643 29.3334 16.6667 29.3345ZM16.6667 5.67015C17.9928 5.67015 19.2645 6.19689 20.2022 7.13447C21.1399 8.07206 21.6667 9.34371 21.6667 10.6697C21.6667 11.9956 21.1399 13.2672 20.2022 14.2048C19.2645 15.1424 17.9928 15.6692 16.6667 15.6692C15.3406 15.6692 14.0688 15.1424 13.1311 14.2048C12.1935 13.2672 11.6667 11.9956 11.6667 10.6697C11.6667 9.34371 12.1935 8.07206 13.1311 7.13447C14.0688 6.19689 15.3406 5.67015 16.6667 5.67015ZM16.6667 0.670654C14.478 0.670654 12.3107 1.10171 10.2886 1.9392C8.26653 2.7767 6.4292 4.00423 4.88156 5.55172C1.75595 8.67701 0 12.9158 0 17.3357C0 21.7555 1.75595 25.9943 4.88156 29.1196C6.4292 30.6671 8.26653 31.8946 10.2886 32.7321C12.3107 33.5696 14.478 34.0007 16.6667 34.0007C21.087 34.0007 25.3262 32.2449 28.4518 29.1196C31.5774 25.9943 33.3334 21.7555 33.3334 17.3357C33.3334 8.11991 25.8334 0.670654 16.6667 0.670654Z" fill="#1F316A"/>
</svg>
