<svg width="63" height="74" viewBox="0 0 63 74" fill="none" xmlns="http://www.w3.org/2000/svg">
<g clip-path="url(#clip0_1213:213)">
<path fill-rule="evenodd" clip-rule="evenodd" d="M31.5249 54.096C29.5258 54.096 27.4016 53.7436 25.68 52.9852C23.868 52.1865 21.0348 50.6555 20.0109 48.8124C19.8901 48.5949 19.7658 48.2524 19.7588 47.9544C20.2023 47.8513 20.5391 47.643 20.8738 47.4417C21.0624 47.3281 21.1739 47.2546 21.3561 47.1106C21.4727 47.0188 21.4917 46.9962 21.5934 46.9036C21.6513 46.8514 21.652 46.8535 21.7106 46.7984C22.4168 46.1382 22.7812 45.4235 22.8666 44.4024C23.4506 44.7936 24.4209 46.0294 26.4179 47.0675C29.8718 48.8626 32.7847 48.7912 36.2619 47.0675C36.9137 46.7441 37.5711 46.2872 38.1537 45.8515C38.3154 45.7307 38.4306 45.6537 38.5718 45.5294L39.8874 44.4024C39.8874 46.4531 41.4678 47.292 42.8476 47.9544C42.7572 49.0433 41.6987 49.9239 41.054 50.527C38.8359 52.6024 34.4132 54.0967 31.5249 54.0967V54.096ZM30.4071 0H32.0814C32.9754 0.0416639 33.868 0.150414 34.7507 0.326249C36.1059 0.596712 37.7583 1.15176 38.9503 1.75059C41.8555 3.21094 44.6512 5.64934 46.1285 8.6329C47.9462 12.3043 47.8812 13.8698 47.877 18.2071C47.8763 18.7028 48.2124 19.9739 48.3134 20.5827C48.5972 22.2937 48.3713 21.6144 49.4199 22.2881C50.5244 22.9985 51.5794 24.4023 51.5794 25.7525V30.1188C51.5794 31.7606 50.3196 33.2887 48.9171 33.9688C48.2639 34.2851 48.1905 33.889 48.1008 35.5951L47.9751 39.3314C48.0493 42.2323 48.2067 46.3119 50.0449 48.5264C50.6458 49.2509 52.7848 48.6874 55.7345 50.9034L57.8523 52.8559C57.9942 53.0078 58.0783 53.1349 58.2167 53.3051C58.4631 53.608 58.6495 53.8728 58.8762 54.1998L60.1155 56.2166C60.4828 56.9397 60.8267 57.6339 61.1261 58.3888C61.8188 60.1351 62.5299 61.8236 62.6062 63.5572V64.1546C62.5744 64.8678 62.424 65.5903 62.1105 66.3289C61.8661 66.9058 61.5138 67.5089 61.1091 67.9178C57.6913 71.3674 49.6579 72.8539 44.6166 73.3298L39.9185 73.738C39.2977 73.8319 38.1608 73.8058 37.5231 73.8588C36.341 73.9562 35.0911 74.036 33.8913 73.9308L28.6459 73.9357C27.0662 74.089 27.2343 73.9195 26.1976 73.928L21.9084 73.7027C21.6301 73.6808 21.6986 73.6483 21.3858 73.6335C16.3769 73.3948 8.6656 72.1089 4.43989 70.0066C3.40889 69.4939 2.19216 68.7052 1.46198 67.8782C0.515014 66.8063 0.0588298 65.4992 -0.000488281 64.1412V63.5318C0.0305831 62.7917 0.173935 62.0446 0.414738 61.3201C1.73598 57.3472 3.22882 53.8693 6.56828 51.1188C6.78013 50.9443 7.03718 50.7699 7.25115 50.6181C7.89446 50.1633 8.83084 49.7311 9.56667 49.4557C11.6965 48.6564 11.9966 49.3477 12.8765 48.1034C14.5755 45.701 14.5776 41.3849 14.5776 38.1126L14.4152 34.6488C14.3284 33.9547 14.0861 34.295 13.2027 33.7153C12.0722 32.9724 11.0249 31.6158 11.0249 30.1202V25.7539C11.0249 24.9892 11.4691 24.1255 11.7932 23.6361C12.7967 22.1249 13.9167 22.1143 14.0854 21.7097C14.1271 21.6094 14.2613 20.6879 14.2909 20.5092C14.4385 19.6209 14.6532 19.1484 14.6511 18.0574C14.649 17.1203 14.6511 16.1825 14.6511 15.2455C14.6504 12.723 15.3311 10.6695 16.4017 8.55946C17.1121 7.15842 17.8521 6.3894 18.773 5.30614L21.8293 2.73781C22.8857 2.03588 24.3122 1.33536 25.6122 0.896833C27.1545 0.377093 28.7723 0.0769723 30.4064 0.000706167L30.4071 0ZM18.1304 27.3068C18.3599 27.3605 18.345 27.4014 18.5745 27.4551C18.5745 26.8556 18.9749 25.23 19.1571 24.6332C19.4198 23.7731 19.7983 22.9434 20.234 22.2316C20.7121 21.4498 21.1718 20.9244 21.8716 20.3913C23.0269 19.5114 23.8616 19.4627 25.2351 19.4627C25.6327 19.4627 37.9821 25.9474 38.7773 26.345L43.2911 28.6393C43.6287 28.6393 43.9471 27.8724 44.4012 27.751L44.404 33.3036C44.3186 34.1517 43.2184 33.7449 43.2177 33.7449C43.1901 34.0768 42.9634 34.6036 42.8596 34.867C42.5729 35.5972 42.0433 35.6954 41.0963 36.1381C40.0088 36.6459 38.8514 36.9919 37.6382 37.2687C36.865 37.4452 35.8114 37.6677 34.9287 37.6677C34.6222 37.6677 34.2458 36.7059 33.0044 36.7059H30.1183C28.8867 36.7059 27.8981 37.6988 27.8981 38.9261C27.8981 39.9783 28.8577 41.0721 29.8965 41.0721H33.2268C33.9746 41.0721 34.6194 40.4726 34.9287 39.8879C36.281 39.8879 38.3232 39.4543 39.5816 39.0645C40.0166 38.9296 40.5667 38.7298 40.9968 38.6295C40.3153 39.6471 40.1352 39.9896 39.3055 41.0079C38.6643 41.7952 38.0054 42.4167 37.2393 43.0861C34.2931 45.6615 30.1903 46.2822 26.8318 44.0627C23.5445 41.8899 21.967 39.3717 20.2764 35.8917C20.1253 35.581 19.9615 35.165 19.8428 34.8451C19.7666 34.6396 19.7369 34.5111 19.6529 34.295C19.5653 34.0712 19.518 33.9843 19.4622 33.7456C19.1762 33.812 19.0194 33.9426 18.7341 33.8148C17.8246 33.4067 18.1304 32.4823 18.1304 31.3778C18.1304 30.0213 18.1304 28.6648 18.1304 27.3075V27.3068ZM20.4247 8.73247C20.4883 8.4952 21.1238 7.77137 21.2933 7.6026C23.2932 5.61333 24.6836 4.61763 27.6509 3.74763C30.936 2.78442 34.6215 3.33523 37.5945 4.80971L39.3705 5.9198C39.9502 6.33574 40.4756 6.84206 40.9798 7.34485C41.251 7.61531 41.7156 8.11457 41.8865 8.43658C41.6069 8.36173 40.7729 7.65839 40.2101 7.37451C37.1474 5.82871 35.7747 5.55048 32.1923 5.55048L31.0101 5.55613C28.8126 5.67971 28.4072 5.24894 25.4145 6.09846C24.9385 6.23334 24.4428 6.412 24.0403 6.57442C23.779 6.67964 23.6081 6.77709 23.3758 6.87172C21.8787 7.47973 21.3413 8.11951 20.4261 8.73247H20.4247Z" fill="#1F316A"/>
</g>
<defs>
<clipPath id="clip0_1213:213">
<rect width="62.6061" height="74" fill="white"/>
</clipPath>
</defs>
</svg>
