<svg width="90" height="88" viewBox="0 0 90 88" fill="none" xmlns="http://www.w3.org/2000/svg">
<path d="M75.9517 57.1564C70.4147 73.7088 52.2724 83.1915 34.3456 78.4325C15.6935 73.4809 4.41169 55.0068 9.08968 37.2018C13.6346 19.9034 31.4019 10.2856 49.5442 14.3245C40.6508 17.984 35.5661 24.5502 33.4901 31.8713C31.3052 39.5767 32.4573 48.0962 35.9523 54.9245C39.4463 61.7509 45.3208 66.9534 52.6269 67.8978C59.5407 68.7916 67.5924 65.8548 75.9517 57.1564Z" fill="#1F316A" stroke="#1F316A"/>
<path d="M62.0703 14.1194C71.8904 11.2974 74.8679 7.2151 76.035 7.7398e-05C76.8483 7.13523 80.5535 11.4354 89.9996 14.1193C80.5145 16.8981 77.725 20.1845 76.035 28.2386C74.2435 20.1711 71.4198 16.9165 62.0703 14.1194Z" fill="#1F316A"/>
</svg>
