<svg width="122" height="79" viewBox="0 0 122 79" fill="none" xmlns="http://www.w3.org/2000/svg">
<path d="M48.6592 6C48.6592 4.067 50.2262 2.5 52.1592 2.5H116.002C117.935 2.5 119.502 4.067 119.502 6V55C119.502 56.933 117.935 58.5 116.002 58.5H48.6592V6Z" fill="#FAF6F4" stroke="#1F316A" stroke-width="3"/>
<path d="M1.49902 59H116.241C118.726 59 120.741 61.0147 120.741 63.5C120.741 65.9853 118.726 68 116.241 68H5.99902C3.51374 68 1.49902 65.9853 1.49902 63.5V59Z" fill="#1F316A" stroke="#1F316A" stroke-width="2"/>
<path d="M0.5 42H47.2566V61H0.5V42Z" fill="#1F316A"/>
<path d="M10.1472 12.9413C10.7971 10.8868 12.6901 9.47976 14.8448 9.44977L42.1135 9.07023C44.8927 9.03155 47.17 11.2668 47.1831 14.0462L47.3173 42.5H0.796835L10.1472 12.9413Z" fill="#1F316A"/>
<path d="M18.42 16.4893C18.6518 15.6115 19.4458 15 20.3537 15H33.1782C35.3873 15 37.1782 16.7909 37.1782 19V31C37.1782 33.2091 35.3873 35 33.1782 35H14.8301C14.1741 35 13.6958 34.379 13.8633 33.7447L18.42 16.4893Z" fill="#FAF6F4" stroke="#1F316A" stroke-width="2"/>
<path d="M1.49707 61.0034L1.49707 41.9967" stroke="#1F316A" stroke-width="2"/>
<path d="M1.49721 42.0003L10.4783 14.0001" stroke="#1F316A" stroke-width="2" stroke-linecap="round"/>
<line x1="15.2275" y1="10" x2="42.1702" y2="10" stroke="#1F316A" stroke-width="2"/>
<path d="M41.91 10.0003C43.9057 10 46.8989 10.9998 47.8972 13" stroke="#1F316A" stroke-width="2" stroke-linecap="round"/>
<path d="M10.6461 13.4728C11.1485 11.4734 12.6368 9.97106 15.6334 9.97288" stroke="#1F316A" stroke-width="2" stroke-linecap="round"/>
<path d="M44.1637 66.5C44.1637 72.8533 39.0248 78 32.6902 78C26.3556 78 21.2168 72.8533 21.2168 66.5C21.2168 60.1467 26.3556 55 32.6902 55C39.0248 55 44.1637 60.1467 44.1637 66.5Z" fill="#FAF6F4" stroke="#1F316A" stroke-width="2"/>
<path d="M108.028 66.5C108.028 72.8533 102.889 78 96.5545 78C90.2199 78 85.0811 72.8533 85.0811 66.5C85.0811 60.1467 90.2199 55 96.5545 55C102.889 55 108.028 60.1467 108.028 66.5Z" fill="#FAF6F4" stroke="#1F316A" stroke-width="2"/>
<path d="M13.2297 47C13.2297 49.2111 11.4416 51 9.24035 51C7.03909 51 5.25098 49.2111 5.25098 47C5.25098 44.7889 7.03909 43 9.24035 43C11.4416 43 13.2297 44.7889 13.2297 47Z" fill="#FAF6F4" stroke="#FAF6F4" stroke-width="2"/>
<path d="M37.1788 66.5C37.1788 68.9873 35.1673 71 32.6905 71C30.2136 71 28.2021 68.9873 28.2021 66.5C28.2021 64.0127 30.2136 62 32.6905 62C35.1673 62 37.1788 64.0127 37.1788 66.5Z" fill="#1F316A" stroke="#1F316A" stroke-width="2"/>
<path d="M101.042 66.5C101.042 68.9873 99.0306 71 96.5537 71C94.0769 71 92.0654 68.9873 92.0654 66.5C92.0654 64.0127 94.0769 62 96.5537 62C99.0306 62 101.042 64.0127 101.042 66.5Z" fill="#1F316A" stroke="#1F316A" stroke-width="2"/>
</svg>
