<svg width="70" height="74" viewBox="0 0 70 74" fill="none" xmlns="http://www.w3.org/2000/svg">
<rect x="9.69922" y="14.134" width="58.7999" height="58.3659" fill="#FAF6F4" stroke="#1F316A" stroke-width="3"/>
<rect x="1.42969" y="5.91479" width="60.7999" height="60.3659" fill="#1F316A" stroke="#1F316A"/>
<rect x="11.0176" y="1" width="5.27058" height="10.6342" fill="#FAF6F4" stroke="#1F316A" stroke-width="2"/>
<rect x="45.5527" y="1" width="5.27058" height="10.6342" fill="#FAF6F4" stroke="#1F316A" stroke-width="2"/>
<line x1="11.835" y1="17.5486" x2="50.0055" y2="17.5486" stroke="#FAF6F4"/>
<path d="M30.2715 45.4661C30.2715 45.7577 30.2559 46.0077 30.2246 46.2161C30.1934 46.414 30.1465 46.5754 30.084 46.7004C30.0319 46.815 29.9694 46.8984 29.8965 46.9504C29.8236 47.0025 29.7402 47.0286 29.6465 47.0286H18.4902C18.4069 47.0286 18.3288 47.0025 18.2559 46.9504C18.1829 46.8984 18.1152 46.815 18.0527 46.7004C18.0007 46.5754 17.959 46.414 17.9277 46.2161C17.8965 46.0077 17.8809 45.7577 17.8809 45.4661C17.8809 45.164 17.8913 44.914 17.9121 44.7161C17.9434 44.5077 17.985 44.3411 18.0371 44.2161C18.0996 44.0911 18.1673 44.0025 18.2402 43.9504C18.3132 43.8879 18.3965 43.8567 18.4902 43.8567H22.2559V30.7004L19.0059 32.4973C18.7663 32.6119 18.5684 32.6848 18.4121 32.7161C18.2663 32.7369 18.1465 32.7056 18.0527 32.6223C17.9694 32.5286 17.9121 32.3723 17.8809 32.1536C17.8496 31.9348 17.834 31.6275 17.834 31.2317C17.834 30.9817 17.8392 30.7786 17.8496 30.6223C17.86 30.4556 17.8861 30.315 17.9277 30.2004C17.9694 30.0859 18.0267 29.9921 18.0996 29.9192C18.1725 29.8463 18.2715 29.7681 18.3965 29.6848L22.7402 26.8723C22.7923 26.8306 22.8548 26.7994 22.9277 26.7786C23.0111 26.7473 23.1152 26.7265 23.2402 26.7161C23.3652 26.6952 23.5267 26.6848 23.7246 26.6848C23.9329 26.6744 24.1986 26.6692 24.5215 26.6692C24.9173 26.6692 25.235 26.6796 25.4746 26.7004C25.7246 26.7109 25.9121 26.7369 26.0371 26.7786C26.1621 26.8098 26.2454 26.8567 26.2871 26.9192C26.3288 26.9817 26.3496 27.0598 26.3496 27.1536V43.8567H29.6465C29.7402 43.8567 29.8236 43.8879 29.8965 43.9504C29.9798 44.0025 30.0475 44.0911 30.0996 44.2161C30.1621 44.3411 30.2038 44.5077 30.2246 44.7161C30.2559 44.914 30.2715 45.164 30.2715 45.4661ZM47.084 36.8411C47.084 38.4556 46.9538 39.914 46.6934 41.2161C46.4329 42.5181 46.0059 43.6275 45.4121 44.5442C44.8288 45.4609 44.0632 46.164 43.1152 46.6536C42.1777 47.1431 41.0267 47.3879 39.6621 47.3879C38.2767 47.3879 37.1309 47.1536 36.2246 46.6848C35.3184 46.2056 34.5996 45.5234 34.0684 44.6379C33.5371 43.7421 33.1621 42.6536 32.9434 41.3723C32.735 40.0806 32.6309 38.6223 32.6309 36.9973C32.6309 35.3931 32.7611 33.94 33.0215 32.6379C33.2923 31.3254 33.7194 30.2109 34.3027 29.2942C34.8965 28.3775 35.6621 27.6744 36.5996 27.1848C37.5475 26.6952 38.6986 26.4504 40.0527 26.4504C41.4382 26.4504 42.584 26.69 43.4902 27.1692C44.4069 27.6379 45.1309 28.3202 45.6621 29.2161C46.1934 30.1015 46.5632 31.19 46.7715 32.4817C46.9798 33.7629 47.084 35.2161 47.084 36.8411ZM42.9434 37.0442C42.9434 36.0859 42.9173 35.2421 42.8652 34.5129C42.8132 33.7734 42.7298 33.1327 42.6152 32.5911C42.5111 32.0494 42.3757 31.5911 42.209 31.2161C42.0527 30.8411 41.86 30.5442 41.6309 30.3254C41.4017 30.0963 41.1413 29.9348 40.8496 29.8411C40.5579 29.7473 40.235 29.7004 39.8809 29.7004C39.2663 29.7004 38.7559 29.8515 38.3496 30.1536C37.9538 30.4452 37.6361 30.8879 37.3965 31.4817C37.1673 32.0754 37.0059 32.815 36.9121 33.7004C36.8184 34.5859 36.7715 35.6171 36.7715 36.7942C36.7715 38.2317 36.8288 39.4244 36.9434 40.3723C37.0579 41.3098 37.235 42.0598 37.4746 42.6223C37.7246 43.1744 38.0423 43.565 38.4277 43.7942C38.8132 44.0129 39.2767 44.1223 39.8184 44.1223C40.2246 44.1223 40.584 44.0598 40.8965 43.9348C41.209 43.7994 41.4798 43.6015 41.709 43.3411C41.9486 43.0806 42.1465 42.7525 42.3027 42.3567C42.459 41.9609 42.584 41.5025 42.6777 40.9817C42.7819 40.4609 42.8496 39.8723 42.8809 39.2161C42.9225 38.5598 42.9434 37.8359 42.9434 37.0442Z" fill="#FAF6F4"/>
</svg>
