<svg width="54" height="74" viewBox="0 0 54 74" fill="none" xmlns="http://www.w3.org/2000/svg">
<g clip-path="url(#clip0_1213:203)">
<path fill-rule="evenodd" clip-rule="evenodd" d="M25.9453 42.2196C20.7526 42.2196 16.2888 39.8356 13.6832 37.2077C12.1349 35.6467 11.0033 34.2046 10.0225 32.2127C6.65424 25.3744 8.12934 16.983 13.4082 11.6637C14.9312 10.1289 16.3654 9.17425 18.3054 8.1913C22.9034 5.86206 29.11 5.87703 33.6781 8.19074C37.424 10.088 40.6072 13.2109 42.2267 17.1294C44.2808 22.0998 44.2637 27.6062 41.809 32.4297C41.6693 32.7037 41.5634 32.8272 41.4089 33.1352C40.6726 34.6024 39.8471 35.3658 39.0946 36.3462L37.9556 37.5083C37.4501 37.8974 36.9258 38.4531 36.1222 38.9868C35.1938 39.6036 34.3639 40.1458 33.2544 40.6238C31.161 41.5254 28.8986 42.2199 25.9453 42.2199V42.2196ZM21.728 2.86405C20.7711 2.86405 19.7421 2.60722 18.978 2.40153C16.5258 1.74124 15.2094 1.3909 12.8222 3.31328C12.6618 3.44269 12.3946 3.63368 12.2631 3.76619C12.1596 3.87045 11.9059 4.20187 11.8128 4.32873C11.0182 5.40943 11.0953 6.61813 10.5051 8.09213C9.68717 10.1332 7.94709 12.5483 6.12627 13.7494L4.82809 14.4738C3.81758 14.9787 3.17437 15.3195 2.65538 16.3493C2.11451 17.4227 1.83301 18.6466 1.83301 20.0474C1.83301 23.1322 5.9614 24.6161 4.13609 30.8678C3.37092 33.4878 3.23129 34.306 4.64499 36.8915C5.08464 37.6953 5.87364 38.6709 6.66153 39.1091C8.36487 40.0568 10.2179 39.3781 12.7162 41.5076C15.2996 43.7094 14.874 45.3436 16.1108 46.5862C16.9444 47.4242 17.6392 47.6746 18.8067 48.1193C19.8251 48.5072 21.2923 48.8714 22.5527 48.8714C25.1902 48.8714 25.6627 45.7304 30.4371 45.7304C31.4016 45.7304 32.2153 45.9734 32.9695 46.2271C35.2701 47.001 36.1898 47.2584 38.5789 45.7126C40.836 44.2522 41.2112 43.3071 41.7361 40.7643C42.1858 38.5862 43.2628 37.039 44.9341 35.7648C46.5514 34.5318 48.0935 34.7168 49.3553 32.0898C49.8075 31.1484 50.1482 29.7176 50.1482 28.4544C50.1482 26.7848 49.0903 25.7465 48.4348 24.6378C47.1192 22.4123 47.1007 19.7869 47.6191 17.2218C48.1412 14.6391 48.3254 13.6994 47.1237 11.4546C45.5328 8.48316 42.4973 9.35395 39.3472 7.18886C38.554 6.64356 37.9189 6.01859 37.3517 5.2272C36.2324 3.66504 35.7667 1.64829 33.7372 0.739646C32.9485 0.386474 31.5648 0.000244141 30.4371 0.000244141C27.7692 0.000244141 26.8044 2.19556 23.0666 2.73549C22.7119 2.78692 22.0233 2.86433 21.7275 2.86433L21.728 2.86405Z" fill="#1F316A"/>
<path fill-rule="evenodd" clip-rule="evenodd" d="M23.8599 32.5423L16.5715 25.2441L19.598 22.2427L23.815 26.4446L34.0827 16.1446L37.1535 19.1935L23.8599 32.5423ZM10.5432 23.6506C10.5432 26.524 10.8346 28.5995 12.0405 31.0107C14.211 35.3496 17.8075 38.4434 22.5917 39.5021C27.8921 40.6749 33.1465 39.0746 36.9244 35.268C40.6527 31.511 42.2091 26.1095 41.0178 20.8421C40.5641 18.8358 39.8074 17.2132 38.7262 15.5759L37.0616 13.4653L35.0363 11.7184C34.2655 11.148 33.5696 10.7725 32.6687 10.3162C28.6259 8.26805 23.5618 8.26974 19.4662 10.1924C17.81 10.97 16.3711 12.0035 15.1043 13.28C14.2368 14.1542 14.1552 14.2652 13.4102 15.2685C13.125 15.653 12.9448 15.9669 12.6913 16.3919C11.5439 18.314 10.543 21.0662 10.543 23.6503L10.5432 23.6506Z" fill="#1F316A"/>
<path fill-rule="evenodd" clip-rule="evenodd" d="M30.0713 54.6914L32.101 59.4824C32.2479 59.8441 32.4271 60.2272 32.6071 60.6355L34.1944 64.302C34.9009 65.926 35.5506 67.4941 36.2743 69.1351C36.5154 69.6818 38.2109 73.5175 38.3225 73.9998C38.5507 73.8314 38.5319 73.654 38.6303 73.2937C38.7147 72.9838 38.7834 72.7549 38.8611 72.5103C39.6658 69.9728 40.4049 67.0692 41.2219 64.5421L42.1733 61.3432C42.5173 61.3721 46.0648 63.1184 46.5739 63.3758C47.0666 63.6247 47.5536 63.8211 48.0715 64.0839C48.5706 64.3373 49.0368 64.5212 49.5082 64.7611C49.7521 64.8854 49.9946 65.0106 50.24 65.1324L52.5038 66.1769C52.905 66.3795 53.6074 66.7942 54.0002 66.8864L49.0181 55.185C48.1172 53.1426 46.8821 49.9344 46.0238 48.1323C45.7115 48.2058 44.8025 48.9192 44.3544 49.2215L38.9912 52.3167C37.7283 52.8654 36.2336 53.4082 34.8404 53.7695C34.0971 53.9625 33.3173 54.1365 32.5081 54.2832C31.6869 54.4318 30.8261 54.5143 30.0713 54.6917V54.6914Z" fill="#1F316A"/>
<path fill-rule="evenodd" clip-rule="evenodd" d="M0 66.8864C0.431233 66.6564 0.933123 66.386 1.4137 66.1863C2.00055 65.9421 2.35804 65.7102 2.90704 65.4737C3.46949 65.2318 3.81072 65.0383 4.33897 64.7919C4.90394 64.528 5.29312 64.3591 5.83622 64.0833L11.735 61.3433C11.9147 61.7205 12.0871 62.409 12.2262 62.8808L15.0155 72.3572C15.1818 72.9593 15.3536 73.393 15.4941 74.0001C15.7549 73.6978 22.4878 58.0913 23.4318 55.8536C23.8367 54.8941 24.3282 55.2224 20.6933 54.6262C17.4571 54.0956 14.3768 52.9618 11.6385 51.3708L8.42278 49.2529C8.17352 49.0636 8.25062 49.05 7.88444 48.9639L5.92034 53.4514C4.92301 55.8705 3.01218 59.9085 1.92653 62.3607C1.64334 63.0004 0.0325247 66.4914 0 66.8864H0Z" fill="#1F316A"/>
</g>
<defs>
<clipPath id="clip0_1213:203">
<rect width="54" height="74" fill="white"/>
</clipPath>
</defs>
</svg>
