<svg width="80" height="74" viewBox="0 0 80 74" fill="none" xmlns="http://www.w3.org/2000/svg">
<g clip-path="url(#clip0_1213:195)">
<path fill-rule="evenodd" clip-rule="evenodd" d="M62.8426 36.949C62.8426 40.1113 61.8008 43.1808 60.0873 45.438C59.745 45.8889 58.8415 46.9935 58.376 47.376C55.9958 49.3332 54.1421 50.6462 50.6663 51.1276C48.363 51.4468 38.1629 51.3476 34.8171 51.3185C33.8906 51.3105 34.0612 51.4366 32.8787 52.3214L25.3373 57.9616C25.0476 58.178 24.4281 58.5913 24.2639 58.8147C25.0929 60.0491 26.4533 61.3309 27.8591 61.9112C29.9996 62.7948 30.9211 62.6616 33.8071 62.6616C36.2399 62.6616 45.7703 62.5277 47.311 62.6602C47.7799 62.7004 48.0423 62.976 48.3694 63.2244C48.5861 63.3888 48.6314 63.4426 48.8174 63.5876L57.0129 69.6891C58.0229 70.4132 62.1828 73.651 62.8426 73.9992L62.839 63.5691C62.8295 63.0141 62.7064 62.7508 63.1458 62.66L70.1522 62.6614C72.6852 62.6614 74.7391 62.4792 76.5724 60.9647C78.6477 59.2504 79.9998 57.2606 79.9998 53.7529V25.7119C79.9998 24.3435 79.6434 23.1256 79.2173 22.1391C78.6686 20.868 77.8493 19.9745 76.8789 19.1055C76.6198 18.8737 76.52 18.807 76.2438 18.625C74.7277 17.6269 73.2195 17.1072 71.1672 17.1072H62.8423V36.9485L62.8426 36.949Z" fill="#1F316A"/>
<path fill-rule="evenodd" clip-rule="evenodd" d="M5.78669 37.3545V8.40243C5.78669 6.91674 7.0954 5.7703 8.32463 5.7703H48.8322C50.1143 5.7703 51.3701 7.02249 51.3701 8.30094V37.253C51.3701 38.6183 50.4206 39.4645 49.3587 39.8026C48.6222 40.037 33.5773 39.8757 31.06 39.8792C30.2438 39.8804 30.3625 39.981 29.4848 40.637L22.8424 45.554V39.8849H8.32463C7.21047 39.8849 5.78669 38.7439 5.78669 37.3543V37.3545ZM0 8.80721V36.8482C0 38.2949 0.33121 39.6332 0.810469 40.5956C1.41927 41.8182 1.7901 42.3183 2.7154 43.2516C4.2393 44.7886 6.40973 45.6552 9.44163 45.6552H17.1572V56.8918C17.4749 56.8071 18.9696 55.6124 19.3473 55.3299L30.0785 47.3027C30.4595 47.0193 30.7653 46.8367 31.1357 46.5348C32.7478 45.2213 32.3051 45.6552 35.9387 45.6552C38.7844 45.6552 48.6384 45.8717 50.6619 45.3538C54.1679 44.457 57.1571 41.2485 57.1571 36.848V8.80698C57.1571 3.80862 53.3443 -0.000244141 48.1216 -0.000244141H9.137C6.26334 -0.000244141 4.10763 1.00354 2.66463 2.45446C1.89687 3.2264 1.27288 3.99622 0.797657 5.04709C0.334057 6.07217 0 7.30212 0 8.80698L0 8.80721Z" fill="#1F316A"/>
</g>
<defs>
<clipPath id="clip0_1213:195">
<rect width="80" height="74" fill="white"/>
</clipPath>
</defs>
</svg>
