<svg width="76" height="42" viewBox="0 0 76 42" fill="none" xmlns="http://www.w3.org/2000/svg">
<rect x="13.9961" y="1" width="54.9346" height="36.093" rx="4" fill="white" stroke="#1F316A" stroke-width="2"/>
<path d="M13.9805 5C13.9805 2.79086 15.7713 1 17.9805 1H64.999C67.2082 1 68.999 2.79086 68.999 5V7.80671H13.9805V5Z" fill="#1F316A" stroke="#1F316A" stroke-width="2"/>
<path d="M25.2461 30.7194C25.2461 36.3486 20.5674 40.9519 14.7461 40.9519C8.92479 40.9519 4.24609 36.3486 4.24609 30.7194C4.24609 25.0901 8.92479 20.4868 14.7461 20.4868C20.5674 20.4868 25.2461 25.0901 25.2461 30.7194Z" fill="#1F316A" stroke="#1F316A" stroke-width="2"/>
<path d="M11 29.3025C11 24.0932 18 24.0932 18 29.3023" stroke="white" stroke-width="2"/>
<rect x="11" y="30.3022" width="7" height="5.81395" stroke="white" stroke-width="2"/>
</svg>
