<svg width="36" height="35" viewBox="0 0 36 35" fill="none" xmlns="http://www.w3.org/2000/svg">
<path d="M30.3872 5.06282C27.0107 1.70369 22.8855 0 18.1276 0C13.3252 0 9.18851 1.70562 5.83131 5.06475C2.46831 8.42389 0.762695 12.5644 0.762695 17.3649C0.762695 22.1209 2.46638 26.246 5.82552 29.6245C9.18466 33.0125 13.3233 34.7297 18.1276 34.7297C22.8875 34.7297 27.0126 33.0125 30.391 29.6302C33.7772 26.248 35.4924 22.1209 35.4924 17.3649C35.4924 12.5644 33.7752 8.42389 30.3872 5.06282ZM27.6628 26.902C25.469 29.0997 22.9627 30.3519 20.057 30.732V21.2237H23.9158V17.3649H20.057V14.6637C20.057 14.5115 20.087 14.3608 20.1453 14.2202C20.2036 14.0796 20.289 13.9519 20.3967 13.8444C20.5044 13.7369 20.6323 13.6516 20.773 13.5936C20.9136 13.5355 21.0644 13.5058 21.2166 13.506H23.9158V9.64715H21.2204C19.7888 9.64715 18.5945 10.1739 17.6375 11.2331C16.6805 12.2885 16.1981 13.5774 16.1981 15.1074V17.3649H12.3393V21.2237H16.1981V30.7358C13.2615 30.3596 10.7456 29.1054 8.56338 26.9078C5.91041 24.2375 4.62155 21.1157 4.62155 17.3649C4.62155 13.5716 5.90848 10.4421 8.56145 7.79489C11.2048 5.14579 14.3343 3.85886 18.1276 3.85886C21.8803 3.85886 25.0002 5.14772 27.6686 7.80068C30.337 10.4479 31.6336 13.5774 31.6336 17.3649C31.6336 21.1099 30.3351 24.2317 27.6628 26.902Z" fill="white"/>
</svg>
