<svg width="36" height="35" viewBox="0 0 36 35" fill="none" xmlns="http://www.w3.org/2000/svg">
<path d="M17.8815 31.2568C21.5658 31.2568 25.0993 29.7931 27.7045 27.1879C30.3098 24.5827 31.7734 21.0492 31.7734 17.3649C31.7734 13.6805 30.3098 10.147 27.7045 7.54181C25.0993 4.93658 21.5658 3.47297 17.8815 3.47297C14.1971 3.47297 10.6637 4.93658 8.05842 7.54181C5.45318 10.147 3.98957 13.6805 3.98957 17.3649C3.98957 21.0492 5.45318 24.5827 8.05842 27.1879C10.6637 29.7931 14.1971 31.2568 17.8815 31.2568ZM17.8815 34.7297C8.29085 34.7297 0.516602 26.9555 0.516602 17.3649C0.516602 7.77425 8.29085 0 17.8815 0C27.4721 0 35.2463 7.77425 35.2463 17.3649C35.2463 26.9555 27.4721 34.7297 17.8815 34.7297Z" fill="white"/>
<path d="M22.9574 11.3317H12.8059C10.8142 11.3317 9.19922 12.9292 9.19922 14.8984V19.9169C9.19922 21.8878 10.8142 23.4836 12.8059 23.4836H22.9574C24.9492 23.4836 26.5641 21.886 26.5641 19.9169V14.8984C26.5641 12.9275 24.9492 11.3317 22.9574 11.3317ZM20.5194 17.6525L15.7701 19.8925C15.741 19.9063 15.709 19.9125 15.6769 19.9105C15.6448 19.9086 15.6138 19.8986 15.5866 19.8814C15.5594 19.8643 15.537 19.8406 15.5214 19.8125C15.5058 19.7843 15.4976 19.7528 15.4975 19.7206V15.1016C15.4977 15.069 15.5063 15.0371 15.5224 15.0088C15.5385 14.9805 15.5616 14.9568 15.5894 14.9399C15.6173 14.9231 15.649 14.9136 15.6815 14.9124C15.714 14.9112 15.7463 14.9183 15.7753 14.9331L20.5228 17.3121C20.5541 17.3284 20.5802 17.3531 20.5983 17.3833C20.6164 17.4135 20.6257 17.4481 20.6254 17.4834C20.625 17.5186 20.6149 17.553 20.5962 17.5829C20.5775 17.6127 20.5509 17.6368 20.5194 17.6525Z" fill="white"/>
</svg>
