<svg width="36" height="35" viewBox="0 0 36 35" fill="none" xmlns="http://www.w3.org/2000/svg">
<path d="M18.2584 31.2568C21.9428 31.2568 25.4762 29.7931 28.0815 27.1879C30.6867 24.5827 32.1503 21.0492 32.1503 17.3649C32.1503 13.6805 30.6867 10.147 28.0815 7.54181C25.4762 4.93658 21.9428 3.47297 18.2584 3.47297C14.5741 3.47297 11.0406 4.93658 8.43537 7.54181C5.83013 10.147 4.36653 13.6805 4.36653 17.3649C4.36653 21.0492 5.83013 24.5827 8.43537 27.1879C11.0406 29.7931 14.5741 31.2568 18.2584 31.2568ZM18.2584 34.7297C8.6678 34.7297 0.893555 26.9555 0.893555 17.3649C0.893555 7.77425 8.6678 0 18.2584 0C27.849 0 35.6233 7.77425 35.6233 17.3649C35.6233 26.9555 27.849 34.7297 18.2584 34.7297Z" fill="white"/>
<path d="M18.2582 9.64709C20.3551 9.64709 20.6168 9.65481 21.4395 9.6934C22.2614 9.73199 22.821 9.86088 23.3133 10.0523C23.8227 10.2483 24.2518 10.5138 24.6809 10.9421C25.0734 11.3279 25.377 11.7946 25.5708 12.3097C25.7614 12.8013 25.8911 13.3616 25.9297 14.1836C25.9659 15.0063 25.976 15.2679 25.976 17.3648C25.976 19.4617 25.9682 19.7233 25.9297 20.5461C25.8911 21.368 25.7614 21.9275 25.5708 22.4199C25.3776 22.9353 25.0739 23.4021 24.6809 23.7875C24.295 24.1798 23.8284 24.4834 23.3133 24.6774C22.8217 24.868 22.2614 24.9976 21.4395 25.0362C20.6168 25.0725 20.3551 25.0825 18.2582 25.0825C16.1613 25.0825 15.8997 25.0748 15.077 25.0362C14.2551 24.9976 13.6955 24.868 13.2031 24.6774C12.6878 24.484 12.2211 24.1803 11.8356 23.7875C11.443 23.4018 11.1394 22.9351 10.9457 22.4199C10.7543 21.9283 10.6254 21.368 10.5868 20.5461C10.5506 19.7233 10.5405 19.4617 10.5405 17.3648C10.5405 15.2679 10.5482 15.0063 10.5868 14.1836C10.6254 13.3609 10.7543 12.8021 10.9457 12.3097C11.1388 11.7943 11.4426 11.3275 11.8356 10.9421C12.2212 10.5495 12.6879 10.2458 13.2031 10.0523C13.6955 9.86088 14.2543 9.73199 15.077 9.6934C15.8997 9.65713 16.1613 9.64709 18.2582 9.64709ZM18.2582 13.506C17.2348 13.506 16.2533 13.9125 15.5296 14.6362C14.8059 15.3599 14.3994 16.3414 14.3994 17.3648C14.3994 18.3882 14.8059 19.3698 15.5296 20.0934C16.2533 20.8171 17.2348 21.2237 18.2582 21.2237C19.2817 21.2237 20.2632 20.8171 20.9869 20.0934C21.7105 19.3698 22.1171 18.3882 22.1171 17.3648C22.1171 16.3414 21.7105 15.3599 20.9869 14.6362C20.2632 13.9125 19.2817 13.506 18.2582 13.506ZM23.2748 13.313C23.2748 13.0572 23.1731 12.8118 22.9922 12.6309C22.8113 12.4499 22.5659 12.3483 22.31 12.3483C22.0542 12.3483 21.8088 12.4499 21.6279 12.6309C21.447 12.8118 21.3453 13.0572 21.3453 13.313C21.3453 13.5689 21.447 13.8142 21.6279 13.9952C21.8088 14.1761 22.0542 14.2777 22.31 14.2777C22.5659 14.2777 22.8113 14.1761 22.9922 13.9952C23.1731 13.8142 23.2748 13.5689 23.2748 13.313ZM18.2582 15.0495C18.8723 15.0495 19.4612 15.2934 19.8954 15.7276C20.3296 16.1618 20.5736 16.7508 20.5736 17.3648C20.5736 17.9789 20.3296 18.5678 19.8954 19.002C19.4612 19.4362 18.8723 19.6801 18.2582 19.6801C17.6442 19.6801 17.0553 19.4362 16.6211 19.002C16.1869 18.5678 15.9429 17.9789 15.9429 17.3648C15.9429 16.7508 16.1869 16.1618 16.6211 15.7276C17.0553 15.2934 17.6442 15.0495 18.2582 15.0495Z" fill="white"/>
</svg>
