<svg width="63" height="63" viewBox="0 0 63 63" fill="none" xmlns="http://www.w3.org/2000/svg">
<g style="mix-blend-mode:multiply">
<path d="M31.8508 63C48.9003 63 62.7217 48.897 62.7217 31.5C62.7217 14.103 48.9003 0 31.8508 0C14.8013 0 0.97998 14.103 0.97998 31.5C0.97998 48.897 14.8013 63 31.8508 63Z" fill="#F4F4F4"/>
</g>
<path d="M18.2674 53.7926H14.1554C14.1526 53.794 14.1494 53.7947 14.1462 53.7947C14.143 53.7947 14.1398 53.794 14.1369 53.7926C14.135 53.7893 14.134 53.7855 14.134 53.7816C14.134 53.7777 14.135 53.7739 14.1369 53.7706C14.4919 52.3499 15.1495 49.6756 15.594 47.8391C15.6526 47.5956 15.6139 47.3383 15.4865 47.1239C15.4235 47.0177 15.3405 46.9252 15.2424 46.8518C15.1444 46.7783 15.033 46.7253 14.9149 46.6957C14.7967 46.6661 14.674 46.6606 14.5537 46.6794C14.4334 46.6982 14.318 46.741 14.2139 46.8054C14.0038 46.9353 13.8528 47.1451 13.7943 47.3887L13.5164 48.5384C13.1089 50.2174 12.6243 52.1609 12.3402 53.3044C12.2697 53.587 12.2634 53.8824 12.3218 54.168C12.3802 54.4535 12.5017 54.7217 12.6771 54.952C12.8525 55.1823 13.0771 55.3687 13.3339 55.497C13.5906 55.6252 13.8727 55.692 14.1585 55.6921H16.8813L16.3164 57.1096C16.1379 57.5587 16.0135 58.0284 15.946 58.5082C16.5325 58.8694 17.1304 59.2106 17.7396 59.5319C17.7168 58.948 17.8168 58.3658 18.0328 57.8246L19.1195 55.1062C19.1791 54.9625 19.2029 54.8061 19.1889 54.6508C19.1748 54.4955 19.1233 54.3461 19.039 54.216C18.9546 54.086 18.84 53.9792 18.7054 53.9054C18.5708 53.8315 18.4203 53.7928 18.2674 53.7926Z" fill="black"/>
<path d="M27.9488 40.383C29.6026 40.383 30.9433 39.015 30.9433 37.3275C30.9433 35.64 29.6026 34.272 27.9488 34.272C26.295 34.272 24.9543 35.64 24.9543 37.3275C24.9543 39.015 26.295 40.383 27.9488 40.383Z" fill="black"/>
<path d="M36.6481 48.5289L36.3703 47.3791C36.3117 47.1356 36.1608 46.9258 35.9506 46.7958C35.7405 46.6658 35.4883 46.6264 35.2496 46.6861C35.011 46.7458 34.8053 46.8999 34.678 47.1143C34.5506 47.3287 34.5119 47.586 34.5705 47.8296C35.015 49.6786 35.6757 52.3404 36.0276 53.761C36.0295 53.7644 36.0305 53.7682 36.0305 53.772C36.0305 53.7759 36.0295 53.7797 36.0276 53.7831C36.0247 53.7845 36.0215 53.7852 36.0183 53.7852C36.0151 53.7852 36.012 53.7845 36.0091 53.7831H31.9032C31.7514 53.783 31.6019 53.821 31.4679 53.8938C31.3339 53.9666 31.2194 54.0719 31.1347 54.2004C31.0499 54.3289 30.9974 54.4767 30.9817 54.6308C30.9661 54.7849 30.9878 54.9405 31.045 55.084L32.1317 57.8025C32.3883 58.4485 32.479 59.1506 32.3952 59.8424C32.3115 60.5343 32.0561 61.1928 31.6532 61.7557L30.7795 62.9716C31.1356 62.9842 31.4927 62.9905 31.8508 62.9905C32.2624 62.9905 32.674 62.9821 33.0856 62.9653L33.1504 62.874C33.741 62.0504 34.1154 61.0864 34.2381 60.0736C34.3607 59.0609 34.2276 58.0329 33.8512 57.0874L33.2863 55.6699H36.0091C36.2949 55.6698 36.577 55.6031 36.8337 55.4748C37.0905 55.3466 37.3151 55.1602 37.4905 54.9298C37.6659 54.6995 37.7875 54.4313 37.8458 54.1458C37.9042 53.8603 37.8979 53.5649 37.8274 53.2822C37.5403 52.1514 37.0556 50.2047 36.6481 48.5289ZM35.5861 36.225C36.5566 36.8454 37.6793 37.173 38.8245 37.17C39.2867 37.1701 39.7475 37.1173 40.1982 37.0125C40.4345 36.9537 40.6386 36.8026 40.7665 36.5916C40.8945 36.3806 40.936 36.1267 40.8821 35.8848C40.8282 35.6429 40.6832 35.4323 40.4784 35.2985C40.2737 35.1647 40.0256 35.1185 39.7877 35.1697C39.2422 35.2969 38.6775 35.3131 38.1258 35.2175C37.5742 35.1218 37.0464 34.9161 36.5728 34.6121C36.0991 34.3081 35.6888 33.9119 35.3654 33.4459C35.0419 32.98 34.8117 32.4536 34.6878 31.8969C34.6624 31.7742 34.6134 31.658 34.5436 31.5549C34.4737 31.4518 34.3845 31.3639 34.2811 31.2963C34.1776 31.2287 34.0621 31.1828 33.9411 31.1612C33.8201 31.1396 33.6961 31.1428 33.5763 31.1706C33.4566 31.1984 33.3434 31.2502 33.2434 31.323C33.1435 31.3959 33.0587 31.4883 32.9941 31.5948C32.9295 31.7014 32.8863 31.82 32.867 31.9438C32.8477 32.0676 32.8528 32.194 32.8818 32.3158C33.0561 33.1178 33.385 33.8764 33.8493 34.5475C34.3135 35.2186 34.9039 35.7888 35.5861 36.225Z" fill="black"/>
<path d="M58.091 26.6805C57.4508 25.4701 56.5769 24.4046 55.5221 23.5482C54.4674 22.6917 53.2536 22.0621 51.9539 21.6972C50.6597 21.3149 49.3093 21.1699 47.9654 21.2688C47.8028 21.2814 47.6402 21.2972 47.4776 21.3161C48.5752 19.7967 49.2127 17.9827 49.3114 16.0979C49.4101 14.2131 48.9658 12.3401 48.0333 10.71C47.9773 10.5937 47.8985 10.4905 47.8018 10.4066C47.7051 10.3227 47.5925 10.26 47.471 10.2224C47.3495 10.1848 47.2218 10.1731 47.0957 10.188C46.9696 10.2029 46.8478 10.244 46.7379 10.3089C46.6281 10.3739 46.5325 10.4611 46.4571 10.5653C46.3817 10.6695 46.3281 10.7884 46.2996 10.9147C46.2711 11.0409 46.2684 11.1717 46.2915 11.2991C46.3147 11.4265 46.3632 11.5476 46.4342 11.655C47.2666 13.1067 47.6143 14.7951 47.425 16.4659C47.2357 18.1367 46.5196 19.6995 45.3846 20.9192C45.5677 17.3244 44.4864 13.7812 42.3355 10.9281C40.1846 8.07497 37.1057 6.09965 33.6537 5.35815C33.4147 5.30978 33.1667 5.35945 32.9633 5.4964C32.76 5.63334 32.6177 5.84654 32.5674 6.08978C32.517 6.33302 32.5626 6.5867 32.6943 6.79587C32.826 7.00503 33.0331 7.15282 33.2709 7.2072C36.2516 7.85166 38.9146 9.54663 40.7927 11.9947C42.6708 14.4427 43.6441 17.4875 43.5416 20.5947L43.0137 19.845C40.4545 16.1595 39.1672 14.3105 34.4563 11.907C32.3603 10.8797 30.1163 10.2022 27.8098 9.90045C25.6712 9.6046 23.5107 9.50656 21.3547 9.6075C19.0371 9.69276 16.7303 9.97408 14.4582 10.4486C14.304 10.484 14.1613 10.5591 14.0436 10.6667C13.9259 10.7743 13.8371 10.9108 13.7858 11.0633C13.7344 11.2158 13.7221 11.3792 13.7501 11.5379C13.7781 11.6966 13.8455 11.8454 13.9457 11.97C15.0344 13.2481 16.2582 14.3996 17.5947 15.4035C18.9952 16.4876 20.4845 17.4466 22.0462 18.27C22.5114 18.5157 22.9837 18.7488 23.4632 18.9693C22.4692 18.7331 21.2004 18.4496 19.7958 18.1881C15.3905 17.3691 11.9144 17.1675 9.46329 17.5865C9.34329 17.6071 9.22846 17.6517 9.12535 17.7177C9.02225 17.7837 8.93288 17.8697 8.86236 17.9709C8.79184 18.0721 8.74155 18.1865 8.71436 18.3075C8.68716 18.4286 8.6836 18.5539 8.70387 18.6764C8.72414 18.7988 8.76785 18.916 8.83249 19.0212C8.89714 19.1264 8.98147 19.2176 9.08065 19.2895C9.17984 19.3615 9.29194 19.4128 9.41056 19.4406C9.52918 19.4683 9.652 19.4719 9.772 19.4513C13.0011 18.9 17.854 19.6844 21.2405 20.3963C20.549 20.7113 19.3389 21.2657 17.8139 21.8295C15.5942 22.6454 12.2324 23.666 8.80883 23.9022C8.60837 23.9112 8.4162 23.9864 8.26122 24.1164C8.10625 24.2464 7.99685 24.4243 7.9495 24.6233C7.90215 24.8222 7.9194 25.0315 7.99866 25.2196C8.07792 25.4077 8.2149 25.5644 8.38899 25.6662C8.52173 25.745 11.1674 27.3357 15.8844 28.5012C13.0196 30.9866 9.05271 31.9883 9.0064 31.9977C8.88803 32.0267 8.7764 32.0791 8.67789 32.1521C8.57938 32.2251 8.49593 32.3171 8.43229 32.423C8.36865 32.5289 8.32607 32.6465 8.30699 32.7692C8.28791 32.8919 8.29269 33.0172 8.32107 33.138C8.34945 33.2588 8.40086 33.3727 8.47238 33.4732C8.5439 33.5737 8.63412 33.6589 8.7379 33.7238C8.84167 33.7888 8.95696 33.8322 9.07718 33.8517C9.19741 33.8711 9.32022 33.8663 9.43859 33.8373C10.6183 33.5189 11.7689 33.0974 12.8776 32.5773C14.3589 31.9164 15.7445 31.0516 16.9958 30.0069C15.1219 33.6735 11.9669 37.8 11.933 37.8347C11.8059 38.0002 11.7366 38.2043 11.736 38.4146C11.7354 38.6249 11.8036 38.8293 11.9297 38.9956C12.0559 39.1619 12.2327 39.2806 12.4324 39.3327C12.632 39.3849 12.843 39.3676 13.032 39.2837C14.9772 38.3486 16.7701 37.1141 18.3479 35.6234V42.1659C18.3479 42.4165 18.4455 42.6569 18.6192 42.8341C18.7929 43.0113 19.0284 43.1109 19.274 43.1109C19.5197 43.1109 19.7552 43.0113 19.9289 42.8341C20.1026 42.6569 20.2002 42.4165 20.2002 42.1659V31.4559C20.1995 30.7163 20.2656 29.9781 20.3977 29.2509C22.7815 29.6103 25.191 29.761 27.5999 29.7014C30.3612 29.6314 33.1097 29.2939 35.8085 28.6934C38.1037 28.196 40.3493 27.4843 42.5167 26.5671C42.6772 26.9312 42.8194 27.3034 42.9427 27.6822L42.9582 27.7421C43.245 28.6367 43.4264 29.563 43.4984 30.5015C43.4984 30.5792 43.5035 30.6569 43.5138 30.7346V32.8262C43.5138 32.8797 43.5138 32.9333 43.4953 32.99V33.0278C43.4953 33.0887 43.4871 33.1506 43.4706 33.2136C43.4583 33.3018 43.4439 33.389 43.4274 33.4751V33.5034C43.415 33.5811 43.4006 33.6578 43.3842 33.7334V33.7523L43.341 33.957C42.9672 35.7141 42.206 37.3613 41.1152 38.7733L41.0997 38.7954C40.9392 39.0054 40.7715 39.207 40.5965 39.4002C40.5185 39.4623 40.4508 39.5367 40.3959 39.6207L40.189 39.8381C39.1079 40.9472 37.8219 41.8265 36.4055 42.4251C34.9891 43.0236 33.4703 43.3295 31.9373 43.3251H31.3507C31.1051 43.3251 30.8695 43.4247 30.6958 43.6019C30.5222 43.7791 30.4246 44.0195 30.4246 44.2701C30.4246 44.5207 30.5222 44.7611 30.6958 44.9383C30.8695 45.1155 31.1051 45.2151 31.3507 45.2151H32.5392C35.3446 45.0946 38.043 44.0825 40.257 42.3203V47.7981C40.257 48.0487 40.3545 48.2891 40.5282 48.4663C40.7019 48.6435 40.9375 48.7431 41.1831 48.7431C41.4287 48.7431 41.6643 48.6435 41.8379 48.4663C42.0116 48.2891 42.1092 48.0487 42.1092 47.7981V42.0053C43.384 44.1595 45.075 46.0264 47.0794 47.4926L47.1041 47.5083L47.1412 47.5304H47.1658L47.2091 47.5524H47.2307L47.2739 47.5713H47.5826C47.637 47.5762 47.6918 47.5762 47.7462 47.5713H47.8172C47.9348 47.5395 48.0451 47.4843 48.1418 47.409C48.2384 47.3336 48.3196 47.2396 48.3807 47.1323C48.4418 47.0249 48.4815 46.9063 48.4976 46.7833C48.5138 46.6603 48.506 46.5352 48.4748 46.4153C47.6567 43.2653 47.3079 40.8681 47.3758 38.8553C47.4025 38.0344 47.5058 37.218 47.6845 36.4172C47.7708 36.9136 47.8884 37.404 48.0364 37.8851C48.6074 39.719 49.6175 41.3787 50.9753 42.714C51.1527 42.8794 51.3861 42.968 51.6263 42.961C51.8665 42.954 52.0947 42.8521 52.2626 42.6767C52.4305 42.5013 52.525 42.2661 52.5261 42.0209C52.5273 41.7758 52.435 41.5397 52.2688 41.3627C51.1288 40.2449 50.28 38.8548 49.7991 37.3181C49.3133 35.652 49.2077 33.8945 49.4904 32.1804L53.8772 37.6016C53.9933 37.7454 54.1486 37.8511 54.3234 37.9052C54.4982 37.9592 54.6848 37.9593 54.8597 37.9055C55.0346 37.8516 55.19 37.7461 55.3063 37.6024C55.4226 37.4586 55.4946 37.283 55.5133 37.0976C55.6555 35.407 55.4607 33.7046 54.9408 32.093C54.4208 30.4813 53.5865 28.9938 52.488 27.72C51.4146 26.4202 50.1237 25.3248 48.6754 24.485C47.9557 24.0654 47.2017 23.7102 46.4219 23.4234C46.9739 23.2832 47.5368 23.1926 48.1043 23.1525C49.2296 23.0688 50.3605 23.1893 51.4445 23.5085C52.5056 23.8037 53.4971 24.3151 54.3592 25.0118C55.2214 25.7086 55.9364 26.5762 56.4611 27.5625C56.5871 27.7605 56.7813 27.9032 57.0054 27.9625C57.2294 28.0217 57.4671 27.9932 57.6716 27.8825C57.876 27.7719 58.0325 27.5871 58.1101 27.3647C58.1878 27.1422 58.181 26.8981 58.091 26.6805Z" fill="black"/>
<path d="M32.3971 59.8501C32.4804 59.1577 32.389 58.4551 32.1316 57.8089L31.048 55.0936C30.9909 54.9501 30.9691 54.7944 30.9848 54.6403C31.0004 54.4862 31.0529 54.3384 31.1377 54.2099C31.2225 54.0814 31.3369 53.9761 31.4709 53.9034C31.6049 53.8306 31.7544 53.7926 31.9063 53.7926H36.0059C36.0088 53.794 36.012 53.7947 36.0152 53.7947C36.0184 53.7947 36.0215 53.794 36.0244 53.7926C36.0263 53.7893 36.0273 53.7855 36.0273 53.7816C36.0273 53.7777 36.0263 53.7739 36.0244 53.7706C35.6694 52.3499 35.0119 49.6756 34.5673 47.8391C34.5346 47.7015 34.5326 47.5582 34.5614 47.4197C34.5903 47.2812 34.6493 47.1511 34.734 47.039L32.4681 45.253H31.2796C31.1971 45.2525 31.1151 45.2409 31.0357 45.2183L26.4051 62.4961C27.8525 62.7584 29.3164 62.9152 30.7856 62.9654L31.6593 61.7495C32.0586 61.1901 32.3124 60.5366 32.3971 59.8501ZM15.4212 47.0296C15.506 47.1417 15.565 47.2718 15.5938 47.4102C15.6227 47.5487 15.6207 47.6921 15.5879 47.8297C15.1434 49.6819 14.4828 52.3405 14.1308 53.7611C14.1289 53.7645 14.1279 53.7683 14.1279 53.7721C14.1279 53.776 14.1289 53.7798 14.1308 53.7832C14.1337 53.7846 14.1369 53.7853 14.1401 53.7853C14.1433 53.7853 14.1465 53.7846 14.1493 53.7832H18.2675C18.4193 53.7831 18.5688 53.8211 18.7029 53.8939C18.8369 53.9667 18.9513 54.072 19.0361 54.2005C19.1209 54.329 19.1734 54.4768 19.189 54.6309C19.2046 54.785 19.1829 54.9406 19.1257 55.0841L18.0391 57.8026C17.823 58.3438 17.723 58.9259 17.7458 59.5099C19.6122 60.4913 21.5725 61.2745 23.5958 61.8472L18.8849 44.3206L15.4212 47.0296Z" fill="#F3D26A"/>
<path d="M37.8243 53.2948C37.8948 53.5774 37.9011 53.8728 37.8428 54.1584C37.7844 54.4439 37.6629 54.7121 37.4875 54.9424C37.3121 55.1727 37.0874 55.3591 36.8307 55.4874C36.5739 55.6156 36.2919 55.6824 36.006 55.6825H33.2832L33.8481 57.1C34.2245 58.0454 34.3577 59.0734 34.235 60.0862C34.1124 61.099 33.7379 62.063 33.1474 62.8865L33.0825 62.9779C38.6195 62.7612 43.9958 61.0196 48.6414 57.9379L36.6481 48.5288C37.0556 50.2046 37.5403 52.1513 37.8243 53.2948ZM16.8753 55.6825H14.1556C13.8698 55.6824 13.5877 55.6156 13.3309 55.4874C13.0742 55.3591 12.8496 55.1727 12.6742 54.9424C12.4988 54.7121 12.3772 54.4439 12.3189 54.1584C12.2605 53.8728 12.2668 53.5774 12.3373 53.2948C12.6213 52.1513 13.106 50.2078 13.5135 48.5288L8.6853 52.3088C10.7809 54.7352 13.2286 56.8195 15.943 58.4891C16.0106 58.0093 16.135 57.5397 16.3135 57.0905L16.8753 55.6825Z" fill="#F3D26A"/>
</svg>
