<svg width="35" height="35" viewBox="0 0 35 35" fill="none" xmlns="http://www.w3.org/2000/svg">
<path d="M17.6354 31.2568C21.3197 31.2568 24.8532 29.7931 27.4584 27.1879C30.0637 24.5827 31.5273 21.0492 31.5273 17.3649C31.5273 13.6805 30.0637 10.147 27.4584 7.54181C24.8532 4.93658 21.3197 3.47297 17.6354 3.47297C13.951 3.47297 10.4176 4.93658 7.81232 7.54181C5.20709 10.147 3.74348 13.6805 3.74348 17.3649C3.74348 21.0492 5.20709 24.5827 7.81232 27.1879C10.4176 29.7931 13.951 31.2568 17.6354 31.2568ZM17.6354 34.7297C8.04476 34.7297 0.270508 26.9555 0.270508 17.3649C0.270508 7.77425 8.04476 0 17.6354 0C27.226 0 35.0002 7.77425 35.0002 17.3649C35.0002 26.9555 27.226 34.7297 17.6354 34.7297Z" fill="white"/>
<path d="M27.2525 12.4126C27.4219 12.8634 26.8694 13.8987 25.595 15.5186C25.4182 15.7439 25.1788 16.0433 24.8767 16.4165C24.5821 16.7757 24.3795 17.0293 24.269 17.1772C24.1585 17.3251 24.0462 17.4994 23.932 17.7001C23.8178 17.9008 23.7736 18.0487 23.7994 18.1438C23.8252 18.2389 23.873 18.3604 23.943 18.5083C24.013 18.6562 24.1327 18.8076 24.3021 18.9626C24.4716 19.1175 24.6815 19.3041 24.932 19.5225C24.9615 19.5366 24.9799 19.5507 24.9872 19.5647C26.0259 20.4874 26.7295 21.2656 27.0978 21.8995C27.1199 21.9347 27.1438 21.9787 27.1696 22.0315C27.1954 22.0843 27.2212 22.1777 27.247 22.3115C27.2728 22.4453 27.2709 22.565 27.2414 22.6707C27.212 22.7763 27.1199 22.8732 26.9652 22.9612C26.8105 23.0492 26.5932 23.0932 26.3132 23.0932L23.4844 23.1355C23.3076 23.1707 23.1014 23.1531 22.8656 23.0827C22.6299 23.0123 22.4384 22.9348 22.291 22.8503L22.07 22.7235C21.849 22.5756 21.5912 22.3502 21.2965 22.0474C21.0019 21.7445 20.7496 21.4716 20.5396 21.2286C20.3297 20.9857 20.105 20.7814 19.8656 20.6159C19.6262 20.4504 19.418 20.3958 19.2412 20.4521C19.2191 20.4592 19.1897 20.4715 19.1528 20.4891C19.116 20.5067 19.0534 20.5578 18.965 20.6423C18.8766 20.7268 18.7974 20.8307 18.7274 20.954C18.6574 21.0772 18.5948 21.2603 18.5396 21.5033C18.4843 21.7463 18.4604 22.0192 18.4677 22.322C18.4677 22.4277 18.4549 22.5245 18.4291 22.6126C18.4033 22.7006 18.3757 22.7658 18.3462 22.808L18.302 22.8608C18.1694 22.9946 17.9742 23.0721 17.7163 23.0932H16.4456C15.9226 23.1214 15.3848 23.0633 14.8323 22.9189C14.2798 22.7746 13.7954 22.5879 13.3792 22.359C12.963 22.1301 12.5836 21.8977 12.2411 21.6618C11.8985 21.4258 11.6388 21.2233 11.462 21.0543L11.1858 20.8008C11.1121 20.7303 11.0108 20.6247 10.8819 20.4838C10.753 20.343 10.4896 20.0225 10.0918 19.5225C9.69404 19.0224 9.30361 18.4907 8.92054 17.9273C8.53748 17.3638 8.08627 16.6208 7.56692 15.6982C7.04757 14.7755 6.56689 13.8177 6.12489 12.8246C6.08069 12.712 6.05859 12.6169 6.05859 12.5394C6.05859 12.4619 6.06964 12.4056 6.09174 12.3704L6.13594 12.307C6.24644 12.1732 6.45639 12.1063 6.76579 12.1063L9.79349 12.0851C9.88189 12.0992 9.96661 12.1221 10.0476 12.1538C10.1287 12.1855 10.1876 12.2154 10.2244 12.2436L10.2797 12.2753C10.3976 12.3528 10.486 12.4655 10.5449 12.6134C10.6922 12.9655 10.8617 13.33 11.0532 13.7068C11.2447 14.0836 11.3957 14.3706 11.5062 14.5678L11.683 14.8741C11.8967 15.2967 12.1029 15.663 12.3018 15.9728C12.5007 16.2827 12.6794 16.5239 12.8378 16.6965C12.9962 16.8691 13.149 17.0046 13.2963 17.1032C13.4437 17.2018 13.5689 17.2511 13.672 17.2511C13.7752 17.2511 13.8746 17.2335 13.9704 17.1983C13.9851 17.1913 14.0035 17.1737 14.0256 17.1455C14.0477 17.1173 14.0919 17.0398 14.1582 16.9131C14.2245 16.7863 14.2743 16.6208 14.3074 16.4165C14.3406 16.2123 14.3756 15.9271 14.4124 15.5608C14.4492 15.1946 14.4492 14.7544 14.4124 14.2403C14.3977 13.9586 14.3645 13.7015 14.3129 13.4691C14.2614 13.2367 14.2098 13.0747 14.1582 12.9831L14.0919 12.8563C13.9078 12.6169 13.5947 12.4655 13.1527 12.4021C13.0569 12.388 13.0753 12.3035 13.2079 12.1485C13.3258 12.0147 13.4658 11.9091 13.6278 11.8316C14.0183 11.6485 14.8986 11.564 16.2688 11.578C16.8729 11.5851 17.3701 11.6309 17.7605 11.7154C17.9079 11.7506 18.0313 11.7981 18.1307 11.858C18.2302 11.9179 18.3057 12.0024 18.3572 12.1115C18.4088 12.2207 18.4475 12.3334 18.4733 12.4496C18.4991 12.5658 18.5119 12.726 18.5119 12.9303C18.5119 13.1345 18.5083 13.3282 18.5009 13.5113C18.4935 13.6944 18.4843 13.9427 18.4733 14.2561C18.4622 14.5695 18.4567 14.8601 18.4567 15.1277C18.4567 15.2052 18.453 15.3531 18.4456 15.5714C18.4383 15.7897 18.4364 15.9588 18.4401 16.0785C18.4438 16.1982 18.4567 16.3408 18.4788 16.5063C18.5009 16.6719 18.5433 16.8092 18.6059 16.9184C18.6685 17.0275 18.7514 17.1138 18.8545 17.1772C18.9134 17.1913 18.976 17.2054 19.0423 17.2194C19.1086 17.2335 19.2044 17.1948 19.3296 17.1032C19.4549 17.0117 19.5948 16.8902 19.7495 16.7388C19.9042 16.5873 20.0958 16.3514 20.3241 16.0309C20.5525 15.7105 20.803 15.3319 21.0755 14.8953C21.5175 14.1628 21.9117 13.3705 22.2579 12.5183C22.2874 12.4479 22.3242 12.3862 22.3684 12.3334C22.4126 12.2806 22.4531 12.2436 22.4899 12.2225L22.5341 12.1908L22.5894 12.1644L22.733 12.1327L22.954 12.1274L26.1364 12.1063C26.4237 12.0711 26.6595 12.0799 26.8436 12.1327C27.0278 12.1855 27.142 12.2436 27.1862 12.307L27.2525 12.4126Z" fill="white"/>
</svg>
