<svg width="35" height="35" viewBox="0 0 35 35" fill="none" xmlns="http://www.w3.org/2000/svg">
<path d="M17.3649 31.2568C21.0492 31.2568 24.5827 29.7931 27.1879 27.1879C29.7931 24.5827 31.2568 21.0492 31.2568 17.3649C31.2568 13.6805 29.7931 10.147 27.1879 7.54181C24.5827 4.93658 21.0492 3.47297 17.3649 3.47297C13.6805 3.47297 10.147 4.93658 7.54181 7.54181C4.93658 10.147 3.47297 13.6805 3.47297 17.3649C3.47297 21.0492 4.93658 24.5827 7.54181 27.1879C10.147 29.7931 13.6805 31.2568 17.3649 31.2568ZM17.3649 34.7297C7.77425 34.7297 0 26.9555 0 17.3649C0 7.77425 7.77425 0 17.3649 0C26.9555 0 34.7297 7.77425 34.7297 17.3649C34.7297 26.9555 26.9555 34.7297 17.3649 34.7297Z" fill="white"/>
<path d="M23.6232 24.6725C22.6826 25.6131 21.2175 25.7518 19.2278 25.0886C17.238 24.4253 15.3086 23.1591 13.4395 21.29C11.5703 19.4209 10.3041 17.4914 9.6409 15.5017C8.97766 13.512 9.11634 12.0468 10.0569 11.1062L11.7572 9.40592C11.902 9.26121 12.1492 9.2793 12.4989 9.46018C12.8486 9.64107 13.1681 9.93651 13.4576 10.3465C13.747 10.7565 13.8917 11.1665 13.8917 11.5765V13.8918L12.734 15.1942C13.0234 16.2795 13.958 17.612 15.5377 19.1917C17.1174 20.7715 18.45 21.706 19.5353 21.9954L20.8376 20.8378H23.1529C23.5629 20.8378 23.9729 20.9825 24.3829 21.2719C24.793 21.5613 25.0884 21.8809 25.2693 22.2306C25.4502 22.5803 25.4683 22.8275 25.3235 22.9722L23.6232 24.6725Z" fill="white"/>
</svg>
