<svg width="238" height="43" viewBox="0 0 238 43" fill="none" xmlns="http://www.w3.org/2000/svg">
<path fill-rule="evenodd" clip-rule="evenodd" d="M21.3767 42.7534C33.1828 42.7534 42.7534 33.1828 42.7534 21.3767C42.7534 9.57069 33.1828 0 21.3767 0C9.57069 0 0 9.57069 0 21.3767C0 33.1828 9.57069 42.7534 21.3767 42.7534ZM28.4688 28.6837C29.3766 28.9474 30.2565 29.0793 31.1084 29.0793C31.9184 29.0793 32.6865 28.9613 33.4128 28.7254C34.139 28.5033 34.7884 28.198 35.361 27.8094C35.9336 27.4069 36.4085 26.9489 36.7856 26.4354C37.1766 25.908 37.435 25.346 37.5607 24.7492C37.1696 25.1655 36.7506 25.5056 36.3037 25.7693C35.8708 26.0191 35.4378 26.2203 35.0049 26.373C34.572 26.5256 34.153 26.6297 33.748 26.6852C33.3429 26.7408 32.9798 26.7685 32.6586 26.7685C31.7368 26.7685 30.871 26.602 30.0609 26.2689C29.2649 25.9219 28.5596 25.4501 27.9451 24.8533C27.3445 24.2565 26.8697 23.5556 26.5205 22.7507C26.1714 21.9457 25.9968 21.0714 25.9968 20.1277C25.9968 19.3921 26.0876 18.6912 26.2691 18.0251C26.4647 17.345 26.744 16.7552 27.1071 16.2556C27.4702 15.7421 27.9102 15.3327 28.4269 15.0273C28.9576 14.722 29.5581 14.5693 30.2285 14.5693C30.7453 14.5693 31.2201 14.6596 31.6531 14.84C32.086 15.0065 32.4561 15.2494 32.7634 15.5686C33.0706 15.8878 33.308 16.2695 33.4756 16.7136C33.6432 17.1438 33.727 17.6226 33.727 18.15C33.727 18.5247 33.6781 18.8855 33.5804 19.2325C33.4826 19.5656 33.336 19.864 33.1404 20.1277C32.9589 20.3775 32.7284 20.5787 32.4491 20.7314C32.1698 20.884 31.8486 20.9604 31.4855 20.9604C30.9966 20.9604 30.6056 20.8285 30.3123 20.5648C30.019 20.2873 29.8724 19.9195 29.8724 19.4615C29.9422 19.4893 30.04 19.524 30.1657 19.5656C30.2914 19.6072 30.4171 19.628 30.5428 19.628C30.8221 19.628 31.0595 19.5378 31.255 19.3574C31.4505 19.1631 31.5483 18.9064 31.5483 18.5872C31.5483 18.268 31.4436 18.0043 31.2341 17.7961C31.0246 17.5879 30.7453 17.4838 30.3961 17.4838C29.9073 17.4838 29.5372 17.6781 29.2858 18.0667C29.0484 18.4414 28.9297 18.8717 28.9297 19.3574C28.9297 19.7599 29.0135 20.1415 29.1811 20.5024C29.3487 20.8493 29.5861 21.1547 29.8933 21.4184C30.2006 21.6821 30.5637 21.8902 30.9827 22.0429C31.4017 22.1956 31.8625 22.2719 32.3653 22.2719C33.1614 22.2719 33.8457 22.1123 34.4183 21.7931C34.9909 21.4739 35.4658 21.0575 35.8429 20.544C36.2199 20.0305 36.4993 19.4546 36.6808 18.8162C36.8624 18.1777 36.9532 17.5393 36.9532 16.9009C36.9532 16.6372 36.9322 16.4013 36.8903 16.1931C36.8484 15.9711 36.8065 15.8115 36.7646 15.7143C36.5551 15.7837 36.3596 15.8184 36.178 15.8184C35.8429 15.8184 35.5216 15.749 35.2144 15.6102C34.9211 15.4714 34.551 15.2424 34.1041 14.9232C33.9225 14.7983 33.7061 14.6665 33.4547 14.5277C33.2172 14.375 32.9379 14.2363 32.6167 14.1114C32.3095 13.9864 31.9603 13.8824 31.5693 13.7991C31.1782 13.7158 30.7383 13.6742 30.2495 13.6742C29.188 13.6742 28.2384 13.9101 27.4004 14.382C26.5624 14.84 25.8502 15.4367 25.2636 16.1723C24.677 16.894 24.2301 17.7059 23.9229 18.608C23.6156 19.5101 23.462 20.4052 23.462 21.2935C23.462 22.7507 23.6994 23.9789 24.1742 24.9782C24.6491 25.9636 25.2566 26.7616 25.9968 27.3722C26.751 27.9829 27.575 28.42 28.4688 28.6837ZM12.2161 14.7151C12.3418 14.4791 12.5024 14.271 12.6979 14.0905H7.0417C7.55844 14.5069 8.01932 14.9649 8.42433 15.4645L7.60732 21.002C7.43973 22.1956 7.25817 23.2017 7.06264 24.0206C6.88109 24.8394 6.69255 25.5333 6.49702 26.1023C6.31546 26.6714 6.12692 27.1571 5.9314 27.5596C5.73587 27.9482 5.54733 28.316 5.36577 28.6629H9.59748C9.41592 28.427 9.25531 28.1147 9.11565 27.7261C8.97599 27.3236 8.85728 26.9004 8.75952 26.4562C8.66175 25.9983 8.58494 25.5472 8.52908 25.1031C8.48718 24.6451 8.46623 24.2426 8.46623 23.8957C8.46623 23.7569 8.47321 23.5765 8.48718 23.3544C8.50115 23.1324 8.51511 22.8964 8.52908 22.6466L8.61287 21.8972C8.64081 21.6474 8.66874 21.4184 8.69667 21.2102L9.2204 17.0258L13.5359 27.6637L17.0344 16.547L18.438 26.2689V26.4979C18.4519 26.5812 18.4589 26.6644 18.4589 26.7477C18.4589 27.1363 18.3821 27.4971 18.2285 27.8302C18.0888 28.1494 17.8933 28.427 17.6419 28.6629H22.8582C22.3415 28.3021 21.9714 27.8302 21.7479 27.2473C21.5384 26.6505 21.3708 25.8525 21.2451 24.8533L20.1348 16.5678C20.1348 16.4984 20.1279 16.3874 20.1139 16.2348V15.8809C20.1139 15.5061 20.1907 15.1592 20.3443 14.84C20.5119 14.5208 20.7982 14.271 21.2032 14.0905H15.4842C15.7495 14.2432 15.973 14.4028 16.1545 14.5693C16.3361 14.722 16.4548 14.8677 16.5107 15.0065L14.332 21.8555L12.1742 16.2972C12.1183 16.1445 12.0764 16.0196 12.0485 15.9225C12.0346 15.8115 12.0276 15.6796 12.0276 15.527C12.0276 15.2216 12.0904 14.951 12.2161 14.7151Z" fill="#1F316A"/>
<path d="M66.5742 20.7318H60.7817V19.9509C61.2814 19.9509 61.6477 19.9028 61.8806 19.8066C62.1134 19.7047 62.2639 19.5604 62.332 19.3736C62.4059 19.1812 62.4428 18.9209 62.4428 18.5927V11.3775L58.0813 20.7318H57.5617L53.1406 11.3775V18.2277C53.1406 18.5899 53.152 18.8672 53.1747 19.0596C53.2031 19.252 53.2684 19.4161 53.3706 19.5519C53.4785 19.6877 53.646 19.7896 53.8732 19.8575C54.1004 19.9197 54.4155 19.9509 54.8188 19.9509V20.7318H50.5425V19.9509C50.9514 19.9509 51.2666 19.9169 51.488 19.849C51.7152 19.7811 51.8799 19.6792 51.9821 19.5434C52.0843 19.4076 52.1468 19.2463 52.1695 19.0596C52.1922 18.8672 52.2036 18.5899 52.2036 18.2277V11.7086C52.2036 11.2219 52.178 10.871 52.1269 10.656C52.0758 10.4409 51.9338 10.2797 51.701 10.1721C51.4738 10.059 51.0877 10.0024 50.5425 10.0024V9.22143H54.7676L58.601 17.3449L62.4428 9.22143H66.5742V10.0024C65.8644 10.0024 65.4044 10.1071 65.1942 10.3164C64.9898 10.5202 64.8876 10.8682 64.8876 11.3605V18.5927C64.8876 18.9039 64.9217 19.1558 64.9898 19.3482C65.058 19.5406 65.2141 19.6905 65.4583 19.7981C65.7082 19.8999 66.0802 19.9509 66.5742 19.9509V20.7318Z" fill="#1F316A"/>
<path d="M78.8579 20.7318H73.4146V19.9509C73.8746 19.9509 74.2096 19.9197 74.4197 19.8575C74.6299 19.7896 74.7349 19.634 74.7349 19.3906C74.7349 19.2208 74.7009 19.0482 74.6327 18.8728L74.0875 17.5147H70.3394L70.0583 18.2616C69.8993 18.6804 69.8198 18.9832 69.8198 19.1699C69.8198 19.5095 69.9504 19.7245 70.2116 19.815C70.4785 19.9056 70.788 19.9509 71.1401 19.9509V20.7318H67.162V19.9509C67.48 19.9509 67.7498 19.8914 67.9713 19.7726C68.1927 19.6538 68.4029 19.4302 68.6016 19.102C68.8061 18.7681 69.0247 18.2984 69.2576 17.6929L72.5883 9.00073H73.3975L76.9157 17.9646C77.1712 18.5984 77.3586 19.0284 77.4779 19.2548C77.5971 19.4755 77.7618 19.6481 77.972 19.7726C78.1821 19.8914 78.4774 19.9509 78.8579 19.9509V20.7318ZM73.7809 16.6828L72.1879 12.6677L70.6716 16.6828H73.7809Z" fill="#1F316A"/>
<path d="M92.9389 20.7318H87.2571V19.9509C87.7228 19.9509 88.0749 19.8999 88.3134 19.7981C88.5519 19.6962 88.7052 19.5491 88.7734 19.3567C88.8415 19.1643 88.8756 18.9096 88.8756 18.5927V15.1379H83.5175V18.5927C83.5175 19.0681 83.6169 19.4133 83.8156 19.6283C84.0144 19.8433 84.4687 19.9509 85.1786 19.9509V20.7318H79.4542V19.9509C79.9142 19.9509 80.2634 19.8999 80.5019 19.7981C80.7461 19.6962 80.9023 19.5519 80.9705 19.3651C81.0443 19.1727 81.0812 18.9153 81.0812 18.5927V11.3605C81.0812 11.038 81.0471 10.7861 80.979 10.6051C80.9108 10.4183 80.7603 10.2712 80.5275 10.1637C80.2947 10.0561 79.9369 10.0024 79.4542 10.0024V9.22143H85.1786V10.0024C84.4744 10.0024 84.0201 10.1071 83.8156 10.3164C83.6169 10.5258 83.5175 10.8739 83.5175 11.3605V14.1957H88.8756V11.3605C88.8756 11.038 88.8444 10.7861 88.7819 10.6051C88.7194 10.4183 88.5718 10.2712 88.3389 10.1637C88.1061 10.0561 87.7455 10.0024 87.2571 10.0024V9.22143H92.9389V10.0024C92.4562 10.0024 92.0984 10.0561 91.8656 10.1637C91.6327 10.2712 91.4822 10.4183 91.4141 10.6051C91.3516 10.7861 91.3204 11.038 91.3204 11.3605V18.5927C91.3204 18.9039 91.3488 19.1529 91.4056 19.3397C91.468 19.5208 91.6185 19.6679 91.8571 19.7811C92.0956 19.8943 92.4562 19.9509 92.9389 19.9509V20.7318Z" fill="#1F316A"/>
<path d="M98.28 10.4607C98.28 10.523 98.3112 10.6333 98.3737 10.7918C98.4418 10.9446 98.5611 11.1398 98.7315 11.3775L100.563 13.9665L102.616 11.3096C102.69 11.2134 102.749 11.1313 102.795 11.0634C102.84 10.9955 102.874 10.9361 102.897 10.8852C102.92 10.8286 102.934 10.7777 102.94 10.7324C102.945 10.6871 102.948 10.639 102.948 10.5881C102.948 10.3787 102.871 10.2287 102.718 10.1382C102.57 10.0476 102.292 10.0024 101.883 10.0024H101.483V9.22143H106.245V10.0024C105.825 10.0024 105.458 10.0731 105.146 10.2146C104.987 10.2881 104.848 10.3674 104.728 10.4523C104.615 10.5315 104.496 10.6305 104.371 10.7494C104.251 10.8682 104.118 11.0182 103.97 11.1992C103.828 11.3747 103.652 11.5982 103.442 11.8698L97.4878 19.467C97.3174 19.6877 97.1442 19.8886 96.9681 20.0697C96.7921 20.2508 96.6132 20.4064 96.4315 20.5366C96.2497 20.6667 96.0595 20.7657 95.8607 20.8337C95.6677 20.9072 95.466 20.944 95.2559 20.944C95.0401 20.944 94.8499 20.9157 94.6852 20.8591C94.5205 20.8082 94.3814 20.7375 94.2678 20.6469C94.1542 20.5564 94.0662 20.4545 94.0037 20.3413C93.9469 20.2225 93.9185 20.1008 93.9185 19.9763C93.9185 19.7047 93.998 19.484 94.157 19.3142C94.3217 19.1444 94.5375 19.0596 94.8044 19.0596C94.9578 19.0596 95.1139 19.0765 95.273 19.1105C95.4377 19.1388 95.5796 19.1529 95.6989 19.1529C96.2043 19.1529 96.5621 19.0228 96.7722 18.7625L98.9955 15.9613L96.0056 11.6576C95.8181 11.386 95.6535 11.1596 95.5115 10.9785C95.3752 10.7918 95.2644 10.6503 95.1793 10.5541C95.0941 10.4523 95.0004 10.3674 94.8981 10.2995C94.8016 10.2316 94.688 10.175 94.5574 10.1297C94.4268 10.0844 94.2763 10.0533 94.1059 10.0363C93.9356 10.0137 93.7368 10.0024 93.5096 10.0024V9.22143H99.7281V10.0024H99.2852C99.1205 10.0024 98.9757 10.008 98.8507 10.0193C98.7258 10.025 98.6207 10.0448 98.5355 10.0788C98.4504 10.1071 98.385 10.1523 98.3396 10.2146C98.2999 10.2768 98.28 10.3589 98.28 10.4607Z" fill="#1F316A"/>
<path d="M120.079 14.9766C120.079 15.4293 119.957 15.8594 119.712 16.2669C119.474 16.6743 119.128 17.0393 118.673 17.3619C118.225 17.6844 117.674 17.9561 117.021 18.1768C116.373 18.3918 115.638 18.5361 114.814 18.6097C114.82 18.8474 114.84 19.0511 114.874 19.2208C114.914 19.385 114.993 19.5208 115.112 19.6283C115.232 19.7302 115.405 19.8094 115.632 19.866C115.865 19.9169 116.174 19.9452 116.561 19.9509V20.7318H110.7V19.9509C111.075 19.9452 111.376 19.9197 111.603 19.8745C111.83 19.8235 112.003 19.7471 112.122 19.6453C112.247 19.5434 112.33 19.4104 112.37 19.2463C112.415 19.0765 112.441 18.8643 112.446 18.6097C111.543 18.5361 110.76 18.3777 110.095 18.1343C109.436 17.891 108.891 17.6024 108.46 17.2685C108.028 16.929 107.707 16.5611 107.497 16.165C107.287 15.7632 107.182 15.3643 107.182 14.9681C107.182 14.5267 107.298 14.1051 107.531 13.7033C107.77 13.2959 108.113 12.9309 108.562 12.6083C109.01 12.2858 109.561 12.0141 110.214 11.7934C110.867 11.5727 111.611 11.4284 112.446 11.3605C112.446 11.0663 112.406 10.8314 112.327 10.656C112.247 10.4806 112.131 10.3447 111.978 10.2485C111.83 10.1523 111.648 10.0901 111.432 10.0618C111.217 10.0278 110.972 10.008 110.7 10.0024V9.22143H116.561V10.0024C116.186 10.0137 115.885 10.0448 115.658 10.0957C115.43 10.141 115.254 10.2174 115.13 10.3249C115.005 10.4268 114.919 10.5626 114.874 10.7324C114.834 10.8965 114.814 11.1059 114.814 11.3605C115.825 11.4454 116.669 11.6208 117.344 11.8868C118.02 12.1528 118.56 12.4612 118.963 12.8121C119.366 13.1629 119.653 13.5307 119.823 13.9156C119.994 14.3004 120.079 14.6541 120.079 14.9766ZM109.942 14.9596C109.942 15.1803 109.964 15.435 110.01 15.7236C110.061 16.0065 110.172 16.2838 110.342 16.5555C110.513 16.8271 110.762 17.0761 111.092 17.3025C111.427 17.5232 111.878 17.6844 112.446 17.7863V12.1669C111.946 12.2518 111.535 12.3876 111.211 12.5744C110.887 12.7611 110.632 12.9818 110.444 13.2365C110.257 13.4855 110.126 13.7599 110.053 14.0599C109.979 14.3541 109.942 14.6541 109.942 14.9596ZM117.319 14.9596C117.319 14.6484 117.279 14.3456 117.2 14.0514C117.12 13.7514 116.984 13.477 116.791 13.228C116.598 12.9733 116.339 12.7555 116.015 12.5744C115.697 12.3876 115.297 12.2518 114.814 12.1669V17.7948C115.206 17.7212 115.541 17.6194 115.82 17.4892C116.098 17.3534 116.328 17.2034 116.51 17.0393C116.697 16.8695 116.845 16.6913 116.952 16.5045C117.06 16.3178 117.14 16.131 117.191 15.9443C117.248 15.7576 117.282 15.5793 117.293 15.4095C117.31 15.2398 117.319 15.0898 117.319 14.9596Z" fill="#1F316A"/>
<path d="M132.746 20.7318H127.302V19.9509C127.762 19.9509 128.097 19.9197 128.308 19.8575C128.518 19.7896 128.623 19.634 128.623 19.3906C128.623 19.2208 128.589 19.0482 128.521 18.8728L127.975 17.5147H124.227L123.946 18.2616C123.787 18.6804 123.708 18.9832 123.708 19.1699C123.708 19.5095 123.838 19.7245 124.099 19.815C124.366 19.9056 124.676 19.9509 125.028 19.9509V20.7318H121.05V19.9509C121.368 19.9509 121.638 19.8914 121.859 19.7726C122.081 19.6538 122.291 19.4302 122.489 19.102C122.694 18.7681 122.913 18.2984 123.145 17.6929L126.476 9.00073H127.285L130.803 17.9646C131.059 18.5984 131.246 19.0284 131.366 19.2548C131.485 19.4755 131.65 19.6481 131.86 19.7726C132.07 19.8914 132.365 19.9509 132.746 19.9509V20.7318ZM127.669 16.6828L126.076 12.6677L124.559 16.6828H127.669Z" fill="#1F316A"/>
<path d="M145.822 20.7318H142.729C142.445 20.3753 142.184 20.0188 141.946 19.6622C141.707 19.3001 141.477 18.9379 141.256 18.5757C141.04 18.2135 140.824 17.8542 140.608 17.4977C140.398 17.1412 140.177 16.7875 139.944 16.4366C139.808 16.2329 139.68 16.0745 139.56 15.9613C139.447 15.8481 139.302 15.7632 139.126 15.7066C138.956 15.65 138.737 15.6161 138.47 15.6048C138.203 15.5934 137.848 15.5878 137.405 15.5878V18.5927C137.405 18.8417 137.428 19.0539 137.473 19.2293C137.525 19.3991 137.613 19.5377 137.738 19.6453C137.862 19.7528 138.033 19.832 138.249 19.8829C138.47 19.9282 138.748 19.9509 139.083 19.9509V20.7318H133.308V19.9509C133.683 19.9452 133.978 19.9169 134.194 19.866C134.415 19.8094 134.58 19.7273 134.688 19.6198C134.801 19.5123 134.875 19.3736 134.909 19.2039C134.943 19.0341 134.963 18.8304 134.969 18.5927V11.3605C134.969 11.1228 134.952 10.9191 134.918 10.7494C134.89 10.5796 134.819 10.4438 134.705 10.3419C134.591 10.2344 134.424 10.1552 134.202 10.1042C133.987 10.0476 133.688 10.0137 133.308 10.0024V9.22143H139.083V10.0024C138.374 10.0024 137.916 10.1042 137.712 10.308C137.508 10.5117 137.405 10.8625 137.405 11.3605V14.3994C137.502 14.3994 137.615 14.3768 137.746 14.3315C137.877 14.2806 138.044 14.1815 138.249 14.0344C138.453 13.8873 138.7 13.675 138.99 13.3978C139.279 13.1148 139.634 12.7441 140.055 12.2858C140.316 11.9915 140.532 11.7397 140.702 11.5303C140.872 11.3209 141.026 11.1313 141.162 10.9616C141.304 10.7861 141.449 10.6192 141.596 10.4607C141.75 10.2966 141.937 10.1156 142.159 9.91749C142.346 9.75338 142.525 9.61473 142.695 9.50155C142.866 9.38271 143.036 9.28934 143.206 9.22143C143.377 9.14787 143.553 9.09694 143.735 9.06864C143.922 9.03469 144.124 9.01771 144.339 9.01771C144.453 9.01771 144.561 9.03186 144.663 9.06015C144.771 9.08279 144.865 9.1224 144.944 9.17899C145.024 9.23558 145.086 9.30632 145.132 9.3912C145.177 9.47043 145.2 9.56946 145.2 9.6883C145.2 9.85241 145.16 10.0052 145.08 10.1467C145.007 10.2881 144.853 10.4013 144.62 10.4862C144.365 10.5768 144.115 10.6447 143.871 10.6899C143.627 10.7296 143.414 10.7861 143.232 10.8597C143.13 10.8993 143.019 10.9446 142.9 10.9955C142.78 11.0465 142.656 11.1115 142.525 11.1908C142.394 11.2643 142.255 11.3577 142.108 11.4709C141.966 11.5784 141.821 11.7086 141.673 11.8613C141.542 11.9972 141.386 12.1698 141.205 12.3791C141.023 12.5885 140.813 12.8177 140.574 13.0667C140.341 13.31 140.086 13.5619 139.808 13.8222C139.529 14.0825 139.234 14.3258 138.922 14.5522C138.984 14.5465 139.044 14.5437 139.1 14.5437C139.163 14.538 139.223 14.5352 139.279 14.5352C139.597 14.5352 139.887 14.555 140.148 14.5946C140.415 14.6342 140.665 14.7078 140.898 14.8153C141.136 14.9172 141.361 15.0643 141.571 15.2567C141.781 15.4435 141.994 15.6896 142.21 15.9952C142.579 16.5272 142.942 17.0648 143.3 17.608C143.658 18.1513 144.038 18.6889 144.442 19.2208C144.532 19.3397 144.635 19.4472 144.748 19.5434C144.862 19.634 144.978 19.7103 145.097 19.7726C145.222 19.8292 145.345 19.8745 145.464 19.9084C145.589 19.9367 145.708 19.9509 145.822 19.9509V20.7318Z" fill="#1F316A"/>
<path d="M157.773 12.4895H156.964C156.89 11.7765 156.731 11.2502 156.487 10.9106C156.248 10.5711 155.99 10.3617 155.712 10.2825C155.433 10.2033 155.112 10.1637 154.749 10.1637H153.284V18.5927C153.284 18.9266 153.318 19.1869 153.386 19.3736C153.454 19.5547 153.613 19.6962 153.863 19.7981C154.113 19.8999 154.479 19.9509 154.962 19.9509V20.7318H149.169V19.9509C149.879 19.9509 150.336 19.849 150.541 19.6453C150.745 19.4415 150.847 19.0907 150.847 18.5927V10.1637H149.621C149.138 10.1637 148.738 10.2033 148.42 10.2825C148.102 10.3561 147.821 10.5654 147.576 10.9106C147.338 11.2502 147.202 11.7765 147.167 12.4895H146.358V9.22143H157.773V12.4895Z" fill="#1F316A"/>
<path d="M163.14 10.4607C163.14 10.523 163.171 10.6333 163.233 10.7918C163.301 10.9446 163.421 11.1398 163.591 11.3775L165.423 13.9665L167.476 11.3096C167.549 11.2134 167.609 11.1313 167.654 11.0634C167.7 10.9955 167.734 10.9361 167.757 10.8852C167.779 10.8286 167.794 10.7777 167.799 10.7324C167.805 10.6871 167.808 10.639 167.808 10.5881C167.808 10.3787 167.731 10.2287 167.578 10.1382C167.43 10.0476 167.152 10.0024 166.743 10.0024H166.343V9.22143H171.104V10.0024C170.684 10.0024 170.318 10.0731 170.005 10.2146C169.846 10.2881 169.707 10.3674 169.588 10.4523C169.475 10.5315 169.355 10.6305 169.23 10.7494C169.111 10.8682 168.978 11.0182 168.83 11.1992C168.688 11.3747 168.512 11.5982 168.302 11.8698L162.347 19.467C162.177 19.6877 162.004 19.8886 161.828 20.0697C161.652 20.2508 161.473 20.4064 161.291 20.5366C161.109 20.6667 160.919 20.7657 160.72 20.8337C160.527 20.9072 160.326 20.944 160.116 20.944C159.9 20.944 159.71 20.9157 159.545 20.8591C159.38 20.8082 159.241 20.7375 159.127 20.6469C159.014 20.5564 158.926 20.4545 158.863 20.3413C158.807 20.2225 158.778 20.1008 158.778 19.9763C158.778 19.7047 158.858 19.484 159.017 19.3142C159.181 19.1444 159.397 19.0596 159.664 19.0596C159.817 19.0596 159.974 19.0765 160.133 19.1105C160.297 19.1388 160.439 19.1529 160.559 19.1529C161.064 19.1529 161.422 19.0228 161.632 18.7625L163.855 15.9613L160.865 11.6576C160.678 11.386 160.513 11.1596 160.371 10.9785C160.235 10.7918 160.124 10.6503 160.039 10.5541C159.954 10.4523 159.86 10.3674 159.758 10.2995C159.661 10.2316 159.548 10.175 159.417 10.1297C159.286 10.0844 159.136 10.0533 158.966 10.0363C158.795 10.0137 158.596 10.0024 158.369 10.0024V9.22143H164.588V10.0024H164.145C163.98 10.0024 163.835 10.008 163.71 10.0193C163.585 10.025 163.48 10.0448 163.395 10.0788C163.31 10.1071 163.245 10.1523 163.199 10.2146C163.159 10.2768 163.14 10.3589 163.14 10.4607Z" fill="#1F316A"/>
<path d="M181.991 12.2858C181.991 13.2308 181.699 13.9495 181.114 14.4418C180.529 14.9285 179.839 15.2426 179.044 15.3841C178.254 15.5199 177.422 15.5878 176.548 15.5878H175.781V18.5927C175.781 18.9322 175.818 19.1954 175.892 19.3821C175.966 19.5689 176.125 19.7103 176.369 19.8066C176.613 19.9028 176.985 19.9509 177.485 19.9509V20.7318H171.675V19.9509C172.169 19.9509 172.533 19.8999 172.765 19.7981C173.004 19.6962 173.157 19.5519 173.225 19.3651C173.299 19.1784 173.336 18.9209 173.336 18.5927V11.3266C173.336 10.9984 173.302 10.7437 173.234 10.5626C173.166 10.3759 173.013 10.2316 172.774 10.1297C172.535 10.0222 172.169 9.96842 171.675 9.96842V9.1705L174.972 9.08562C175.142 9.07996 175.327 9.07713 175.525 9.07713C175.73 9.07147 175.892 9.06864 176.011 9.06864C176.13 9.06298 176.306 9.06015 176.539 9.06015C176.829 9.06015 177.045 9.06298 177.187 9.06864C177.862 9.09694 178.513 9.16201 179.137 9.26387C179.762 9.36574 180.392 9.65434 181.028 10.1297C181.67 10.5994 181.991 11.3181 181.991 12.2858ZM179.367 12.3027C179.367 11.386 179.098 10.7748 178.558 10.4692C178.024 10.158 177.32 10.0024 176.445 10.0024C176.286 10.0024 176.065 10.008 175.781 10.0193V14.6456H176.565C177.4 14.6456 178.075 14.5041 178.592 14.2211C179.109 13.9325 179.367 13.2931 179.367 12.3027Z" fill="#1F316A"/>
<path d="M194.351 20.7318H188.908V19.9509C189.368 19.9509 189.703 19.9197 189.913 19.8575C190.123 19.7896 190.228 19.634 190.228 19.3906C190.228 19.2208 190.194 19.0482 190.126 18.8728L189.581 17.5147H185.833L185.552 18.2616C185.393 18.6804 185.313 18.9832 185.313 19.1699C185.313 19.5095 185.444 19.7245 185.705 19.815C185.972 19.9056 186.281 19.9509 186.634 19.9509V20.7318H182.655V19.9509C182.973 19.9509 183.243 19.8914 183.465 19.7726C183.686 19.6538 183.896 19.4302 184.095 19.102C184.299 18.7681 184.518 18.2984 184.751 17.6929L188.082 9.00073H188.891L192.409 17.9646C192.665 18.5984 192.852 19.0284 192.971 19.2548C193.091 19.4755 193.255 19.6481 193.465 19.7726C193.675 19.8914 193.971 19.9509 194.351 19.9509V20.7318ZM189.274 16.6828L187.681 12.6677L186.165 16.6828H189.274Z" fill="#1F316A"/>
<path d="M210.681 20.613H209.88C209.761 20.1263 209.565 19.6905 209.293 19.3057C208.861 19.7528 208.367 20.1376 207.81 20.4602C207.254 20.7827 206.501 20.944 205.553 20.944C204.514 20.944 203.548 20.6922 202.657 20.1885C201.771 19.6849 201.064 18.9832 200.536 18.0834C200.008 17.178 199.743 16.1593 199.743 15.0275C199.743 14.224 199.885 13.4572 200.169 12.7272C200.459 11.9972 200.868 11.3549 201.396 10.8003C201.93 10.2457 202.563 9.80997 203.296 9.49306C204.034 9.17616 204.84 9.01771 205.715 9.01771C207.157 9.01771 208.35 9.4874 209.293 10.4268C209.418 10.1835 209.54 9.82977 209.659 9.36574H210.426L210.562 13.6015H209.744C209.596 12.8828 209.33 12.2433 208.943 11.6831C208.557 11.1228 208.097 10.6956 207.563 10.4013C207.035 10.1014 206.482 9.95144 205.902 9.95144C205.255 9.95144 204.673 10.1297 204.156 10.4862C203.639 10.8371 203.233 11.3747 202.938 12.099C202.648 12.8234 202.503 13.726 202.503 14.8068C202.503 15.8594 202.626 16.7366 202.87 17.4383C203.114 18.1343 203.415 18.6606 203.773 19.0171C204.136 19.3736 204.5 19.617 204.863 19.7471C205.227 19.8716 205.567 19.9339 205.885 19.9339C206.584 19.9339 207.211 19.7471 207.768 19.3736C208.33 19.0001 208.79 18.5305 209.148 17.9646C209.506 17.393 209.744 16.8271 209.863 16.2669H210.681V20.613Z" fill="#1F316A"/>
<path d="M225.708 20.7318H220.026V19.9509C220.492 19.9509 220.844 19.8999 221.082 19.7981C221.321 19.6962 221.474 19.5491 221.542 19.3567C221.61 19.1643 221.644 18.9096 221.644 18.5927V15.1379H216.286V18.5927C216.286 19.0681 216.386 19.4133 216.584 19.6283C216.783 19.8433 217.238 19.9509 217.947 19.9509V20.7318H212.223V19.9509C212.683 19.9509 213.032 19.8999 213.271 19.7981C213.515 19.6962 213.671 19.5519 213.739 19.3651C213.813 19.1727 213.85 18.9153 213.85 18.5927V11.3605C213.85 11.038 213.816 10.7861 213.748 10.6051C213.68 10.4183 213.529 10.2712 213.296 10.1637C213.064 10.0561 212.706 10.0024 212.223 10.0024V9.22143H217.947V10.0024C217.243 10.0024 216.789 10.1071 216.584 10.3164C216.386 10.5258 216.286 10.8739 216.286 11.3605V14.1957H221.644V11.3605C221.644 11.038 221.613 10.7861 221.551 10.6051C221.488 10.4183 221.341 10.2712 221.108 10.1637C220.875 10.0561 220.514 10.0024 220.026 10.0024V9.22143H225.708V10.0024C225.225 10.0024 224.867 10.0561 224.634 10.1637C224.402 10.2712 224.251 10.4183 224.183 10.6051C224.12 10.7861 224.089 11.038 224.089 11.3605V18.5927C224.089 18.9039 224.118 19.1529 224.174 19.3397C224.237 19.5208 224.387 19.6679 224.626 19.7811C224.864 19.8943 225.225 19.9509 225.708 19.9509V20.7318Z" fill="#1F316A"/>
<path d="M238 20.7318H232.557V19.9509C233.017 19.9509 233.352 19.9197 233.562 19.8575C233.772 19.7896 233.877 19.634 233.877 19.3906C233.877 19.2208 233.843 19.0482 233.775 18.8728L233.23 17.5147H229.481L229.2 18.2616C229.041 18.6804 228.962 18.9832 228.962 19.1699C228.962 19.5095 229.092 19.7245 229.354 19.815C229.621 19.9056 229.93 19.9509 230.282 19.9509V20.7318H226.304V19.9509C226.622 19.9509 226.892 19.8914 227.113 19.7726C227.335 19.6538 227.545 19.4302 227.744 19.102C227.948 18.7681 228.167 18.2984 228.4 17.6929L231.73 9.00073H232.54L236.058 17.9646C236.313 18.5984 236.501 19.0284 236.62 19.2548C236.739 19.4755 236.904 19.6481 237.114 19.7726C237.324 19.8914 237.619 19.9509 238 19.9509V20.7318ZM232.923 16.6828L231.33 12.6677L229.814 16.6828H232.923Z" fill="#1F316A"/>
<path d="M56.7824 32.0809C56.7824 32.4743 56.6837 32.7969 56.4865 33.0488C56.2892 33.2973 56.0392 33.4871 55.7365 33.6182C55.4337 33.7459 55.1378 33.8305 54.8487 33.8719C54.5596 33.9133 54.2806 33.934 54.0119 33.934H50.5425V33.4578C50.8384 33.4578 51.0561 33.4267 51.1956 33.3646C51.3384 33.3025 51.4303 33.2145 51.4711 33.1006C51.5153 32.9867 51.5374 32.8297 51.5374 32.6295V28.1986C51.5374 27.888 51.4745 27.6723 51.3486 27.5515C51.2228 27.4307 50.9541 27.3703 50.5425 27.3703V26.8838C51.0357 26.8734 51.5051 26.8631 51.9507 26.8527C52.3963 26.8424 52.7619 26.8355 53.0476 26.832C53.3367 26.8251 53.5391 26.8217 53.6548 26.8217H53.8436C54.1973 26.8217 54.5664 26.8596 54.9507 26.9355C55.3385 27.008 55.6905 27.1754 56.0069 27.4376C56.3266 27.6999 56.4865 28.0778 56.4865 28.5713C56.4865 28.9405 56.3572 29.258 56.0987 29.5237C55.8402 29.7894 55.4167 30.0086 54.8283 30.1811C55.2296 30.2536 55.5783 30.3761 55.8742 30.5486C56.1735 30.7177 56.3997 30.9334 56.5528 31.1957C56.7059 31.458 56.7824 31.753 56.7824 32.0809ZM55.0273 28.6127C55.0273 28.3711 54.9694 28.1606 54.8538 27.9812C54.7415 27.7983 54.5732 27.6568 54.3487 27.5567C54.1276 27.4532 53.8555 27.4014 53.5323 27.4014H52.9966V29.9171H53.415C53.9626 29.9171 54.3674 29.7998 54.6293 29.5651C54.8946 29.3305 55.0273 29.013 55.0273 28.6127ZM55.216 31.9929C55.216 31.5166 55.0936 31.1474 54.8487 30.8851C54.6072 30.6194 54.2653 30.4865 53.8232 30.4865H52.9966V32.174V32.3138C52.9966 32.5692 53.0119 32.7693 53.0425 32.9142C53.0731 33.0557 53.1497 33.1662 53.2721 33.2455C53.3946 33.3215 53.5885 33.3594 53.8538 33.3594C54.2075 33.3594 54.5221 33.2507 54.7977 33.0333C55.0766 32.8159 55.216 32.4691 55.216 31.9929Z" fill="#1F316A"/>
<path d="M62.8131 32.8418C62.8131 33.104 62.7604 33.3284 62.6549 33.5147C62.5495 33.6976 62.4066 33.8339 62.2264 33.9236C62.0495 34.0099 61.8488 34.0531 61.6243 34.0531C61.3386 34.0531 61.1005 33.9858 60.91 33.8512C60.7195 33.7131 60.6056 33.5492 60.5682 33.3594C60.0001 33.8218 59.4287 34.0531 58.8539 34.0531C58.4865 34.0531 58.1855 33.9633 57.9508 33.7839C57.7161 33.601 57.5987 33.3611 57.5987 33.0644C57.5987 32.8193 57.6617 32.5985 57.7875 32.4018C57.9134 32.2016 58.097 32.0239 58.3385 31.8686C58.5834 31.7133 58.8743 31.577 59.211 31.4597C59.5477 31.3389 59.9678 31.2129 60.4712 31.0818V30.7868C60.4712 30.5417 60.4134 30.3502 60.2978 30.2122C60.1855 30.0707 59.9763 29.9999 59.6702 29.9999C59.4083 29.9999 59.2195 30.0552 59.1039 30.1656C58.9882 30.276 58.9117 30.4434 58.8743 30.6677C58.8471 30.8264 58.796 30.9576 58.7212 31.0611C58.6498 31.1612 58.4984 31.2112 58.2671 31.2112C58.1242 31.2112 57.9984 31.1698 57.8896 31.087C57.7807 31.0042 57.7263 30.8817 57.7263 30.7195C57.7263 30.3985 57.8981 30.119 58.2416 29.8809C58.5851 29.6428 59.1124 29.5237 59.8233 29.5237C60.5716 29.5237 61.0852 29.6514 61.3641 29.9068C61.6464 30.1621 61.7876 30.5038 61.7876 30.9317V32.5674C61.7876 32.7745 61.7927 32.9263 61.8029 33.023C61.8131 33.1196 61.8403 33.1938 61.8845 33.2455C61.9321 33.2939 62.0053 33.318 62.1039 33.318C62.1923 33.318 62.2689 33.2714 62.3335 33.1782C62.4015 33.0851 62.4355 32.9729 62.4355 32.8418H62.8131ZM60.4712 32.8832V31.5994C59.825 31.8065 59.4134 32.0101 59.2365 32.2103C59.063 32.407 58.9763 32.6002 58.9763 32.79C58.9763 32.9488 59.0239 33.0764 59.1192 33.1731C59.2144 33.2697 59.3488 33.318 59.5222 33.318C59.7093 33.318 59.8743 33.2783 60.0171 33.199C60.16 33.1196 60.3114 33.0143 60.4712 32.8832Z" fill="#1F316A"/>
<path d="M66.0836 29.6945H68.5479V30.1708C68.4152 30.1708 68.3115 30.1828 68.2367 30.207C68.1618 30.2277 68.104 30.2657 68.0632 30.3209C68.0258 30.3761 68.002 30.4503 67.9918 30.5435C67.9816 30.6332 67.9765 30.7453 67.9765 30.8799V32.6503C67.9765 32.7848 67.9833 32.8987 67.9969 32.9919C68.0139 33.0816 68.0445 33.1541 68.0887 33.2093C68.1363 33.2645 68.1993 33.3042 68.2775 33.3284C68.3591 33.3491 68.4663 33.3594 68.5989 33.3594H68.9051C69.0377 33.3594 69.1432 33.3491 69.2214 33.3284C69.303 33.3042 69.3659 33.2645 69.4102 33.2093C69.4578 33.1541 69.4884 33.0816 69.502 32.9919C69.519 32.8987 69.5275 32.7848 69.5275 32.6503V30.8799C69.5275 30.7453 69.5224 30.6332 69.5122 30.5435C69.502 30.4503 69.4765 30.3761 69.4357 30.3209C69.3983 30.2657 69.3421 30.2277 69.2673 30.207C69.1925 30.1828 69.0887 30.1708 68.9561 30.1708V29.6945H71.599V30.1708C71.4289 30.1777 71.2946 30.1897 71.1959 30.207C71.0973 30.2243 71.0224 30.2588 70.9714 30.3105C70.9204 30.3623 70.8864 30.4365 70.8694 30.5331C70.8558 30.6297 70.849 30.7609 70.849 30.9265V32.702C70.849 32.8677 70.8558 32.9988 70.8694 33.0954C70.8864 33.192 70.9204 33.2662 70.9714 33.318C71.0224 33.3698 71.0973 33.406 71.1959 33.4267C71.2946 33.444 71.4289 33.4543 71.599 33.4578V33.934H63.0325V33.4578C63.1992 33.4543 63.3318 33.444 63.4305 33.4267C63.5325 33.406 63.609 33.3698 63.6601 33.318C63.7111 33.2662 63.7434 33.192 63.757 33.0954C63.774 32.9988 63.7825 32.8677 63.7825 32.702V30.9265C63.7825 30.7609 63.774 30.6297 63.757 30.5331C63.7434 30.4365 63.7111 30.3623 63.6601 30.3105C63.609 30.2588 63.5325 30.2243 63.4305 30.207C63.3318 30.1897 63.1992 30.1777 63.0325 30.1708V29.6945H65.6754V30.1708C65.5427 30.1708 65.439 30.1828 65.3642 30.207C65.2893 30.2277 65.2315 30.2657 65.1907 30.3209C65.1533 30.3761 65.1295 30.4503 65.1193 30.5435C65.1091 30.6332 65.104 30.7453 65.104 30.8799V32.6503C65.104 32.7848 65.1108 32.8987 65.1244 32.9919C65.1414 33.0816 65.172 33.1541 65.2162 33.2093C65.2638 33.2645 65.3268 33.3042 65.405 33.3284C65.4866 33.3491 65.5938 33.3594 65.7264 33.3594H66.0326C66.1652 33.3594 66.2707 33.3491 66.3489 33.3284C66.4305 33.3042 66.4934 33.2645 66.5377 33.2093C66.5853 33.1541 66.6159 33.0816 66.6295 32.9919C66.6465 32.8987 66.655 32.7848 66.655 32.6503V30.8799C66.655 30.7453 66.6499 30.6332 66.6397 30.5435C66.6295 30.4503 66.604 30.3761 66.5632 30.3209C66.5258 30.2657 66.4696 30.2277 66.3948 30.207C66.32 30.1828 66.2162 30.1708 66.0836 30.1708V29.6945Z" fill="#1F316A"/>
<path d="M79.3032 32.8832C78.8916 33.6976 78.23 34.1048 77.3185 34.1048C76.8933 34.1048 76.4902 34.0168 76.1093 33.8408C75.7317 33.6648 75.4273 33.4095 75.196 33.0747C74.9681 32.74 74.8541 32.3483 74.8541 31.8997C74.8541 31.5891 74.9154 31.2923 75.0378 31.0093C75.1637 30.7264 75.3439 30.471 75.5786 30.2432C75.8133 30.0155 76.0906 29.8395 76.4103 29.7152C76.7334 29.5876 77.0787 29.5237 77.446 29.5237C77.9154 29.5237 78.3287 29.6186 78.6858 29.8084C79.043 29.9948 79.2216 30.2536 79.2216 30.5849C79.2216 30.7367 79.1654 30.8661 79.0532 30.9731C78.9409 31.0801 78.8117 31.1336 78.6654 31.1336C78.526 31.1336 78.4188 31.1008 78.344 31.0352C78.2692 30.9697 78.2198 30.9024 78.196 30.8333C78.1722 30.7643 78.1382 30.6418 78.094 30.4658C78.0498 30.2967 77.9766 30.1777 77.8746 30.1087C77.7726 30.0362 77.6297 29.9999 77.446 29.9999C77.1365 29.9999 76.861 30.1173 76.6195 30.3519C76.3814 30.5832 76.2623 31.018 76.2623 31.6564C76.2623 31.998 76.3099 32.3121 76.4052 32.5985C76.5038 32.8849 76.6569 33.1127 76.8644 33.2818C77.0753 33.4474 77.3321 33.5302 77.6348 33.5302C77.9715 33.5302 78.2283 33.4457 78.4052 33.2766C78.5821 33.1075 78.7386 32.9091 78.8746 32.6813L79.3032 32.8832Z" fill="#1F316A"/>
<path d="M85.0125 31.8013C85.0125 32.2707 84.9002 32.6796 84.6757 33.0281C84.4512 33.3767 84.1468 33.6441 83.7625 33.8305C83.3815 34.0134 82.9631 34.1048 82.5073 34.1048C82.0788 34.1048 81.6723 34.0203 81.2879 33.8512C80.907 33.6821 80.594 33.425 80.3491 33.0799C80.1076 32.7348 79.9869 32.3121 79.9869 31.8117C79.9869 31.0628 80.2386 30.4952 80.742 30.1087C81.2454 29.7187 81.8441 29.5237 82.5379 29.5237C83.055 29.5237 83.5006 29.6272 83.8747 29.8343C84.2489 30.0414 84.5312 30.3192 84.7217 30.6677C84.9155 31.0162 85.0125 31.3941 85.0125 31.8013ZM83.6043 31.7703C83.6043 31.1836 83.5278 30.7419 83.3747 30.4451C83.2216 30.1483 82.924 29.9999 82.4818 29.9999C82.1995 29.9999 81.9784 30.0655 81.8185 30.1966C81.6621 30.3243 81.5515 30.5245 81.4869 30.7971C81.4257 31.0663 81.3951 31.4166 81.3951 31.8479C81.3951 32.3794 81.4648 32.809 81.6043 33.1368C81.7437 33.4647 82.0481 33.6286 82.5175 33.6286C82.8271 33.6286 83.0618 33.5389 83.2216 33.3594C83.3849 33.1765 83.4886 32.9522 83.5329 32.6865C83.5805 32.4173 83.6043 32.1119 83.6043 31.7703Z" fill="#1F316A"/>
<path d="M91.5432 30.1708C91.3731 30.1777 91.2388 30.1897 91.1401 30.207C91.0415 30.2243 90.9667 30.2588 90.9156 30.3105C90.8646 30.3623 90.8306 30.4365 90.8136 30.5331C90.8 30.6297 90.7932 30.7609 90.7932 30.9265V32.702C90.7932 32.8677 90.8 32.9988 90.8136 33.0954C90.8306 33.192 90.8646 33.2662 90.9156 33.318C90.9667 33.3698 91.0415 33.406 91.1401 33.4267C91.2388 33.444 91.3731 33.4543 91.5432 33.4578V33.934H88.8493V33.4578C88.9819 33.4578 89.0874 33.4474 89.1656 33.4267C89.2473 33.4026 89.3102 33.3629 89.3544 33.3077C89.402 33.2524 89.4326 33.18 89.4462 33.0902C89.4632 32.9971 89.4717 32.8832 89.4717 32.7486V32.0809H87.737V32.7486C87.737 32.8832 87.7438 32.9971 87.7574 33.0902C87.7744 33.18 87.805 33.2524 87.8493 33.3077C87.8969 33.3629 87.9598 33.4026 88.038 33.4267C88.1197 33.4474 88.2268 33.4578 88.3595 33.4578V33.934H85.6656V33.4578C85.8322 33.4543 85.9649 33.444 86.0635 33.4267C86.1656 33.406 86.2421 33.3698 86.2931 33.318C86.3441 33.2662 86.3765 33.192 86.3901 33.0954C86.4071 32.9988 86.4156 32.8677 86.4156 32.702V30.9265C86.4156 30.7609 86.4071 30.6297 86.3901 30.5331C86.3765 30.4365 86.3441 30.3623 86.2931 30.3105C86.2421 30.2588 86.1656 30.2243 86.0635 30.207C85.9649 30.1897 85.8322 30.1777 85.6656 30.1708V29.6945H88.3595V30.1708C88.2268 30.1708 88.1197 30.1828 88.038 30.207C87.9598 30.2277 87.8969 30.2657 87.8493 30.3209C87.805 30.3761 87.7744 30.4503 87.7574 30.5435C87.7438 30.6332 87.737 30.7453 87.737 30.8799V31.5063H89.4717V30.8799C89.4717 30.7453 89.4632 30.6332 89.4462 30.5435C89.4326 30.4503 89.402 30.3761 89.3544 30.3209C89.3102 30.2657 89.2473 30.2277 89.1656 30.207C89.0874 30.1828 88.9819 30.1708 88.8493 30.1708V29.6945H91.5432V30.1708Z" fill="#1F316A"/>
<path d="M99.8291 31.8013C99.8291 32.1499 99.7644 32.4674 99.6352 32.7538C99.5059 33.0368 99.3291 33.2783 99.1046 33.4785C98.8801 33.6786 98.6182 33.8322 98.3188 33.9392C98.0195 34.0496 97.6998 34.1048 97.3596 34.1048C97.0467 34.1048 96.7372 34.0565 96.4311 33.9599C96.1249 33.8667 95.8511 33.72 95.6096 33.5199C95.3681 33.3163 95.1725 33.0575 95.0229 32.7434C94.8766 32.4294 94.8035 32.0515 94.8035 31.6098C94.8035 31.2475 94.8273 30.8575 94.8749 30.4399C94.9225 30.0224 95.0161 29.5824 95.1555 29.12C95.2304 28.8611 95.3103 28.6299 95.3953 28.4263C95.4804 28.2193 95.5858 28.045 95.7117 27.9035C95.8409 27.7586 96.0008 27.6481 96.1913 27.5722C96.3851 27.4963 96.6283 27.4583 96.9209 27.4583C97.0637 27.4583 97.1998 27.4618 97.329 27.4687C97.4617 27.4756 97.5909 27.4791 97.7168 27.4791C97.9005 27.4791 98.0773 27.4635 98.2474 27.4325C98.4209 27.398 98.5978 27.3255 98.778 27.2151C98.8869 27.1495 98.9787 27.0667 99.0536 26.9666C99.1318 26.8665 99.2066 26.763 99.278 26.656L99.5587 26.92C99.5212 27.0304 99.4804 27.1443 99.4362 27.2616C99.392 27.379 99.341 27.4877 99.2831 27.5878C99.1879 27.7499 99.0825 27.8811 98.9668 27.9812C98.8546 28.0778 98.7338 28.1537 98.6046 28.2089C98.4753 28.2641 98.3376 28.3021 98.1913 28.3228C98.045 28.3435 97.8937 28.359 97.7372 28.3694C97.5841 28.3763 97.426 28.3832 97.2627 28.3901C97.0994 28.397 96.9328 28.4142 96.7627 28.4419C96.5178 28.4798 96.3188 28.5609 96.1657 28.6851C96.0161 28.8094 95.8953 28.9612 95.8035 29.1407C95.7151 29.3201 95.647 29.5203 95.5994 29.7411C95.5518 29.962 95.5059 30.1897 95.4617 30.4244C95.5943 30.2519 95.7372 30.1087 95.8902 29.9948C96.0467 29.8774 96.2066 29.7843 96.3698 29.7152C96.5331 29.6462 96.6981 29.5979 96.8647 29.5703C97.0314 29.5392 97.1947 29.5237 97.3545 29.5237C97.7457 29.5237 98.0943 29.5858 98.4005 29.7101C98.7066 29.8309 98.9651 29.9948 99.176 30.2018C99.3903 30.4089 99.5519 30.6504 99.6607 30.9265C99.7729 31.2026 99.8291 31.4942 99.8291 31.8013ZM98.4209 31.7703C98.4209 31.4804 98.4039 31.225 98.3699 31.0042C98.3393 30.7833 98.2814 30.5987 98.1964 30.4503C98.1114 30.3019 97.9957 30.1897 97.8494 30.1138C97.7066 30.0379 97.5229 29.9999 97.2984 29.9999C97.0841 29.9999 96.9073 30.0362 96.7678 30.1087C96.6283 30.1811 96.5178 30.2933 96.4362 30.4451C96.3545 30.5935 96.2967 30.785 96.2627 31.0197C96.2287 31.2509 96.2117 31.527 96.2117 31.8479C96.2117 31.9756 96.2151 32.1085 96.2219 32.2465C96.2287 32.3845 96.244 32.5191 96.2678 32.6503C96.295 32.7814 96.3324 32.9073 96.38 33.0281C96.4311 33.1455 96.4974 33.249 96.579 33.3387C96.6641 33.4284 96.7678 33.4992 96.8902 33.5509C97.0127 33.6027 97.1607 33.6286 97.3341 33.6286C97.5722 33.6286 97.7627 33.5768 97.9056 33.4733C98.0484 33.3698 98.1573 33.2317 98.2321 33.0592C98.3103 32.8866 98.3614 32.6899 98.3852 32.4691C98.409 32.2448 98.4209 32.0118 98.4209 31.7703Z" fill="#1F316A"/>
<path d="M105.686 30.1708C105.54 30.1915 105.426 30.2294 105.344 30.2846C105.263 30.3399 105.188 30.4261 105.12 30.5435C105.055 30.6573 104.938 30.8903 104.768 31.2423L103.273 34.3895C102.94 35.0832 102.712 35.5438 102.589 35.7716C102.47 36.0028 102.334 36.1857 102.181 36.3203C102.028 36.4549 101.838 36.5222 101.61 36.5222C101.453 36.5222 101.317 36.4739 101.202 36.3772C101.086 36.2806 101.028 36.1581 101.028 36.0097C101.028 35.7992 101.098 35.6457 101.237 35.549C101.38 35.4559 101.564 35.3765 101.788 35.3109C102.091 35.2212 102.322 35.0573 102.482 34.8192C102.642 34.581 102.78 34.3205 102.895 34.0375L100.952 30.5642C100.86 30.3951 100.776 30.2881 100.702 30.2432C100.627 30.1949 100.523 30.1708 100.39 30.1708V29.6945H102.865V30.1708H102.707C102.472 30.1708 102.355 30.2277 102.355 30.3416C102.355 30.4106 102.402 30.5297 102.497 30.6988L103.574 32.6192L104.37 30.9783C104.482 30.7436 104.538 30.5832 104.538 30.4969C104.538 30.3934 104.487 30.314 104.385 30.2588C104.287 30.2001 104.169 30.1708 104.033 30.1708V29.6945H105.686V30.1708Z" fill="#1F316A"/>
<path d="M112.855 33.582C112.855 33.6303 112.85 33.7011 112.84 33.7942C112.833 33.8874 112.816 34.0116 112.788 34.1669C112.761 34.3222 112.72 34.5086 112.666 34.726C112.615 34.9468 112.545 35.2039 112.457 35.4973H112.13C112.062 35.2695 112.004 35.0693 111.957 34.8968C111.913 34.7277 111.875 34.581 111.845 34.4568C111.814 34.336 111.79 34.2325 111.773 34.1462C111.76 34.0634 111.749 33.9927 111.743 33.934H106.926C106.919 33.9927 106.907 34.0634 106.89 34.1462C106.873 34.2325 106.85 34.3378 106.819 34.462C106.788 34.5862 106.749 34.7329 106.702 34.902C106.657 35.0711 106.603 35.2695 106.538 35.4973H106.212C106.123 35.2039 106.054 34.9468 106.003 34.726C105.952 34.5086 105.911 34.3222 105.88 34.1669C105.853 34.0116 105.834 33.8874 105.824 33.7942C105.817 33.7011 105.814 33.6303 105.814 33.582C105.814 33.5475 105.827 33.5182 105.855 33.494C105.882 33.4698 105.923 33.4578 105.977 33.4578H106.615C106.89 33.4371 107.125 33.387 107.319 33.3077C107.513 33.2283 107.671 33.1161 107.794 32.9712C107.916 32.8228 108.004 32.6416 108.059 32.4277C108.117 32.2103 108.146 31.9532 108.146 31.6564C108.146 31.508 108.144 31.3924 108.14 31.3096C108.14 31.2267 108.137 31.1543 108.13 31.0922C108.127 31.03 108.122 30.9697 108.115 30.911C108.108 30.8523 108.098 30.773 108.084 30.6729C108.071 30.5728 108.049 30.4917 108.018 30.4296C107.991 30.364 107.947 30.314 107.885 30.2795C107.828 30.2415 107.751 30.2156 107.656 30.2018C107.561 30.1846 107.44 30.1742 107.293 30.1708V29.6945H112.635V30.1708C112.469 30.1742 112.336 30.188 112.237 30.2122C112.139 30.2329 112.062 30.2708 112.008 30.3261C111.957 30.3778 111.923 30.4486 111.906 30.5383C111.892 30.628 111.885 30.7402 111.885 30.8748V32.9608C111.885 33.1161 111.935 33.2369 112.033 33.3232C112.132 33.4095 112.314 33.4543 112.579 33.4578H112.692C112.746 33.4578 112.787 33.4698 112.814 33.494C112.841 33.5182 112.855 33.5475 112.855 33.582ZM109.258 30.4762C109.258 30.5141 109.27 30.6297 109.294 30.823C109.317 31.0128 109.329 31.2906 109.329 31.6564C109.329 31.8669 109.316 32.0601 109.288 32.2361C109.265 32.4121 109.22 32.5743 109.156 32.7227C109.095 32.8711 109.011 33.0074 108.906 33.1317C108.8 33.2524 108.669 33.3611 108.513 33.4578H109.691C109.885 33.4578 110.04 33.4491 110.156 33.4319C110.271 33.4112 110.36 33.3801 110.421 33.3387C110.482 33.2973 110.521 33.2455 110.538 33.1834C110.559 33.1213 110.569 33.0471 110.569 32.9608V30.6729C110.569 30.5038 110.527 30.3778 110.442 30.295C110.36 30.2122 110.203 30.1708 109.972 30.1708H109.804C109.606 30.1708 109.465 30.1966 109.38 30.2484C109.299 30.2967 109.258 30.3726 109.258 30.4762Z" fill="#1F316A"/>
<path d="M117.85 31.6564H114.712C114.715 31.722 114.724 31.8617 114.738 32.0757C114.755 32.2896 114.802 32.5088 114.88 32.7331C114.962 32.9574 115.1 33.1472 115.294 33.3025C115.491 33.4543 115.755 33.5302 116.084 33.5302C116.265 33.5302 116.482 33.4837 116.738 33.3905C116.993 33.2973 117.214 33.1179 117.401 32.8521L117.799 33.1265C117.397 33.7787 116.76 34.1048 115.885 34.1048C115.494 34.1048 115.137 34.0479 114.814 33.934C114.494 33.8201 114.222 33.6614 113.998 33.4578C113.773 33.2542 113.601 33.0143 113.482 32.7383C113.363 32.4622 113.304 32.1654 113.304 31.8479C113.304 31.4304 113.402 31.0439 113.6 30.6884C113.8 30.333 114.086 30.05 114.457 29.8395C114.828 29.629 115.251 29.5237 115.727 29.5237C116.193 29.5237 116.586 29.6255 116.906 29.8291C117.229 30.0327 117.467 30.2967 117.62 30.6211C117.773 30.9455 117.85 31.2906 117.85 31.6564ZM116.584 31.1802C116.584 30.3934 116.278 29.9999 115.666 29.9999C115.37 29.9999 115.142 30.1087 114.982 30.3261C114.826 30.5435 114.739 30.8282 114.722 31.1802H116.584Z" fill="#1F316A"/>
<path d="M118.518 29.6945H123.59L123.636 31.5166H123.202C123.141 31.2267 123.076 30.999 123.008 30.8333C122.943 30.6677 122.863 30.5435 122.768 30.4606C122.673 30.3744 122.556 30.3209 122.416 30.3002C122.28 30.2795 122.11 30.2691 121.906 30.2691H121.712V32.6295C121.712 32.9091 121.761 33.1179 121.86 33.2559C121.908 33.3249 121.984 33.3767 122.09 33.4112C122.199 33.4422 122.307 33.4578 122.416 33.4578V33.934H119.692V33.4578C119.801 33.4578 119.908 33.4422 120.013 33.4112C120.122 33.3767 120.2 33.3249 120.248 33.2559C120.346 33.1179 120.396 32.9091 120.396 32.6295V30.2691H120.202C119.998 30.2691 119.826 30.2795 119.687 30.3002C119.551 30.3209 119.435 30.3744 119.34 30.4606C119.244 30.5435 119.163 30.6677 119.095 30.8333C119.03 30.999 118.967 31.2267 118.906 31.5166H118.472L118.518 29.6945Z" fill="#1F316A"/>
<path d="M129.768 31.3976C129.966 31.3976 130.153 31.4148 130.33 31.4493C130.51 31.4838 130.668 31.5425 130.804 31.6253C130.94 31.7082 131.047 31.8186 131.126 31.9566C131.207 32.0912 131.248 32.2603 131.248 32.4639C131.248 32.7538 131.177 33.004 131.034 33.2145C130.891 33.4215 130.704 33.5906 130.472 33.7218C130.241 33.8529 129.979 33.9495 129.687 34.0116C129.398 34.0738 129.105 34.1048 128.809 34.1048C128.506 34.1048 128.238 34.0858 128.003 34.0479C127.768 34.0134 127.569 33.9651 127.406 33.9029C127.243 33.8374 127.119 33.7615 127.034 33.6752C126.949 33.5855 126.906 33.4906 126.906 33.3905C126.906 33.2593 126.954 33.1575 127.049 33.0851C127.144 33.0126 127.287 32.9764 127.478 32.9764C127.627 32.9764 127.75 33.0057 127.845 33.0644C127.94 33.1196 128.025 33.2041 128.1 33.318C128.178 33.4353 128.28 33.5164 128.406 33.5613C128.532 33.6062 128.694 33.6286 128.891 33.6286C129.003 33.6286 129.117 33.6096 129.233 33.5716C129.352 33.5337 129.457 33.475 129.549 33.3957C129.644 33.3128 129.721 33.2076 129.779 33.0799C129.84 32.9522 129.87 32.8004 129.87 32.6244C129.87 32.3517 129.811 32.143 129.692 31.998C129.573 31.8496 129.411 31.7754 129.207 31.7754C129.139 31.7754 129.068 31.7875 128.993 31.8117C128.921 31.8324 128.852 31.8669 128.784 31.9152C128.671 31.9946 128.568 32.0343 128.472 32.0343C128.394 32.0343 128.331 32.0118 128.284 31.967C128.236 31.9187 128.212 31.8738 128.212 31.8324C128.212 31.8048 128.216 31.7806 128.222 31.7599C128.233 31.7392 128.251 31.7185 128.279 31.6978C128.309 31.6771 128.352 31.6547 128.406 31.6305C128.461 31.6029 128.534 31.5684 128.626 31.527C128.83 31.4373 129.006 31.351 129.156 31.2682C129.306 31.1853 129.428 31.1025 129.523 31.0197C129.622 30.9369 129.695 30.8541 129.743 30.7712C129.79 30.6884 129.814 30.6021 129.814 30.5124C129.814 30.4158 129.794 30.3347 129.753 30.2691C129.716 30.2001 129.663 30.1466 129.595 30.1087C129.527 30.0707 129.447 30.0431 129.355 30.0258C129.263 30.0086 129.166 29.9999 129.064 29.9999C128.799 29.9999 128.591 30.031 128.442 30.0931C128.292 30.1518 128.217 30.2415 128.217 30.3623C128.217 30.3968 128.222 30.4279 128.233 30.4555C128.246 30.4831 128.26 30.5107 128.273 30.5383C128.287 30.5659 128.299 30.5952 128.309 30.6263C128.323 30.6539 128.33 30.685 128.33 30.7195C128.33 30.7505 128.319 30.7816 128.299 30.8126C128.282 30.8437 128.251 30.873 128.207 30.9006C128.163 30.9282 128.105 30.9507 128.034 30.9679C127.962 30.9852 127.874 30.9938 127.768 30.9938C127.646 30.9938 127.546 30.9783 127.467 30.9472C127.392 30.9127 127.333 30.873 127.289 30.8282C127.245 30.7799 127.214 30.7298 127.197 30.6781C127.18 30.6263 127.171 30.5797 127.171 30.5383C127.171 30.383 127.221 30.2432 127.319 30.119C127.421 29.9948 127.563 29.8895 127.743 29.8032C127.923 29.7135 128.136 29.6462 128.381 29.6014C128.629 29.5531 128.901 29.5289 129.197 29.5289C129.527 29.5289 129.809 29.5496 130.044 29.591C130.282 29.6324 130.476 29.6928 130.626 29.7722C130.775 29.8481 130.884 29.9413 130.952 30.0517C131.024 30.1621 131.059 30.2846 131.059 30.4192C131.059 30.5504 131.022 30.6694 130.947 30.7764C130.876 30.8834 130.78 30.9783 130.661 31.0611C130.542 31.1439 130.404 31.2129 130.248 31.2682C130.092 31.3234 129.932 31.3665 129.768 31.3976Z" fill="#1F316A"/>
<path d="M138.621 33.582C138.621 33.6303 138.615 33.7011 138.605 33.7942C138.598 33.8874 138.581 34.0116 138.554 34.1669C138.527 34.3222 138.486 34.5086 138.432 34.726C138.381 34.9468 138.311 35.2039 138.223 35.4973H137.896C137.828 35.2695 137.77 35.0693 137.723 34.8968C137.678 34.7277 137.641 34.581 137.61 34.4568C137.58 34.336 137.556 34.2325 137.539 34.1462C137.525 34.0634 137.515 33.9927 137.508 33.934H132.692C132.685 33.9927 132.673 34.0634 132.656 34.1462C132.639 34.2325 132.615 34.3378 132.585 34.462C132.554 34.5862 132.515 34.7329 132.467 34.902C132.423 35.0711 132.369 35.2695 132.304 35.4973H131.978C131.889 35.2039 131.819 34.9468 131.768 34.726C131.717 34.5086 131.677 34.3222 131.646 34.1669C131.619 34.0116 131.6 33.8874 131.59 33.7942C131.583 33.7011 131.58 33.6303 131.58 33.582C131.58 33.5475 131.593 33.5182 131.62 33.494C131.648 33.4698 131.688 33.4578 131.743 33.4578H132.381C132.656 33.4371 132.891 33.387 133.085 33.3077C133.279 33.2283 133.437 33.1161 133.559 32.9712C133.682 32.8228 133.77 32.6416 133.825 32.4277C133.882 32.2103 133.911 31.9532 133.911 31.6564C133.911 31.508 133.91 31.3924 133.906 31.3096C133.906 31.2267 133.903 31.1543 133.896 31.0922C133.893 31.03 133.888 30.9697 133.881 30.911C133.874 30.8523 133.864 30.773 133.85 30.6729C133.836 30.5728 133.814 30.4917 133.784 30.4296C133.757 30.364 133.712 30.314 133.651 30.2795C133.593 30.2415 133.517 30.2156 133.422 30.2018C133.326 30.1846 133.206 30.1742 133.059 30.1708V29.6945H138.401V30.1708C138.235 30.1742 138.102 30.188 138.003 30.2122C137.905 30.2329 137.828 30.2708 137.774 30.3261C137.723 30.3778 137.689 30.4486 137.672 30.5383C137.658 30.628 137.651 30.7402 137.651 30.8748V32.9608C137.651 33.1161 137.701 33.2369 137.799 33.3232C137.898 33.4095 138.08 33.4543 138.345 33.4578H138.457C138.512 33.4578 138.553 33.4698 138.58 33.494C138.607 33.5182 138.621 33.5475 138.621 33.582ZM135.024 30.4762C135.024 30.5141 135.035 30.6297 135.059 30.823C135.083 31.0128 135.095 31.2906 135.095 31.6564C135.095 31.8669 135.081 32.0601 135.054 32.2361C135.03 32.4121 134.986 32.5743 134.922 32.7227C134.86 32.8711 134.777 33.0074 134.672 33.1317C134.566 33.2524 134.435 33.3611 134.279 33.4578H135.457C135.651 33.4578 135.806 33.4491 135.922 33.4319C136.037 33.4112 136.126 33.3801 136.187 33.3387C136.248 33.2973 136.287 33.2455 136.304 33.1834C136.325 33.1213 136.335 33.0471 136.335 32.9608V30.6729C136.335 30.5038 136.292 30.3778 136.207 30.295C136.126 30.2122 135.969 30.1708 135.738 30.1708H135.57C135.372 30.1708 135.231 30.1966 135.146 30.2484C135.064 30.2967 135.024 30.3726 135.024 30.4762Z" fill="#1F316A"/>
<path d="M144.105 31.8013C144.105 32.2707 143.993 32.6796 143.769 33.0281C143.544 33.3767 143.24 33.6441 142.855 33.8305C142.474 34.0134 142.056 34.1048 141.6 34.1048C141.172 34.1048 140.765 34.0203 140.381 33.8512C140 33.6821 139.687 33.425 139.442 33.0799C139.201 32.7348 139.08 32.3121 139.08 31.8117C139.08 31.0628 139.331 30.4952 139.835 30.1087C140.338 29.7187 140.937 29.5237 141.631 29.5237C142.148 29.5237 142.593 29.6272 142.968 29.8343C143.342 30.0414 143.624 30.3192 143.815 30.6677C144.008 31.0162 144.105 31.3941 144.105 31.8013ZM142.697 31.7703C142.697 31.1836 142.621 30.7419 142.468 30.4451C142.315 30.1483 142.017 29.9999 141.575 29.9999C141.292 29.9999 141.071 30.0655 140.911 30.1966C140.755 30.3243 140.644 30.5245 140.58 30.7971C140.519 31.0663 140.488 31.4166 140.488 31.8479C140.488 32.3794 140.558 32.809 140.697 33.1368C140.837 33.4647 141.141 33.6286 141.61 33.6286C141.92 33.6286 142.155 33.5389 142.315 33.3594C142.478 33.1765 142.582 32.9522 142.626 32.6865C142.673 32.4173 142.697 32.1119 142.697 31.7703Z" fill="#1F316A"/>
<path d="M150.432 31.7392C150.432 32.1637 150.333 32.5588 150.136 32.9246C149.942 33.2869 149.672 33.5751 149.325 33.7891C148.981 33.9996 148.595 34.1048 148.167 34.1048C147.629 34.1048 147.162 33.9133 146.764 33.5302V35.1867C146.764 35.3834 146.775 35.53 146.799 35.6267C146.827 35.7267 146.884 35.8009 146.973 35.8493C147.065 35.901 147.204 35.9269 147.391 35.9269H147.672V36.4031H144.707V35.9269C144.939 35.9269 145.105 35.9062 145.207 35.8648C145.309 35.8268 145.374 35.7595 145.401 35.6629C145.432 35.5663 145.447 35.4075 145.447 35.1867V31.1336C145.447 30.9334 145.432 30.7885 145.401 30.6988C145.374 30.609 145.309 30.5452 145.207 30.5072C145.109 30.4658 144.942 30.4451 144.707 30.4451V29.9689L146.692 29.5237C146.733 29.6618 146.757 29.8809 146.764 30.1811C146.988 29.9534 147.219 29.7877 147.457 29.6842C147.699 29.5772 147.976 29.5237 148.289 29.5237C148.629 29.5237 148.934 29.5858 149.202 29.7101C149.471 29.8343 149.696 30.0017 149.876 30.2122C150.056 30.4192 150.194 30.6573 150.289 30.9265C150.384 31.1922 150.432 31.4631 150.432 31.7392ZM149.024 31.6874C149.024 30.628 148.658 30.0983 147.927 30.0983C147.689 30.0983 147.469 30.169 147.269 30.3105C147.071 30.4486 146.903 30.6177 146.764 30.8178V32.8625C146.896 33.0661 147.068 33.2283 147.279 33.3491C147.493 33.4698 147.713 33.5302 147.937 33.5302C148.662 33.5302 149.024 32.916 149.024 31.6874Z" fill="#1F316A"/>
<path d="M156.31 31.8013C156.31 32.2707 156.197 32.6796 155.973 33.0281C155.748 33.3767 155.444 33.6441 155.06 33.8305C154.679 34.0134 154.26 34.1048 153.805 34.1048C153.376 34.1048 152.969 34.0203 152.585 33.8512C152.204 33.6821 151.891 33.425 151.646 33.0799C151.405 32.7348 151.284 32.3121 151.284 31.8117C151.284 31.0628 151.536 30.4952 152.039 30.1087C152.543 29.7187 153.141 29.5237 153.835 29.5237C154.352 29.5237 154.798 29.6272 155.172 29.8343C155.546 30.0414 155.828 30.3192 156.019 30.6677C156.213 31.0162 156.31 31.3941 156.31 31.8013ZM154.901 31.7703C154.901 31.1836 154.825 30.7419 154.672 30.4451C154.519 30.1483 154.221 29.9999 153.779 29.9999C153.497 29.9999 153.276 30.0655 153.116 30.1966C152.959 30.3243 152.849 30.5245 152.784 30.7971C152.723 31.0663 152.692 31.4166 152.692 31.8479C152.692 32.3794 152.762 32.809 152.901 33.1368C153.041 33.4647 153.345 33.6286 153.815 33.6286C154.124 33.6286 154.359 33.5389 154.519 33.3594C154.682 33.1765 154.786 32.9522 154.83 32.6865C154.878 32.4173 154.901 32.1119 154.901 31.7703Z" fill="#1F316A"/>
<path d="M162.55 32.7331C162.55 32.9781 162.475 33.1782 162.325 33.3335C162.179 33.4888 161.985 33.6113 161.743 33.7011C161.505 33.7873 161.235 33.8477 160.932 33.8822C160.633 33.9167 160.33 33.934 160.024 33.934H156.968V33.4578C157.172 33.4543 157.334 33.444 157.453 33.4267C157.575 33.4095 157.667 33.3836 157.728 33.3491C157.789 33.3111 157.828 33.2662 157.845 33.2145C157.862 33.1593 157.871 33.092 157.871 33.0126V30.6108C157.871 30.5279 157.859 30.4589 157.835 30.4037C157.811 30.345 157.765 30.2985 157.697 30.2639C157.633 30.2294 157.541 30.2053 157.422 30.1915C157.306 30.1777 157.155 30.1708 156.968 30.1708V29.6945C157.233 29.6911 157.485 29.6876 157.723 29.6842C157.964 29.6773 158.204 29.6721 158.442 29.6687C158.68 29.6652 158.924 29.6635 159.172 29.6635C159.42 29.66 159.687 29.6583 159.973 29.6583C160.085 29.6583 160.22 29.6618 160.376 29.6687C160.536 29.6721 160.701 29.6859 160.871 29.7101C161.041 29.7308 161.209 29.7636 161.376 29.8084C161.546 29.8533 161.698 29.9154 161.83 29.9948C161.963 30.0707 162.07 30.1673 162.152 30.2846C162.237 30.402 162.279 30.5435 162.279 30.7091C162.279 30.8402 162.257 30.961 162.213 31.0715C162.172 31.1819 162.102 31.2785 162.004 31.3613C161.908 31.4442 161.781 31.5132 161.621 31.5684C161.461 31.6236 161.264 31.6598 161.029 31.6771C161.335 31.7047 161.587 31.7478 161.784 31.8065C161.982 31.8652 162.136 31.9394 162.249 32.0291C162.364 32.1188 162.442 32.2223 162.483 32.3397C162.527 32.457 162.55 32.5881 162.55 32.7331ZM160.902 30.8075C160.902 30.6211 160.815 30.4693 160.641 30.3519C160.471 30.2312 160.206 30.1708 159.845 30.1708H159.203V31.4752H159.769C160.167 31.4752 160.454 31.4166 160.631 31.2992C160.811 31.1819 160.902 31.018 160.902 30.8075ZM161.05 32.7072C161.05 32.4553 160.956 32.2551 160.769 32.1067C160.582 31.9583 160.315 31.8841 159.968 31.8841H159.203V32.8987C159.203 32.9988 159.214 33.0851 159.238 33.1575C159.262 33.2266 159.303 33.2835 159.361 33.3284C159.422 33.3732 159.504 33.406 159.606 33.4267C159.708 33.4474 159.839 33.4578 159.999 33.4578C160.104 33.4578 160.218 33.4457 160.34 33.4215C160.463 33.3974 160.577 33.356 160.682 33.2973C160.788 33.2386 160.874 33.161 160.942 33.0644C161.014 32.9677 161.05 32.8487 161.05 32.7072Z" fill="#1F316A"/>
<path d="M163.106 29.6945H165.8V30.1708C165.667 30.1708 165.56 30.1828 165.478 30.207C165.4 30.2277 165.337 30.2657 165.289 30.3209C165.245 30.3761 165.215 30.4503 165.198 30.5435C165.184 30.6332 165.177 30.7453 165.177 30.8799V31.4752H165.754C166.223 31.4752 166.631 31.4976 166.978 31.5425C167.329 31.5839 167.618 31.6547 167.846 31.7547C168.077 31.8514 168.249 31.9808 168.361 32.143C168.477 32.3017 168.534 32.4984 168.534 32.7331C168.534 32.9781 168.46 33.1782 168.31 33.3335C168.164 33.4888 167.97 33.6113 167.728 33.7011C167.49 33.7873 167.22 33.8477 166.917 33.8822C166.618 33.9167 166.315 33.934 166.009 33.934H163.106V33.4578C163.272 33.4543 163.405 33.444 163.504 33.4267C163.606 33.406 163.682 33.3698 163.733 33.318C163.784 33.2662 163.817 33.192 163.83 33.0954C163.847 32.9988 163.856 32.8677 163.856 32.702V30.9265C163.856 30.7609 163.847 30.6297 163.83 30.5331C163.817 30.4365 163.784 30.3623 163.733 30.3105C163.682 30.2588 163.606 30.2243 163.504 30.207C163.405 30.1897 163.272 30.1777 163.106 30.1708V29.6945ZM167.034 32.7072C167.034 32.4553 166.941 32.2551 166.754 32.1067C166.567 31.9583 166.3 31.8841 165.953 31.8841H165.177V32.8987C165.177 32.9988 165.189 33.0851 165.213 33.1575C165.237 33.2266 165.279 33.2835 165.34 33.3284C165.402 33.3732 165.483 33.406 165.585 33.4267C165.691 33.4474 165.823 33.4578 165.983 33.4578C166.089 33.4578 166.203 33.4457 166.325 33.4215C166.448 33.3974 166.562 33.356 166.667 33.2973C166.772 33.2386 166.859 33.161 166.927 33.0644C166.999 32.9677 167.034 32.8487 167.034 32.7072ZM171.892 33.934H169.121V33.4578H169.269C169.466 33.4578 169.609 33.4302 169.698 33.3749C169.79 33.3197 169.846 33.2421 169.866 33.142C169.886 33.0419 169.897 32.8953 169.897 32.702V31.1646C169.897 30.9507 169.883 30.7988 169.856 30.7091C169.832 30.6194 169.766 30.5538 169.657 30.5124C169.551 30.471 169.373 30.4486 169.121 30.4451V29.9689L171.213 29.5237V32.702C171.213 32.9919 171.249 33.1903 171.32 33.2973C171.392 33.4043 171.582 33.4578 171.892 33.4578V33.934Z" fill="#1F316A"/>
<path d="M179.58 33.934H176.417V33.4578C176.625 33.4543 176.788 33.4371 176.907 33.406C177.026 33.3749 177.116 33.3266 177.177 33.2611C177.239 33.1955 177.278 33.111 177.295 33.0074C177.312 32.9039 177.322 32.7779 177.325 32.6295V31.0093L175.713 33.934H175.427L173.779 31.0093V32.407C173.779 32.5174 173.781 32.614 173.784 32.6968C173.788 32.7797 173.793 32.8521 173.8 32.9142C173.81 32.9764 173.824 33.0316 173.841 33.0799C173.858 33.1282 173.88 33.1731 173.907 33.2145C173.965 33.2973 174.055 33.3594 174.177 33.4008C174.3 33.4388 174.473 33.4578 174.698 33.4578V33.934H172.361V33.4578C172.585 33.4578 172.757 33.4371 172.876 33.3957C172.999 33.3542 173.089 33.2921 173.147 33.2093C173.174 33.1679 173.196 33.123 173.213 33.0747C173.23 33.0264 173.242 32.9712 173.249 32.9091C173.259 32.847 173.264 32.7762 173.264 32.6968C173.267 32.614 173.269 32.5174 173.269 32.407V31.2112C173.269 30.9213 173.256 30.7074 173.228 30.5693C173.215 30.5038 173.189 30.4468 173.152 30.3985C173.118 30.3468 173.067 30.3054 172.999 30.2743C172.931 30.2398 172.844 30.2139 172.739 30.1966C172.636 30.1794 172.511 30.1708 172.361 30.1708V29.6945H174.667L175.994 32.0964L177.325 29.6945H179.58V30.1708C179.193 30.1708 178.941 30.2346 178.825 30.3623C178.713 30.4865 178.657 30.6988 178.657 30.999V32.6295C178.657 32.771 178.666 32.8935 178.683 32.9971C178.703 33.0971 178.744 33.1817 178.805 33.2507C178.87 33.3163 178.963 33.3663 179.086 33.4008C179.208 33.4353 179.373 33.4543 179.58 33.4578V33.934Z" fill="#1F316A"/>
<path d="M188.514 30.1708C188.344 30.1777 188.21 30.1897 188.111 30.207C188.013 30.2243 187.938 30.2588 187.887 30.3105C187.836 30.3623 187.802 30.4365 187.785 30.5331C187.771 30.6297 187.764 30.7609 187.764 30.9265V32.702C187.764 32.8677 187.771 32.9988 187.785 33.0954C187.802 33.192 187.836 33.2662 187.887 33.318C187.938 33.3698 188.013 33.406 188.111 33.4267C188.21 33.444 188.344 33.4543 188.514 33.4578V33.934H185.82V33.4578C185.953 33.4578 186.059 33.4474 186.137 33.4267C186.218 33.4026 186.281 33.3629 186.326 33.3077C186.373 33.2524 186.404 33.18 186.417 33.0902C186.434 32.9971 186.443 32.8832 186.443 32.7486V31.439L184.708 32.8884C184.712 32.9988 184.723 33.0902 184.744 33.1627C184.768 33.2352 184.802 33.2939 184.846 33.3387C184.894 33.3801 184.956 33.4112 185.035 33.4319C185.113 33.4491 185.212 33.4578 185.331 33.4578V33.934H182.637V33.4578C182.803 33.4543 182.936 33.444 183.035 33.4267C183.137 33.406 183.213 33.3698 183.264 33.318C183.315 33.2662 183.348 33.192 183.361 33.0954C183.378 32.9988 183.387 32.8677 183.387 32.702V30.9265C183.387 30.7609 183.378 30.6297 183.361 30.5331C183.348 30.4365 183.315 30.3623 183.264 30.3105C183.213 30.2588 183.137 30.2243 183.035 30.207C182.936 30.1897 182.803 30.1777 182.637 30.1708V29.6945H185.331V30.1708C185.198 30.1708 185.091 30.1828 185.009 30.207C184.931 30.2277 184.868 30.2657 184.82 30.3209C184.776 30.3761 184.746 30.4503 184.729 30.5435C184.715 30.6332 184.708 30.7453 184.708 30.8799V32.143L186.438 30.6988C186.431 30.5987 186.416 30.5159 186.392 30.4503C186.371 30.3813 186.337 30.3261 186.29 30.2846C186.246 30.2432 186.184 30.2139 186.106 30.1966C186.031 30.1794 185.936 30.1708 185.82 30.1708V29.6945H188.514V30.1708Z" fill="#1F316A"/>
<path d="M196.213 32.8832C195.802 33.6976 195.14 34.1048 194.229 34.1048C193.804 34.1048 193.4 34.0168 193.02 33.8408C192.642 33.6648 192.338 33.4095 192.106 33.0747C191.878 32.74 191.764 32.3483 191.764 31.8997C191.764 31.5891 191.826 31.2923 191.948 31.0093C192.074 30.7264 192.254 30.471 192.489 30.2432C192.724 30.0155 193.001 29.8395 193.321 29.7152C193.644 29.5876 193.989 29.5237 194.356 29.5237C194.826 29.5237 195.239 29.6186 195.596 29.8084C195.953 29.9948 196.132 30.2536 196.132 30.5849C196.132 30.7367 196.076 30.8661 195.963 30.9731C195.851 31.0801 195.722 31.1336 195.576 31.1336C195.436 31.1336 195.329 31.1008 195.254 31.0352C195.179 30.9697 195.13 30.9024 195.106 30.8333C195.082 30.7643 195.048 30.6418 195.004 30.4658C194.96 30.2967 194.887 30.1777 194.785 30.1087C194.683 30.0362 194.54 29.9999 194.356 29.9999C194.047 29.9999 193.771 30.1173 193.53 30.3519C193.292 30.5832 193.173 31.018 193.173 31.6564C193.173 31.998 193.22 32.3121 193.315 32.5985C193.414 32.8849 193.567 33.1127 193.775 33.2818C193.986 33.4474 194.242 33.5302 194.545 33.5302C194.882 33.5302 195.139 33.4457 195.315 33.2766C195.492 33.1075 195.649 32.9091 195.785 32.6813L196.213 32.8832Z" fill="#1F316A"/>
<path d="M200.336 33.4578C200.469 33.4578 200.574 33.4474 200.652 33.4267C200.734 33.4026 200.797 33.3629 200.841 33.3077C200.889 33.2524 200.919 33.18 200.933 33.0902C200.95 32.9971 200.958 32.8832 200.958 32.7486V30.6729C200.958 30.5038 200.918 30.3778 200.836 30.295C200.754 30.2122 200.598 30.1708 200.367 30.1708H200.198C200.001 30.1708 199.86 30.1966 199.775 30.2484C199.693 30.2967 199.652 30.3726 199.652 30.4762C199.652 30.5141 199.664 30.6297 199.688 30.823C199.712 31.0128 199.724 31.2906 199.724 31.6564C199.724 31.9635 199.693 32.262 199.632 32.5519C199.574 32.8383 199.475 33.0937 199.336 33.318C199.2 33.5423 199.016 33.7235 198.785 33.8615C198.554 33.9961 198.268 34.0634 197.928 34.0634C197.492 34.0634 197.161 33.9909 196.933 33.846C196.705 33.6976 196.591 33.4888 196.591 33.2197C196.591 33.054 196.632 32.9281 196.713 32.8418C196.795 32.7521 196.911 32.7072 197.06 32.7072C197.179 32.7072 197.281 32.7383 197.367 32.8004C197.452 32.8625 197.494 32.9643 197.494 33.1058C197.494 33.1644 197.486 33.2197 197.469 33.2714C197.455 33.3197 197.448 33.3594 197.448 33.3905C197.448 33.5458 197.518 33.6234 197.657 33.6234C197.8 33.6234 197.926 33.5716 198.035 33.4681C198.147 33.3611 198.241 33.2179 198.316 33.0385C198.39 32.859 198.446 32.6503 198.484 32.4121C198.521 32.174 198.54 31.9221 198.54 31.6564C198.54 31.508 198.538 31.3924 198.535 31.3096C198.535 31.2267 198.532 31.1543 198.525 31.0922C198.521 31.03 198.516 30.9697 198.509 30.911C198.503 30.8523 198.492 30.773 198.479 30.6729C198.465 30.5728 198.443 30.4917 198.412 30.4296C198.385 30.364 198.341 30.314 198.28 30.2795C198.222 30.2415 198.145 30.2156 198.05 30.2018C197.955 30.1846 197.834 30.1742 197.688 30.1708V29.6945H203.03V30.1708C202.863 30.1742 202.731 30.188 202.632 30.2122C202.533 30.2329 202.457 30.2708 202.402 30.3261C202.351 30.3778 202.317 30.4486 202.3 30.5383C202.287 30.628 202.28 30.7402 202.28 30.8748V32.702C202.28 32.8677 202.287 32.9988 202.3 33.0954C202.317 33.192 202.351 33.2662 202.402 33.318C202.453 33.3698 202.528 33.406 202.627 33.4267C202.725 33.444 202.86 33.4543 203.03 33.4578V33.934H200.336V33.4578Z" fill="#1F316A"/>
<path d="M208.918 32.8418C208.918 33.104 208.865 33.3284 208.76 33.5147C208.654 33.6976 208.511 33.8339 208.331 33.9236C208.154 34.0099 207.953 34.0531 207.729 34.0531C207.443 34.0531 207.205 33.9858 207.015 33.8512C206.824 33.7131 206.71 33.5492 206.673 33.3594C206.105 33.8218 205.533 34.0531 204.958 34.0531C204.591 34.0531 204.29 33.9633 204.055 33.7839C203.821 33.601 203.703 33.3611 203.703 33.0644C203.703 32.8193 203.766 32.5985 203.892 32.4018C204.018 32.2016 204.202 32.0239 204.443 31.8686C204.688 31.7133 204.979 31.577 205.316 31.4597C205.652 31.3389 206.072 31.2129 206.576 31.0818V30.7868C206.576 30.5417 206.518 30.3502 206.402 30.2122C206.29 30.0707 206.081 29.9999 205.775 29.9999C205.513 29.9999 205.324 30.0552 205.209 30.1656C205.093 30.276 205.016 30.4434 204.979 30.6677C204.952 30.8264 204.901 30.9576 204.826 31.0611C204.754 31.1612 204.603 31.2112 204.372 31.2112C204.229 31.2112 204.103 31.1698 203.994 31.087C203.885 31.0042 203.831 30.8817 203.831 30.7195C203.831 30.3985 204.003 30.119 204.346 29.8809C204.69 29.6428 205.217 29.5237 205.928 29.5237C206.676 29.5237 207.19 29.6514 207.469 29.9068C207.751 30.1621 207.892 30.5038 207.892 30.9317V32.5674C207.892 32.7745 207.897 32.9263 207.908 33.023C207.918 33.1196 207.945 33.1938 207.989 33.2455C208.037 33.2939 208.11 33.318 208.209 33.318C208.297 33.318 208.374 33.2714 208.438 33.1782C208.506 33.0851 208.54 32.9729 208.54 32.8418H208.918ZM206.576 32.8832V31.5994C205.93 31.8065 205.518 32.0101 205.341 32.2103C205.168 32.407 205.081 32.6002 205.081 32.79C205.081 32.9488 205.129 33.0764 205.224 33.1731C205.319 33.2697 205.453 33.318 205.627 33.318C205.814 33.318 205.979 33.2783 206.122 33.199C206.265 33.1196 206.416 33.0143 206.576 32.8832Z" fill="#1F316A"/>
<path d="M215.959 33.582C215.959 33.6303 215.954 33.7011 215.943 33.7942C215.937 33.8874 215.92 34.0116 215.892 34.1669C215.865 34.3222 215.824 34.5086 215.77 34.726C215.719 34.9468 215.649 35.2039 215.561 35.4973H215.234C215.166 35.2695 215.108 35.0693 215.061 34.8968C215.017 34.7277 214.979 34.581 214.948 34.4568C214.918 34.336 214.894 34.2325 214.877 34.1462C214.863 34.0634 214.853 33.9927 214.846 33.934H210.03C210.023 33.9927 210.011 34.0634 209.994 34.1462C209.977 34.2325 209.953 34.3378 209.923 34.462C209.892 34.5862 209.853 34.7329 209.806 34.902C209.761 35.0711 209.707 35.2695 209.642 35.4973H209.316C209.227 35.2039 209.158 34.9468 209.107 34.726C209.056 34.5086 209.015 34.3222 208.984 34.1669C208.957 34.0116 208.938 33.8874 208.928 33.7942C208.921 33.7011 208.918 33.6303 208.918 33.582C208.918 33.5475 208.931 33.5182 208.959 33.494C208.986 33.4698 209.027 33.4578 209.081 33.4578H209.719C209.994 33.4371 210.229 33.387 210.423 33.3077C210.617 33.2283 210.775 33.1161 210.897 32.9712C211.02 32.8228 211.108 32.6416 211.163 32.4277C211.221 32.2103 211.249 31.9532 211.249 31.6564C211.249 31.508 211.248 31.3924 211.244 31.3096C211.244 31.2267 211.241 31.1543 211.234 31.0922C211.231 31.03 211.226 30.9697 211.219 30.911C211.212 30.8523 211.202 30.773 211.188 30.6729C211.175 30.5728 211.152 30.4917 211.122 30.4296C211.095 30.364 211.05 30.314 210.989 30.2795C210.931 30.2415 210.855 30.2156 210.76 30.2018C210.664 30.1846 210.544 30.1742 210.397 30.1708V29.6945H215.739V30.1708C215.573 30.1742 215.44 30.188 215.341 30.2122C215.243 30.2329 215.166 30.2708 215.112 30.3261C215.061 30.3778 215.027 30.4486 215.01 30.5383C214.996 30.628 214.989 30.7402 214.989 30.8748V32.9608C214.989 33.1161 215.039 33.2369 215.137 33.3232C215.236 33.4095 215.418 33.4543 215.683 33.4578H215.795C215.85 33.4578 215.891 33.4698 215.918 33.494C215.945 33.5182 215.959 33.5475 215.959 33.582ZM212.362 30.4762C212.362 30.5141 212.374 30.6297 212.397 30.823C212.421 31.0128 212.433 31.2906 212.433 31.6564C212.433 31.8669 212.42 32.0601 212.392 32.2361C212.368 32.4121 212.324 32.5743 212.26 32.7227C212.198 32.8711 212.115 33.0074 212.01 33.1317C211.904 33.2524 211.773 33.3611 211.617 33.4578H212.795C212.989 33.4578 213.144 33.4491 213.26 33.4319C213.375 33.4112 213.464 33.3801 213.525 33.3387C213.586 33.2973 213.625 33.2455 213.642 33.1834C213.663 33.1213 213.673 33.0471 213.673 32.9608V30.6729C213.673 30.5038 213.63 30.3778 213.545 30.295C213.464 30.2122 213.307 30.1708 213.076 30.1708H212.908C212.71 30.1708 212.569 30.1966 212.484 30.2484C212.403 30.2967 212.362 30.3726 212.362 30.4762Z" fill="#1F316A"/>
<path d="M218.28 32.7486C218.28 32.8832 218.287 32.9971 218.301 33.0902C218.318 33.18 218.348 33.2524 218.392 33.3077C218.44 33.3629 218.503 33.4026 218.581 33.4267C218.663 33.4474 218.77 33.4578 218.903 33.4578V33.934H216.209V33.4578C216.375 33.4543 216.508 33.444 216.607 33.4267C216.709 33.406 216.785 33.3698 216.836 33.318C216.887 33.2662 216.92 33.192 216.933 33.0954C216.95 32.9988 216.959 32.8677 216.959 32.702V30.9265C216.959 30.7609 216.95 30.6297 216.933 30.5331C216.92 30.4365 216.887 30.3623 216.836 30.3105C216.785 30.2588 216.709 30.2243 216.607 30.207C216.508 30.1897 216.375 30.1777 216.209 30.1708V29.6945H218.903V30.1708C218.77 30.1708 218.663 30.1828 218.581 30.207C218.503 30.2277 218.44 30.2657 218.392 30.3209C218.348 30.3761 218.318 30.4503 218.301 30.5435C218.287 30.6332 218.28 30.7453 218.28 30.8799V31.558L220.142 30.0931C220.193 30.0517 220.255 30.0051 220.326 29.9534C220.398 29.9016 220.472 29.8533 220.551 29.8084C220.629 29.7636 220.709 29.7256 220.79 29.6945C220.872 29.6635 220.95 29.648 221.025 29.648C221.154 29.648 221.25 29.6928 221.311 29.7825C221.372 29.8688 221.403 29.9689 221.403 30.0828C221.403 30.1276 221.392 30.1777 221.372 30.2329C221.355 30.2881 221.328 30.3399 221.29 30.3882C221.256 30.433 221.214 30.471 221.163 30.5021C221.112 30.5331 221.056 30.5486 220.995 30.5486C220.92 30.5486 220.848 30.5417 220.78 30.5279C220.716 30.5107 220.649 30.5021 220.581 30.5021C220.523 30.5021 220.46 30.5124 220.392 30.5331C220.328 30.5538 220.256 30.5952 220.178 30.6573L219.714 31.03C219.915 31.42 220.093 31.7513 220.25 32.0239C220.406 32.2965 220.544 32.5243 220.663 32.7072C220.785 32.8866 220.889 33.0281 220.974 33.1317C221.063 33.2352 221.136 33.3128 221.193 33.3646C221.255 33.4164 221.304 33.4491 221.341 33.4629C221.379 33.4767 221.408 33.4837 221.428 33.4837C221.466 33.4837 221.495 33.4785 221.515 33.4681L221.556 33.934C221.478 33.9754 221.394 34.0065 221.306 34.0272C221.217 34.0513 221.103 34.0634 220.964 34.0634C220.828 34.0634 220.7 34.0531 220.581 34.0323C220.466 34.0151 220.353 33.9789 220.244 33.9236C220.136 33.865 220.027 33.7856 219.918 33.6855C219.809 33.582 219.693 33.4474 219.571 33.2818C219.449 33.1127 219.316 32.9091 219.173 32.671C219.03 32.4328 218.87 32.1499 218.693 31.822L218.28 32.143V32.7486Z" fill="#1F316A"/>
<path d="M227.852 30.1708C227.682 30.1777 227.547 30.1897 227.449 30.207C227.35 30.2243 227.275 30.2588 227.224 30.3105C227.173 30.3623 227.139 30.4365 227.122 30.5331C227.109 30.6297 227.102 30.7609 227.102 30.9265V32.702C227.102 32.8677 227.109 32.9988 227.122 33.0954C227.139 33.192 227.173 33.2662 227.224 33.318C227.275 33.3698 227.35 33.406 227.449 33.4267C227.547 33.444 227.682 33.4543 227.852 33.4578V33.934H225.158V33.4578C225.29 33.4578 225.396 33.4474 225.474 33.4267C225.556 33.4026 225.619 33.3629 225.663 33.3077C225.711 33.2524 225.741 33.18 225.755 33.0902C225.772 32.9971 225.78 32.8832 225.78 32.7486V31.439L224.046 32.8884C224.049 32.9988 224.061 33.0902 224.081 33.1627C224.105 33.2352 224.139 33.2939 224.183 33.3387C224.231 33.3801 224.294 33.4112 224.372 33.4319C224.45 33.4491 224.549 33.4578 224.668 33.4578V33.934H221.974V33.4578C222.141 33.4543 222.273 33.444 222.372 33.4267C222.474 33.406 222.551 33.3698 222.602 33.318C222.653 33.2662 222.685 33.192 222.699 33.0954C222.716 32.9988 222.724 32.8677 222.724 32.702V30.9265C222.724 30.7609 222.716 30.6297 222.699 30.5331C222.685 30.4365 222.653 30.3623 222.602 30.3105C222.551 30.2588 222.474 30.2243 222.372 30.207C222.273 30.1897 222.141 30.1777 221.974 30.1708V29.6945H224.668V30.1708C224.535 30.1708 224.428 30.1828 224.347 30.207C224.268 30.2277 224.205 30.2657 224.158 30.3209C224.114 30.3761 224.083 30.4503 224.066 30.5435C224.052 30.6332 224.046 30.7453 224.046 30.8799V32.143L225.775 30.6988C225.768 30.5987 225.753 30.5159 225.729 30.4503C225.709 30.3813 225.675 30.3261 225.627 30.2846C225.583 30.2432 225.522 30.2139 225.444 30.1966C225.369 30.1794 225.273 30.1708 225.158 30.1708V29.6945H227.852V30.1708Z" fill="#1F316A"/>
<path d="M235.51 33.934H232.347V33.4578C232.554 33.4543 232.717 33.4371 232.837 33.406C232.956 33.3749 233.046 33.3266 233.107 33.2611C233.168 33.1955 233.207 33.111 233.224 33.0074C233.241 32.9039 233.252 32.7779 233.255 32.6295V31.0093L231.643 33.934H231.357L229.709 31.0093V32.407C229.709 32.5174 229.711 32.614 229.714 32.6968C229.717 32.7797 229.723 32.8521 229.729 32.9142C229.74 32.9764 229.753 33.0316 229.77 33.0799C229.787 33.1282 229.809 33.1731 229.837 33.2145C229.894 33.2973 229.984 33.3594 230.107 33.4008C230.229 33.4388 230.403 33.4578 230.627 33.4578V33.934H228.291V33.4578C228.515 33.4578 228.687 33.4371 228.806 33.3957C228.928 33.3542 229.018 33.2921 229.076 33.2093C229.103 33.1679 229.126 33.123 229.143 33.0747C229.16 33.0264 229.172 32.9712 229.178 32.9091C229.189 32.847 229.194 32.7762 229.194 32.6968C229.197 32.614 229.199 32.5174 229.199 32.407V31.2112C229.199 30.9213 229.185 30.7074 229.158 30.5693C229.144 30.5038 229.119 30.4468 229.081 30.3985C229.047 30.3468 228.996 30.3054 228.928 30.2743C228.86 30.2398 228.774 30.2139 228.668 30.1966C228.566 30.1794 228.44 30.1708 228.291 30.1708V29.6945H230.597L231.923 32.0964L233.255 29.6945H235.51V30.1708C235.122 30.1708 234.871 30.2346 234.755 30.3623C234.643 30.4865 234.587 30.6988 234.587 30.999V32.6295C234.587 32.771 234.595 32.8935 234.612 32.9971C234.632 33.0971 234.673 33.1817 234.735 33.2507C234.799 33.3163 234.893 33.3663 235.015 33.4008C235.138 33.4353 235.303 33.4543 235.51 33.4578V33.934Z" fill="#1F316A"/>
<path d="M237.877 27.5101C237.877 27.6171 237.874 27.7137 237.867 27.8C237.86 27.8863 237.847 28.0226 237.826 28.2089L237.428 31.5994H236.969L236.571 28.2089C236.537 27.9052 236.52 27.6723 236.52 27.5101C236.52 27.2478 236.588 27.0546 236.724 26.9304C236.86 26.8061 237.015 26.744 237.189 26.744C237.386 26.744 237.549 26.8078 237.678 26.9355C237.811 27.0598 237.877 27.2513 237.877 27.5101ZM238 33.2973C238 33.5251 237.922 33.7166 237.765 33.8719C237.609 34.0272 237.42 34.1048 237.199 34.1048C236.981 34.1048 236.794 34.0272 236.638 33.8719C236.481 33.7166 236.403 33.5251 236.403 33.2973C236.403 33.0695 236.479 32.8763 236.633 32.7175C236.786 32.5588 236.974 32.4794 237.199 32.4794C237.423 32.4794 237.612 32.5588 237.765 32.7175C237.922 32.8728 238 33.0661 238 33.2973Z" fill="#1F316A"/>
</svg>
