<svg width="16" height="16" viewBox="0 0 16 16" fill="none" xmlns="http://www.w3.org/2000/svg">
<circle cx="8" cy="8" r="8" fill="white"/>
<path fill-rule="evenodd" clip-rule="evenodd" d="M8 16C12.4183 16 16 12.4183 16 8C16 3.58172 12.4183 0 8 0C3.58172 0 0 3.58172 0 8C0 12.4183 3.58172 16 8 16ZM10.6541 10.7346C10.9938 10.8332 11.3231 10.8826 11.6419 10.8826C11.9451 10.8826 12.2325 10.8384 12.5043 10.7501C12.7761 10.667 13.0192 10.5528 13.2334 10.4073C13.4477 10.2567 13.6254 10.0853 13.7666 9.89315C13.9129 9.69578 14.0096 9.48543 14.0566 9.26209C13.9103 9.41791 13.7535 9.54516 13.5862 9.64384C13.4242 9.73733 13.2622 9.81264 13.1002 9.86977C12.9381 9.92691 12.7813 9.96586 12.6298 9.98664C12.4782 10.0074 12.3423 10.0178 12.2221 10.0178C11.8771 10.0178 11.5531 9.95547 11.2499 9.83082C10.952 9.70097 10.6881 9.52438 10.4581 9.30105C10.2334 9.07771 10.0557 8.81542 9.92499 8.51418C9.79432 8.21293 9.72899 7.88572 9.72899 7.53254C9.72899 7.25726 9.76296 6.99497 9.83091 6.74567C9.90408 6.49117 10.0086 6.27043 10.1445 6.08345C10.2804 5.89128 10.445 5.73806 10.6384 5.62379C10.837 5.50953 11.0618 5.4524 11.3127 5.4524C11.506 5.4524 11.6838 5.48616 11.8458 5.55368C12.0078 5.616 12.1463 5.7069 12.2613 5.82635C12.3763 5.94581 12.4651 6.08864 12.5279 6.25485C12.5906 6.41586 12.6219 6.59505 12.6219 6.79241C12.6219 6.93265 12.6036 7.06769 12.5671 7.19753C12.5305 7.32219 12.4756 7.43385 12.4024 7.53254C12.3345 7.62603 12.2482 7.70134 12.1437 7.75847C12.0392 7.8156 11.9189 7.84417 11.7831 7.84417C11.6001 7.84417 11.4538 7.79483 11.344 7.69614C11.2343 7.59227 11.1794 7.45463 11.1794 7.28323C11.2055 7.29362 11.2421 7.3066 11.2891 7.32219C11.3362 7.33777 11.3832 7.34556 11.4303 7.34556C11.5348 7.34556 11.6236 7.3118 11.6968 7.24428C11.77 7.17156 11.8066 7.07548 11.8066 6.95602C11.8066 6.83656 11.7674 6.73788 11.689 6.65997C11.6106 6.58206 11.506 6.54311 11.3754 6.54311C11.1924 6.54311 11.0539 6.61582 10.9599 6.76125C10.871 6.90148 10.8266 7.06249 10.8266 7.24428C10.8266 7.3949 10.8579 7.53773 10.9207 7.67277C10.9834 7.80262 11.0722 7.91688 11.1872 8.01557C11.3022 8.11425 11.4381 8.19216 11.5949 8.24929C11.7517 8.30642 11.9242 8.33499 12.1123 8.33499C12.4103 8.33499 12.6664 8.27526 12.8806 8.1558C13.0949 8.03634 13.2726 7.88053 13.4138 7.68835C13.5549 7.49618 13.6594 7.28063 13.7274 7.04172C13.7953 6.8028 13.8293 6.56388 13.8293 6.32496C13.8293 6.22628 13.8214 6.13799 13.8058 6.06008C13.7901 5.97698 13.7744 5.91725 13.7587 5.88089C13.6803 5.90686 13.6072 5.91984 13.5392 5.91984C13.4138 5.91984 13.2936 5.89387 13.1786 5.84194C13.0688 5.79 12.9303 5.7043 12.7631 5.58484C12.6951 5.53809 12.6141 5.48875 12.52 5.43681C12.4312 5.37968 12.3266 5.32774 12.2064 5.281C12.0914 5.23425 11.9608 5.1953 11.8144 5.16414C11.6681 5.13297 11.5034 5.11739 11.3205 5.11739C10.9233 5.11739 10.5679 5.20569 10.2543 5.38228C9.94067 5.55368 9.67411 5.77701 9.45459 6.05229C9.23507 6.32237 9.06782 6.62621 8.95284 6.96381C8.83785 7.30141 8.78036 7.63641 8.78036 7.96882C8.78036 8.51418 8.86921 8.97383 9.04692 9.34779C9.22462 9.71655 9.45198 10.0152 9.72899 10.2437C10.0112 10.4723 10.3196 10.6359 10.6541 10.7346ZM4.57172 5.50693C4.61876 5.41864 4.67886 5.34073 4.75204 5.27321H2.63525C2.82864 5.42902 3.00112 5.60042 3.15269 5.7874L2.84693 7.85975C2.78421 8.30642 2.71626 8.68298 2.64309 8.98941C2.57515 9.29585 2.50459 9.55554 2.43141 9.76849C2.36347 9.98144 2.29291 10.1632 2.21974 10.3138C2.14656 10.4593 2.076 10.5969 2.00806 10.7268H3.59173C3.52378 10.6385 3.46367 10.5216 3.41141 10.3762C3.35914 10.2256 3.31471 10.0671 3.27813 9.90094C3.24154 9.72954 3.21279 9.56074 3.19189 9.39454C3.17621 9.22314 3.16837 9.07252 3.16837 8.94267C3.16837 8.89073 3.17098 8.82321 3.17621 8.74011C3.18143 8.65701 3.18666 8.56871 3.19189 8.47522L3.22325 8.19475C3.2337 8.10126 3.24415 8.01556 3.25461 7.93766L3.45061 6.37171L5.06563 10.3528L6.3749 6.19252L6.90018 9.83082V9.91652C6.90541 9.94768 6.90802 9.97884 6.90802 10.01C6.90802 10.1554 6.87927 10.2905 6.82178 10.4151C6.76952 10.5346 6.69634 10.6385 6.60226 10.7268H8.55441C8.36102 10.5917 8.22252 10.4151 8.13889 10.197C8.06049 9.97365 7.99777 9.675 7.95073 9.30105L7.53522 6.20031C7.53522 6.17434 7.5326 6.13279 7.52738 6.07566V5.94322C7.52738 5.80298 7.55612 5.67314 7.61362 5.55368C7.67634 5.43422 7.78348 5.34073 7.93505 5.27321H5.79475C5.89405 5.33034 5.97768 5.39007 6.04563 5.4524C6.11357 5.50953 6.158 5.56406 6.17891 5.616L5.36355 8.17917L4.55604 6.09903C4.53513 6.0419 4.51945 5.99515 4.509 5.9588C4.50377 5.91725 4.50116 5.8679 4.50116 5.81077C4.50116 5.69651 4.52468 5.59523 4.57172 5.50693Z" fill="#1F316A"/>
</svg>
