<svg width="14" height="18" viewBox="0 0 14 18" fill="none" xmlns="http://www.w3.org/2000/svg">
<path d="M6.65424 11.0408C8.48912 11.0408 9.98132 9.48019 9.98132 7.56115C9.98132 5.64211 8.48912 4.08148 6.65424 4.08148C4.81935 4.08148 3.32715 5.64211 3.32715 7.56115C3.32715 9.48019 4.81935 11.0408 6.65424 11.0408ZM6.65424 5.82132C7.57168 5.82132 8.31778 6.60163 8.31778 7.56115C8.31778 8.52067 7.57168 9.30098 6.65424 9.30098C5.73679 9.30098 4.99069 8.52067 4.99069 7.56115C4.99069 6.60163 5.73679 5.82132 6.65424 5.82132Z" fill="#1F316A"/>
<path d="M6.17187 17.8384C6.31264 17.9435 6.48131 18 6.6543 18C6.82729 18 6.99595 17.9435 7.13673 17.8384C7.38959 17.6513 13.3326 13.1634 13.3085 7.56115C13.3085 3.72394 10.3233 0.601807 6.6543 0.601807C2.98532 0.601807 7.32278e-05 3.72394 7.32278e-05 7.5568C-0.0240483 13.1634 5.91901 17.6513 6.17187 17.8384ZM6.6543 2.34164C9.40665 2.34164 11.645 4.68259 11.645 7.5655C11.6624 11.4262 7.99512 14.8928 6.6543 16.0298C5.3143 14.8919 1.64616 11.4244 1.66363 7.56115C1.66363 4.68259 3.90194 2.34164 6.6543 2.34164Z" fill="#1F316A"/>
</svg>
