<svg width="1375" height="247" viewBox="0 0 1375 247" fill="none" xmlns="http://www.w3.org/2000/svg">
<path fill-rule="evenodd" clip-rule="evenodd" d="M123.5 247C191.707 247 247 191.707 247 123.5C247 55.2928 191.707 0 123.5 0C55.2928 0 0 55.2928 0 123.5C0 191.707 55.2928 247 123.5 247ZM164.473 165.715C169.718 167.238 174.801 168 179.723 168C184.403 168 188.841 167.318 193.036 165.955C197.232 164.673 200.984 162.909 204.292 160.664C207.6 158.338 210.343 155.692 212.522 152.726C214.781 149.679 216.274 146.432 217 142.984C214.741 145.389 212.32 147.354 209.738 148.877C207.237 150.32 204.736 151.483 202.234 152.365C199.733 153.247 197.313 153.848 194.973 154.169C192.633 154.49 190.535 154.65 188.679 154.65C183.354 154.65 178.351 153.688 173.672 151.764C169.072 149.759 164.998 147.033 161.448 143.585C157.978 140.137 155.235 136.088 153.218 131.438C151.201 126.787 150.192 121.736 150.192 116.284C150.192 112.034 150.716 107.985 151.765 104.136C152.895 100.208 154.509 96.8 156.606 93.9135C158.704 90.9468 161.246 88.5815 164.231 86.8176C167.297 85.0536 170.767 84.1716 174.64 84.1716C177.625 84.1716 180.369 84.6928 182.87 85.7351C185.371 86.6973 187.509 88.1005 189.284 89.9446C191.059 91.7887 192.431 93.9937 193.399 96.5595C194.368 99.045 194.852 101.811 194.852 104.858C194.852 107.023 194.569 109.108 194.004 111.112C193.44 113.036 192.592 114.76 191.463 116.284C190.414 117.727 189.083 118.89 187.469 119.772C185.855 120.654 183.999 121.095 181.902 121.095C179.078 121.095 176.818 120.333 175.124 118.809C173.43 117.206 172.582 115.081 172.582 112.435C172.986 112.595 173.551 112.796 174.277 113.036C175.003 113.277 175.729 113.397 176.455 113.397C178.069 113.397 179.441 112.876 180.57 111.834C181.7 110.711 182.265 109.228 182.265 107.384C182.265 105.54 181.66 104.016 180.449 102.814C179.239 101.611 177.625 101.009 175.608 101.009C172.784 101.009 170.646 102.132 169.193 104.377C167.822 106.542 167.136 109.027 167.136 111.834C167.136 114.159 167.62 116.364 168.588 118.449C169.557 120.453 170.928 122.217 172.703 123.741C174.478 125.264 176.576 126.467 178.997 127.349C181.417 128.231 184.08 128.672 186.985 128.672C191.584 128.672 195.538 127.75 198.846 125.905C202.154 124.061 204.897 121.656 207.076 118.689C209.254 115.723 210.868 112.395 211.917 108.707C212.966 105.018 213.49 101.33 213.49 97.6419C213.49 96.1185 213.369 94.7554 213.127 93.5527C212.885 92.2698 212.643 91.3477 212.401 90.7865C211.191 91.1874 210.061 91.3878 209.012 91.3878C207.076 91.3878 205.22 90.9869 203.445 90.1851C201.75 89.3833 199.612 88.0604 197.03 86.2162C195.981 85.4946 194.731 84.7329 193.278 83.9311C191.907 83.0491 190.293 82.2473 188.437 81.5257C186.662 80.8041 184.645 80.2027 182.386 79.7216C180.126 79.2405 177.585 79 174.761 79C168.629 79 163.142 80.3631 158.301 83.0892C153.46 85.7351 149.345 89.1829 145.956 93.4324C142.567 97.6018 139.985 102.292 138.21 107.504C136.435 112.716 135.547 117.887 135.547 123.019C135.547 131.438 136.919 138.534 139.662 144.307C142.406 150 145.916 154.61 150.192 158.138C154.549 161.666 159.309 164.191 164.473 165.715ZM70.5765 85.0135C71.3027 83.6505 72.2306 82.4477 73.3602 81.4054H40.6823C43.6677 83.8108 46.3304 86.4568 48.6702 89.3432L43.9501 121.335C42.9819 128.231 41.933 134.044 40.8034 138.774C39.7544 143.505 38.6652 147.514 37.5356 150.801C36.4867 154.089 35.3974 156.895 34.2678 159.22C33.1382 161.465 32.0489 163.59 31 165.595H55.4479C54.399 164.232 53.4711 162.427 52.6642 160.182C51.8573 157.857 51.1715 155.412 50.6067 152.846C50.0419 150.2 49.5981 147.594 49.2754 145.028C49.0333 142.382 48.9123 140.057 48.9123 138.053C48.9123 137.251 48.9527 136.209 49.0333 134.926C49.114 133.643 49.1947 132.28 49.2754 130.837L49.7595 126.507C49.9209 125.064 50.0823 123.741 50.2436 122.538L53.2694 98.3635L78.2014 159.822L98.4132 95.5973L106.522 151.764V153.086C106.603 153.568 106.643 154.049 106.643 154.53C106.643 156.775 106.199 158.859 105.312 160.784C104.505 162.628 103.375 164.232 101.923 165.595H132.059C129.074 163.51 126.936 160.784 125.645 157.416C124.434 153.968 123.466 149.358 122.74 143.585L116.326 95.7176C116.326 95.3167 116.285 94.6752 116.204 93.7933V91.7486C116.204 89.5838 116.648 87.5793 117.536 85.7351C118.504 83.891 120.158 82.4477 122.498 81.4054H89.4571C90.9901 82.2874 92.2811 83.2095 93.33 84.1716C94.3789 85.0536 95.0648 85.8955 95.3875 86.6973L82.8005 126.266L70.3345 94.1541C70.0117 93.2721 69.7697 92.5505 69.6083 91.9892C69.5276 91.3477 69.4873 90.586 69.4873 89.7041C69.4873 87.9401 69.8503 86.3766 70.5765 85.0135Z" fill="white"/>
<path d="M384.62 119.774H351.155V115.262C354.042 115.262 356.158 114.984 357.504 114.429C358.849 113.84 359.718 113.006 360.112 111.928C360.538 110.816 360.752 109.312 360.752 107.416V65.7313L335.554 119.774H332.552L307.01 65.7313V105.307C307.01 107.399 307.076 109.001 307.207 110.113C307.371 111.225 307.748 112.173 308.339 112.957C308.962 113.742 309.93 114.33 311.243 114.723C312.555 115.082 314.376 115.262 316.705 115.262V119.774H292V115.262C294.362 115.262 296.183 115.066 297.463 114.674C298.775 114.281 299.727 113.693 300.317 112.908C300.908 112.124 301.269 111.192 301.4 110.113C301.531 109.001 301.597 107.399 301.597 105.307V67.6439C301.597 64.8323 301.449 62.8053 301.154 61.5629C300.858 60.3205 300.038 59.3888 298.693 58.7676C297.381 58.1137 295.15 57.7868 292 57.7868V53.2751H316.41L338.556 100.207L360.752 53.2751H384.62V57.7868C380.519 57.7868 377.862 58.3916 376.648 59.6013C375.467 60.7783 374.876 62.7889 374.876 65.6333V107.416C374.876 109.214 375.073 110.669 375.467 111.78C375.86 112.892 376.763 113.758 378.173 114.38C379.617 114.968 381.766 115.262 384.62 115.262V119.774Z" fill="white"/>
<path d="M455.587 119.774H424.139V115.262C426.797 115.262 428.732 115.082 429.946 114.723C431.16 114.33 431.767 113.431 431.767 112.026C431.767 111.045 431.57 110.048 431.177 109.034L428.027 101.188H406.373L404.749 105.503C403.83 107.923 403.371 109.672 403.371 110.751C403.371 112.712 404.126 113.955 405.635 114.478C407.177 115.001 408.965 115.262 410.999 115.262V119.774H388.016V115.262C389.854 115.262 391.412 114.919 392.692 114.232C393.971 113.546 395.185 112.254 396.333 110.358C397.514 108.429 398.778 105.716 400.123 102.217L419.365 52H424.041L444.366 103.787C445.842 107.448 446.925 109.933 447.614 111.241C448.303 112.516 449.255 113.513 450.469 114.232C451.683 114.919 453.389 115.262 455.587 115.262V119.774ZM426.255 96.3817L417.052 73.1855L408.292 96.3817H426.255Z" fill="white"/>
<path d="M536.937 119.774H504.112V115.262C506.802 115.262 508.836 114.968 510.214 114.38C511.592 113.791 512.478 112.941 512.872 111.829C513.265 110.718 513.462 109.247 513.462 107.416V87.4563H482.507V107.416C482.507 110.162 483.081 112.156 484.229 113.399C485.378 114.641 488.002 115.262 492.104 115.262V119.774H459.032V115.262C461.689 115.262 463.707 114.968 465.085 114.38C466.496 113.791 467.398 112.957 467.792 111.878C468.218 110.767 468.432 109.279 468.432 107.416V65.6333C468.432 63.7697 468.235 62.3149 467.841 61.2687C467.447 60.1898 466.578 59.3397 465.233 58.7186C463.888 58.0974 461.821 57.7868 459.032 57.7868V53.2751H492.104V57.7868C488.035 57.7868 485.41 58.3916 484.229 59.6013C483.081 60.8109 482.507 62.8216 482.507 65.6333V82.0128H513.462V65.6333C513.462 63.7697 513.282 62.3149 512.921 61.2687C512.56 60.1898 511.707 59.3397 510.362 58.7186C509.017 58.0974 506.933 57.7868 504.112 57.7868V53.2751H536.937V57.7868C534.149 57.7868 532.082 58.0974 530.736 58.7186C529.391 59.3397 528.522 60.1898 528.128 61.2687C527.767 62.3149 527.587 63.7697 527.587 65.6333V107.416C527.587 109.214 527.751 110.652 528.079 111.731C528.44 112.778 529.309 113.628 530.687 114.281C532.065 114.935 534.149 115.262 536.937 115.262V119.774Z" fill="white"/>
<path d="M567.794 60.435C567.794 60.7946 567.975 61.4321 568.336 62.3475C568.729 63.2303 569.418 64.3582 570.403 65.7313L580.984 80.6887L592.844 65.339C593.271 64.7832 593.615 64.3092 593.878 63.9168C594.14 63.5245 594.337 63.1812 594.468 62.887C594.6 62.5601 594.682 62.2658 594.714 62.0043C594.747 61.7427 594.764 61.4648 594.764 61.1706C594.764 59.9609 594.321 59.0945 593.435 58.5714C592.582 58.0483 590.974 57.7868 588.612 57.7868H586.299V53.2751H613.809V57.7868C611.382 57.7868 609.265 58.1955 607.461 59.0128C606.542 59.4378 605.738 59.8955 605.049 60.3859C604.393 60.8436 603.704 61.4158 602.982 62.1023C602.293 62.7889 601.522 63.6553 600.669 64.7015C599.849 65.715 598.832 67.0064 597.618 68.5757L563.218 112.467C562.233 113.742 561.233 114.903 560.215 115.949C559.198 116.995 558.165 117.894 557.115 118.646C556.065 119.398 554.966 119.97 553.818 120.362C552.702 120.787 551.537 121 550.324 121C549.077 121 547.978 120.837 547.026 120.51C546.075 120.215 545.271 119.807 544.615 119.284C543.959 118.76 543.45 118.172 543.089 117.518C542.761 116.832 542.597 116.129 542.597 115.409C542.597 113.84 543.056 112.565 543.975 111.584C544.926 110.603 546.173 110.113 547.715 110.113C548.601 110.113 549.503 110.211 550.422 110.407C551.373 110.571 552.194 110.652 552.883 110.652C555.803 110.652 557.87 109.9 559.084 108.397L571.928 92.2132L554.654 67.3497C553.572 65.7804 552.62 64.4726 551.8 63.4264C551.013 62.3475 550.373 61.5302 549.881 60.9744C549.388 60.3859 548.847 59.8955 548.257 59.5032C547.699 59.1109 547.043 58.7839 546.288 58.5224C545.533 58.2608 544.664 58.081 543.68 57.9829C542.695 57.8522 541.547 57.7868 540.235 57.7868V53.2751H576.161V57.7868H573.602C572.65 57.7868 571.814 57.8195 571.092 57.8849C570.37 57.9176 569.763 58.032 569.271 58.2281C568.779 58.3916 568.401 58.6532 568.139 59.0128C567.909 59.3724 567.794 59.8465 567.794 60.435Z" fill="white"/>
<path d="M693.733 86.5245C693.733 89.14 693.027 91.6247 691.616 93.9787C690.238 96.3326 688.237 98.4414 685.612 100.305C683.02 102.168 679.838 103.738 676.065 105.013C672.325 106.255 668.076 107.089 663.319 107.514C663.351 108.887 663.466 110.064 663.663 111.045C663.893 111.993 664.352 112.778 665.041 113.399C665.73 113.987 666.731 114.445 668.043 114.772C669.388 115.066 671.176 115.23 673.407 115.262V119.774H639.548V115.262C641.714 115.23 643.453 115.082 644.765 114.821C646.077 114.527 647.078 114.085 647.767 113.497C648.489 112.908 648.964 112.14 649.194 111.192C649.457 110.211 649.604 108.985 649.637 107.514C644.42 107.089 639.893 106.173 636.054 104.768C632.248 103.362 629.098 101.694 626.605 99.7655C624.111 97.8038 622.258 95.6787 621.044 93.3902C619.83 91.0689 619.223 88.764 619.223 86.4755C619.223 83.9254 619.895 81.4897 621.241 79.1684C622.619 76.8145 624.604 74.7058 627.196 72.8422C629.787 70.9787 632.97 69.4094 636.743 68.1343C640.516 66.8593 644.814 66.0256 649.637 65.6333C649.637 63.9332 649.407 62.5764 648.948 61.5629C648.489 60.5494 647.816 59.7647 646.93 59.209C646.077 58.6532 645.027 58.2935 643.781 58.1301C642.534 57.9339 641.123 57.8195 639.548 57.7868V53.2751H673.407V57.7868C671.242 57.8522 669.503 58.032 668.191 58.3262C666.878 58.5878 665.861 59.0291 665.139 59.6503C664.418 60.2388 663.925 61.0235 663.663 62.0043C663.433 62.9524 663.319 64.162 663.319 65.6333C669.159 66.1237 674.031 67.1372 677.935 68.6738C681.839 70.2104 684.956 71.9922 687.286 74.0192C689.615 76.0462 691.272 78.1713 692.256 80.3945C693.241 82.6176 693.733 84.661 693.733 86.5245ZM635.168 86.4264C635.168 87.7015 635.299 89.1727 635.562 90.8401C635.857 92.4748 636.497 94.0768 637.481 95.6461C638.466 97.2154 639.909 98.6539 641.812 99.9616C643.748 101.237 646.356 102.168 649.637 102.757V70.2921C646.75 70.7825 644.371 71.5672 642.501 72.6461C640.631 73.7249 639.155 75 638.072 76.4712C636.989 77.9097 636.234 79.4954 635.808 81.2281C635.381 82.9282 635.168 84.661 635.168 86.4264ZM677.787 86.4264C677.787 84.6283 677.558 82.8792 677.098 81.1791C676.639 79.4463 675.852 77.8607 674.736 76.4222C673.621 74.951 672.128 73.6923 670.258 72.6461C668.42 71.5672 666.107 70.7825 663.319 70.2921V102.806C665.582 102.381 667.518 101.792 669.126 101.041C670.733 100.256 672.062 99.3895 673.112 98.4414C674.195 97.4606 675.048 96.4307 675.671 95.3518C676.295 94.2729 676.754 93.194 677.049 92.1151C677.377 91.0362 677.574 90.0064 677.64 89.0256C677.738 88.0448 677.787 87.1784 677.787 86.4264Z" fill="white"/>
<path d="M766.914 119.774H735.466V115.262C738.124 115.262 740.059 115.082 741.273 114.723C742.487 114.33 743.094 113.431 743.094 112.026C743.094 111.045 742.897 110.048 742.504 109.034L739.354 101.188H717.7L716.076 105.503C715.157 107.923 714.698 109.672 714.698 110.751C714.698 112.712 715.452 113.955 716.962 114.478C718.504 115.001 720.292 115.262 722.326 115.262V119.774H699.343V115.262C701.18 115.262 702.739 114.919 704.018 114.232C705.298 113.546 706.512 112.254 707.66 110.358C708.841 108.429 710.104 105.716 711.45 102.217L730.692 52H735.368L755.693 103.787C757.169 107.448 758.252 109.933 758.941 111.241C759.63 112.516 760.581 113.513 761.795 114.232C763.009 114.919 764.715 115.262 766.914 115.262V119.774ZM737.582 96.3817L728.379 73.1855L719.619 96.3817H737.582Z" fill="white"/>
<path d="M842.457 119.774H824.592C822.952 117.714 821.443 115.655 820.065 113.595C818.687 111.502 817.358 109.41 816.078 107.318C814.832 105.225 813.585 103.149 812.338 101.09C811.124 99.0299 809.845 96.9865 808.499 94.9595C807.712 93.7825 806.974 92.8671 806.285 92.2132C805.629 91.5593 804.792 91.0689 803.775 90.742C802.791 90.4151 801.527 90.2189 799.985 90.1535C798.443 90.0881 796.393 90.0554 793.834 90.0554V107.416C793.834 108.854 793.965 110.08 794.227 111.094C794.523 112.075 795.031 112.876 795.753 113.497C796.475 114.118 797.459 114.576 798.706 114.87C799.985 115.131 801.593 115.262 803.529 115.262V119.774H770.162V115.262C772.327 115.23 774.033 115.066 775.28 114.772C776.56 114.445 777.511 113.971 778.134 113.35C778.791 112.729 779.217 111.928 779.414 110.947C779.611 109.966 779.726 108.789 779.758 107.416V65.6333C779.758 64.2601 779.66 63.0832 779.463 62.1023C779.299 61.1215 778.889 60.3369 778.233 59.7484C777.577 59.1272 776.609 58.6695 775.329 58.3753C774.082 58.0483 772.36 57.8522 770.162 57.7868V53.2751H803.529V57.7868C799.428 57.7868 796.786 58.3753 795.605 59.5522C794.424 60.7292 793.834 62.7562 793.834 65.6333V83.1898C794.391 83.1898 795.048 83.059 795.802 82.7974C796.557 82.5032 797.525 81.9311 798.706 81.081C799.887 80.231 801.314 79.005 802.987 77.403C804.661 75.7683 806.711 73.6269 809.139 70.9787C810.648 69.2786 811.895 67.8237 812.879 66.6141C813.864 65.4044 814.75 64.3092 815.537 63.3284C816.357 62.3149 817.194 61.3504 818.047 60.435C818.933 59.4869 820.015 58.4407 821.295 57.2964C822.378 56.3483 823.411 55.5473 824.395 54.8934C825.38 54.2068 826.364 53.6674 827.348 53.2751C828.333 52.85 829.35 52.5558 830.4 52.3923C831.482 52.1962 832.647 52.0981 833.894 52.0981C834.55 52.0981 835.173 52.1798 835.764 52.3433C836.387 52.4741 836.929 52.7029 837.388 53.0299C837.847 53.3568 838.208 53.7655 838.471 54.2559C838.733 54.7136 838.864 55.2857 838.864 55.9723C838.864 56.9204 838.635 57.8031 838.175 58.6205C837.749 59.4378 836.863 60.0917 835.518 60.5821C834.041 61.1052 832.598 61.4975 831.187 61.7591C829.776 61.9879 828.546 62.3149 827.496 62.7399C826.905 62.9687 826.266 63.2303 825.577 63.5245C824.888 63.8188 824.166 64.1947 823.411 64.6525C822.657 65.0775 821.853 65.6169 821 66.2708C820.179 66.892 819.343 67.6439 818.49 68.5267C817.735 69.3113 816.833 70.3085 815.783 71.5181C814.733 72.7278 813.519 74.0519 812.141 75.4904C810.796 76.8962 809.32 78.3511 807.712 79.855C806.104 81.3589 804.398 82.7647 802.594 84.0725C802.955 84.0398 803.299 84.0235 803.627 84.0235C803.988 83.9908 804.333 83.9744 804.661 83.9744C806.498 83.9744 808.171 84.0888 809.68 84.3177C811.223 84.5466 812.666 84.9716 814.011 85.5928C815.389 86.1812 816.685 87.0313 817.899 88.1429C819.113 89.2217 820.344 90.6439 821.59 92.4094C823.723 95.4826 825.823 98.5885 827.89 101.727C829.957 104.866 832.155 107.972 834.484 111.045C835.009 111.731 835.6 112.353 836.256 112.908C836.912 113.431 837.585 113.873 838.274 114.232C838.996 114.559 839.701 114.821 840.39 115.017C841.112 115.181 841.801 115.262 842.457 115.262V119.774Z" fill="white"/>
<path d="M911.504 72.1557H906.829C906.402 68.0362 905.483 64.9957 904.073 63.0341C902.695 61.0725 901.202 59.8628 899.594 59.4051C897.987 58.9474 896.133 58.7186 894.033 58.7186H885.568V107.416C885.568 109.345 885.765 110.849 886.159 111.928C886.553 112.974 887.471 113.791 888.915 114.38C890.358 114.968 892.475 115.262 895.263 115.262V119.774H861.798V115.262C865.899 115.262 868.54 114.674 869.721 113.497C870.903 112.32 871.493 110.293 871.493 107.416V58.7186H864.406C861.618 58.7186 859.305 58.9474 857.467 59.4051C855.63 59.8301 854.006 61.0398 852.595 63.0341C851.217 64.9957 850.43 68.0362 850.233 72.1557H845.557V53.2751H911.504V72.1557Z" fill="white"/>
<path d="M942.509 60.435C942.509 60.7946 942.689 61.4321 943.05 62.3475C943.444 63.2303 944.133 64.3582 945.117 65.7313L955.698 80.6887L967.559 65.339C967.985 64.7832 968.33 64.3092 968.592 63.9168C968.854 63.5245 969.051 63.1812 969.183 62.887C969.314 62.5601 969.396 62.2658 969.429 62.0043C969.461 61.7427 969.478 61.4648 969.478 61.1706C969.478 59.9609 969.035 59.0945 968.149 58.5714C967.296 58.0483 965.688 57.7868 963.326 57.7868H961.013V53.2751H988.524V57.7868C986.096 57.7868 983.98 58.1955 982.175 59.0128C981.256 59.4378 980.453 59.8955 979.764 60.3859C979.107 60.8436 978.418 61.4158 977.697 62.1023C977.008 62.7889 976.237 63.6553 975.384 64.7015C974.563 65.715 973.546 67.0064 972.332 68.5757L937.932 112.467C936.948 113.742 935.947 114.903 934.93 115.949C933.913 116.995 932.879 117.894 931.829 118.646C930.779 119.398 929.68 119.97 928.532 120.362C927.416 120.787 926.252 121 925.038 121C923.791 121 922.692 120.837 921.74 120.51C920.789 120.215 919.985 119.807 919.329 119.284C918.673 118.76 918.164 118.172 917.803 117.518C917.475 116.832 917.311 116.129 917.311 115.409C917.311 113.84 917.771 112.565 918.689 111.584C919.641 110.603 920.887 110.113 922.429 110.113C923.315 110.113 924.218 110.211 925.136 110.407C926.088 110.571 926.908 110.652 927.597 110.652C930.517 110.652 932.584 109.9 933.798 108.397L946.643 92.2132L929.369 67.3497C928.286 65.7804 927.334 64.4726 926.514 63.4264C925.727 62.3475 925.087 61.5302 924.595 60.9744C924.103 60.3859 923.561 59.8955 922.971 59.5032C922.413 59.1109 921.757 58.7839 921.002 58.5224C920.248 58.2608 919.378 58.081 918.394 57.9829C917.41 57.8522 916.261 57.7868 914.949 57.7868V53.2751H950.875V57.7868H948.316C947.364 57.7868 946.528 57.8195 945.806 57.8849C945.084 57.9176 944.477 58.032 943.985 58.2281C943.493 58.3916 943.116 58.6532 942.853 59.0128C942.624 59.3724 942.509 59.8465 942.509 60.435Z" fill="white"/>
<path d="M1051.42 70.9787C1051.42 76.4385 1049.73 80.5906 1046.35 83.435C1042.97 86.2466 1038.98 88.0611 1034.39 88.8785C1029.83 89.6631 1025.02 90.0554 1019.97 90.0554H1015.54V107.416C1015.54 109.377 1015.76 110.898 1016.18 111.977C1016.61 113.055 1017.53 113.873 1018.94 114.429C1020.35 114.984 1022.5 115.262 1025.38 115.262V119.774H991.821V115.262C994.675 115.262 996.775 114.968 998.12 114.38C999.498 113.791 1000.38 112.957 1000.78 111.878C1001.2 110.8 1001.42 109.312 1001.42 107.416V65.4371C1001.42 63.5409 1001.22 62.0697 1000.83 61.0235C1000.43 59.9446 999.548 59.1109 998.17 58.5224C996.792 57.9012 994.675 57.5906 991.821 57.5906V52.9808L1010.87 52.4904C1011.85 52.4577 1012.92 52.4414 1014.07 52.4414C1015.25 52.4087 1016.18 52.3923 1016.87 52.3923C1017.56 52.3596 1018.58 52.3433 1019.92 52.3433C1021.6 52.3433 1022.84 52.3596 1023.66 52.3923C1027.57 52.5558 1031.32 52.9318 1034.93 53.5203C1038.54 54.1087 1042.18 55.7761 1045.86 58.5224C1049.57 61.236 1051.42 65.3881 1051.42 70.9787ZM1036.26 71.0768C1036.26 65.7804 1034.7 62.2495 1031.59 60.484C1028.5 58.6859 1024.43 57.7868 1019.38 57.7868C1018.46 57.7868 1017.18 57.8195 1015.54 57.8849V84.6119H1020.07C1024.89 84.6119 1028.8 83.7946 1031.78 82.1599C1034.77 80.4925 1036.26 76.7982 1036.26 71.0768Z" fill="white"/>
<path d="M1122.83 119.774H1091.38V115.262C1094.04 115.262 1095.97 115.082 1097.19 114.723C1098.4 114.33 1099.01 113.431 1099.01 112.026C1099.01 111.045 1098.81 110.048 1098.42 109.034L1095.27 101.188H1073.61L1071.99 105.503C1071.07 107.923 1070.61 109.672 1070.61 110.751C1070.61 112.712 1071.37 113.955 1072.88 114.478C1074.42 115.001 1076.21 115.262 1078.24 115.262V119.774H1055.26V115.262C1057.09 115.262 1058.65 114.919 1059.93 114.232C1061.21 113.546 1062.43 112.254 1063.57 110.358C1064.76 108.429 1066.02 105.716 1067.36 102.217L1086.61 52H1091.28L1111.61 103.787C1113.08 107.448 1114.17 109.933 1114.86 111.241C1115.54 112.516 1116.5 113.513 1117.71 114.232C1118.92 114.919 1120.63 115.262 1122.83 115.262V119.774ZM1093.5 96.3817L1084.29 73.1855L1075.53 96.3817H1093.5Z" fill="white"/>
<path d="M1217.17 119.087H1212.55C1211.86 116.276 1210.72 113.758 1209.15 111.535C1206.66 114.118 1203.8 116.341 1200.59 118.205C1197.37 120.068 1193.02 121 1187.54 121C1181.54 121 1175.96 119.545 1170.81 116.635C1165.69 113.726 1161.61 109.672 1158.56 104.473C1155.51 99.2424 1153.98 93.3575 1153.98 86.8188C1153.98 82.1763 1154.8 77.7463 1156.44 73.5288C1158.11 69.3113 1160.48 65.6006 1163.53 62.3966C1166.61 59.1926 1170.27 56.6752 1174.5 54.8443C1178.77 53.0135 1183.43 52.0981 1188.48 52.0981C1196.81 52.0981 1203.7 54.8117 1209.15 60.2388C1209.87 58.833 1210.58 56.7896 1211.27 54.1087H1215.69L1216.48 78.58H1211.76C1210.9 74.4279 1209.36 70.7335 1207.13 67.4968C1204.9 64.2601 1202.24 61.7918 1199.16 60.0917C1196.11 58.3589 1192.91 57.4925 1189.56 57.4925C1185.82 57.4925 1182.46 58.5224 1179.47 60.5821C1176.49 62.6091 1174.14 65.715 1172.44 69.8998C1170.76 74.0846 1169.93 79.2992 1169.93 85.5437C1169.93 91.6247 1170.63 96.6923 1172.04 100.746C1173.45 104.768 1175.19 107.808 1177.26 109.868C1179.36 111.928 1181.46 113.333 1183.56 114.085C1185.66 114.805 1187.63 115.164 1189.46 115.164C1193.5 115.164 1197.12 114.085 1200.34 111.928C1203.59 109.77 1206.25 107.056 1208.31 103.787C1210.38 100.485 1211.76 97.2154 1212.45 93.9787H1217.17V119.087Z" fill="white"/>
<path d="M1303.98 119.774H1271.16V115.262C1273.85 115.262 1275.88 114.968 1277.26 114.38C1278.64 113.791 1279.53 112.941 1279.92 111.829C1280.31 110.718 1280.51 109.247 1280.51 107.416V87.4563H1249.55V107.416C1249.55 110.162 1250.13 112.156 1251.28 113.399C1252.42 114.641 1255.05 115.262 1259.15 115.262V119.774H1226.08V115.262C1228.74 115.262 1230.75 114.968 1232.13 114.38C1233.54 113.791 1234.45 112.957 1234.84 111.878C1235.27 110.767 1235.48 109.279 1235.48 107.416V65.6333C1235.48 63.7697 1235.28 62.3149 1234.89 61.2687C1234.49 60.1898 1233.63 59.3397 1232.28 58.7186C1230.93 58.0974 1228.87 57.7868 1226.08 57.7868V53.2751H1259.15V57.7868C1255.08 57.7868 1252.46 58.3916 1251.28 59.6013C1250.13 60.8109 1249.55 62.8216 1249.55 65.6333V82.0128H1280.51V65.6333C1280.51 63.7697 1280.33 62.3149 1279.97 61.2687C1279.61 60.1898 1278.75 59.3397 1277.41 58.7186C1276.06 58.0974 1273.98 57.7868 1271.16 57.7868V53.2751H1303.98V57.7868C1301.2 57.7868 1299.13 58.0974 1297.78 58.7186C1296.44 59.3397 1295.57 60.1898 1295.18 61.2687C1294.81 62.3149 1294.63 63.7697 1294.63 65.6333V107.416C1294.63 109.214 1294.8 110.652 1295.13 111.731C1295.49 112.778 1296.36 113.628 1297.73 114.281C1299.11 114.935 1301.2 115.262 1303.98 115.262V119.774Z" fill="white"/>
<path d="M1375 119.774H1343.55V115.262C1346.21 115.262 1348.15 115.082 1349.36 114.723C1350.57 114.33 1351.18 113.431 1351.18 112.026C1351.18 111.045 1350.98 110.048 1350.59 109.034L1347.44 101.188H1325.79L1324.16 105.503C1323.24 107.923 1322.78 109.672 1322.78 110.751C1322.78 112.712 1323.54 113.955 1325.05 114.478C1326.59 115.001 1328.38 115.262 1330.41 115.262V119.774H1307.43V115.262C1309.27 115.262 1310.83 114.919 1312.1 114.232C1313.38 113.546 1314.6 112.254 1315.75 110.358C1316.93 108.429 1318.19 105.716 1319.54 102.217L1338.78 52H1343.45L1363.78 103.787C1365.26 107.448 1366.34 109.933 1367.03 111.241C1367.72 112.516 1368.67 113.513 1369.88 114.232C1371.1 114.919 1372.8 115.262 1375 115.262V119.774ZM1345.67 96.3817L1336.47 73.1855L1327.71 96.3817H1345.67Z" fill="white"/>
<path d="M328.05 185.341C328.05 187.614 327.48 189.478 326.34 190.933C325.2 192.369 323.756 193.465 322.007 194.223C320.258 194.961 318.549 195.449 316.878 195.688C315.208 195.928 313.597 196.047 312.044 196.047H292V193.296C293.71 193.296 294.967 193.116 295.773 192.758C296.598 192.399 297.129 191.89 297.365 191.232C297.62 190.575 297.748 189.667 297.748 188.511V162.912C297.748 161.118 297.384 159.871 296.657 159.174C295.93 158.476 294.378 158.127 292 158.127V155.316C294.849 155.256 297.561 155.196 300.136 155.136C302.71 155.077 304.822 155.037 306.473 155.017C308.143 154.977 309.313 154.957 309.981 154.957H311.071C313.115 154.957 315.247 155.176 317.468 155.615C319.708 156.034 321.742 157.001 323.569 158.516C325.417 160.031 326.34 162.214 326.34 165.065C326.34 167.198 325.594 169.033 324.1 170.568C322.607 172.103 320.16 173.369 316.76 174.366C319.079 174.784 321.093 175.492 322.803 176.489C324.532 177.466 325.839 178.712 326.723 180.227C327.608 181.742 328.05 183.447 328.05 185.341ZM317.91 165.304C317.91 163.909 317.576 162.693 316.908 161.656C316.259 160.599 315.287 159.782 313.99 159.204C312.712 158.605 311.14 158.306 309.273 158.306H306.178V172.841H308.595C311.759 172.841 314.098 172.163 315.611 170.807C317.144 169.451 317.91 167.617 317.91 165.304ZM319.001 184.833C319.001 182.081 318.293 179.948 316.878 178.433C315.483 176.898 313.508 176.13 310.953 176.13H306.178V185.879V186.687C306.178 188.162 306.267 189.318 306.444 190.156C306.62 190.973 307.063 191.611 307.77 192.07C308.477 192.508 309.598 192.728 311.13 192.728C313.174 192.728 314.992 192.1 316.583 190.844C318.195 189.588 319.001 187.584 319.001 184.833Z" fill="white"/>
<path d="M362.891 189.737C362.891 191.252 362.587 192.548 361.977 193.625C361.368 194.682 360.543 195.469 359.501 195.987C358.48 196.486 357.32 196.735 356.023 196.735C354.373 196.735 352.997 196.346 351.896 195.569C350.796 194.771 350.138 193.824 349.922 192.728C346.64 195.399 343.338 196.735 340.017 196.735C337.895 196.735 336.156 196.217 334.8 195.18C333.444 194.123 332.766 192.738 332.766 191.023C332.766 189.608 333.13 188.332 333.857 187.195C334.584 186.039 335.645 185.012 337.04 184.115C338.455 183.218 340.135 182.43 342.081 181.752C344.026 181.055 346.453 180.327 349.361 179.569V177.865C349.361 176.449 349.027 175.343 348.359 174.545C347.711 173.728 346.502 173.319 344.734 173.319C343.221 173.319 342.13 173.638 341.462 174.276C340.794 174.914 340.351 175.881 340.135 177.177C339.978 178.094 339.683 178.852 339.251 179.45C338.838 180.028 337.964 180.317 336.628 180.317C335.802 180.317 335.075 180.078 334.446 179.599C333.817 179.121 333.503 178.413 333.503 177.476C333.503 175.622 334.495 174.007 336.48 172.631C338.465 171.256 341.511 170.568 345.618 170.568C349.941 170.568 352.908 171.305 354.52 172.781C356.151 174.256 356.966 176.23 356.966 178.702V188.152C356.966 189.348 356.996 190.226 357.055 190.784C357.114 191.342 357.271 191.771 357.526 192.07C357.802 192.349 358.224 192.488 358.794 192.488C359.305 192.488 359.747 192.219 360.12 191.681C360.513 191.143 360.71 190.495 360.71 189.737H362.891ZM349.361 189.976V182.56C345.628 183.756 343.25 184.932 342.228 186.089C341.226 187.225 340.725 188.342 340.725 189.438C340.725 190.355 341 191.093 341.55 191.651C342.1 192.209 342.877 192.488 343.879 192.488C344.96 192.488 345.913 192.259 346.738 191.801C347.563 191.342 348.438 190.734 349.361 189.976Z" fill="white"/>
<path d="M381.786 171.555H396.023V174.306C395.257 174.306 394.657 174.376 394.225 174.515C393.793 174.635 393.458 174.854 393.223 175.173C393.007 175.492 392.869 175.921 392.81 176.459C392.751 176.977 392.722 177.625 392.722 178.403V188.631C392.722 189.408 392.761 190.066 392.839 190.604C392.938 191.123 393.115 191.541 393.37 191.86C393.645 192.179 394.009 192.409 394.461 192.548C394.932 192.668 395.551 192.728 396.318 192.728H398.086C398.853 192.728 399.462 192.668 399.914 192.548C400.385 192.409 400.749 192.179 401.004 191.86C401.28 191.541 401.456 191.123 401.535 190.604C401.633 190.066 401.682 189.408 401.682 188.631V178.403C401.682 177.625 401.653 176.977 401.594 176.459C401.535 175.921 401.388 175.492 401.152 175.173C400.936 174.854 400.611 174.635 400.179 174.515C399.747 174.376 399.147 174.306 398.381 174.306V171.555H413.65V174.306C412.667 174.346 411.891 174.416 411.321 174.515C410.751 174.615 410.319 174.814 410.024 175.113C409.73 175.412 409.533 175.841 409.435 176.399C409.356 176.958 409.317 177.715 409.317 178.672V188.93C409.317 189.887 409.356 190.644 409.435 191.203C409.533 191.761 409.73 192.189 410.024 192.488C410.319 192.788 410.751 192.997 411.321 193.116C411.891 193.216 412.667 193.276 413.65 193.296V196.047H364.159V193.296C365.122 193.276 365.888 193.216 366.458 193.116C367.047 192.997 367.49 192.788 367.784 192.488C368.079 192.189 368.266 191.761 368.344 191.203C368.443 190.644 368.492 189.887 368.492 188.93V178.672C368.492 177.715 368.443 176.958 368.344 176.399C368.266 175.841 368.079 175.412 367.784 175.113C367.49 174.814 367.047 174.615 366.458 174.515C365.888 174.416 365.122 174.346 364.159 174.306V171.555H379.428V174.306C378.661 174.306 378.062 174.376 377.63 174.515C377.197 174.635 376.863 174.854 376.627 175.173C376.411 175.492 376.274 175.921 376.215 176.459C376.156 176.977 376.126 177.625 376.126 178.403V188.631C376.126 189.408 376.166 190.066 376.244 190.604C376.342 191.123 376.519 191.541 376.775 191.86C377.05 192.179 377.413 192.409 377.865 192.548C378.337 192.668 378.956 192.728 379.722 192.728H381.491C382.257 192.728 382.867 192.668 383.319 192.548C383.79 192.409 384.154 192.179 384.409 191.86C384.684 191.541 384.861 191.123 384.94 190.604C385.038 190.066 385.087 189.408 385.087 188.631V178.403C385.087 177.625 385.058 176.977 384.999 176.459C384.94 175.921 384.792 175.492 384.557 175.173C384.34 174.854 384.016 174.635 383.584 174.515C383.151 174.376 382.552 174.306 381.786 174.306V171.555Z" fill="white"/>
<path d="M458.16 189.976C455.782 194.682 451.96 197.034 446.693 197.034C444.237 197.034 441.908 196.526 439.707 195.509C437.526 194.492 435.767 193.017 434.431 191.083C433.114 189.149 432.456 186.886 432.456 184.294C432.456 182.5 432.81 180.785 433.517 179.151C434.244 177.516 435.286 176.04 436.642 174.725C437.998 173.409 439.599 172.392 441.446 171.674C443.313 170.937 445.308 170.568 447.43 170.568C450.142 170.568 452.53 171.116 454.593 172.212C456.656 173.289 457.688 174.784 457.688 176.698C457.688 177.576 457.364 178.323 456.715 178.941C456.067 179.559 455.32 179.868 454.475 179.868C453.669 179.868 453.05 179.679 452.618 179.3C452.186 178.921 451.901 178.533 451.763 178.134C451.626 177.735 451.429 177.027 451.174 176.01C450.918 175.034 450.496 174.346 449.906 173.947C449.317 173.528 448.491 173.319 447.43 173.319C445.642 173.319 444.05 173.997 442.655 175.353C441.279 176.688 440.592 179.2 440.592 182.889C440.592 184.863 440.867 186.677 441.417 188.332C441.987 189.986 442.871 191.302 444.07 192.279C445.288 193.236 446.772 193.715 448.521 193.715C450.466 193.715 451.95 193.226 452.972 192.249C453.994 191.272 454.898 190.126 455.684 188.81L458.16 189.976Z" fill="white"/>
<path d="M491.144 183.726C491.144 186.438 490.495 188.8 489.199 190.814C487.902 192.827 486.143 194.373 483.922 195.449C481.721 196.506 479.304 197.034 476.671 197.034C474.195 197.034 471.847 196.546 469.626 195.569C467.425 194.592 465.617 193.107 464.202 191.113C462.807 189.119 462.109 186.677 462.109 183.786C462.109 179.46 463.564 176.18 466.472 173.947C469.38 171.694 472.839 170.568 476.848 170.568C479.835 170.568 482.409 171.166 484.571 172.362C486.732 173.558 488.363 175.163 489.464 177.177C490.584 179.19 491.144 181.374 491.144 183.726ZM483.008 183.547C483.008 180.157 482.566 177.605 481.682 175.891C480.798 174.176 479.078 173.319 476.524 173.319C474.893 173.319 473.615 173.698 472.692 174.455C471.788 175.193 471.149 176.349 470.776 177.924C470.422 179.48 470.245 181.503 470.245 183.995C470.245 187.066 470.648 189.548 471.454 191.442C472.259 193.336 474.018 194.283 476.73 194.283C478.518 194.283 479.874 193.764 480.798 192.728C481.741 191.671 482.34 190.375 482.596 188.84C482.871 187.285 483.008 185.52 483.008 183.547Z" fill="white"/>
<path d="M528.874 174.306C527.891 174.346 527.115 174.416 526.545 174.515C525.975 174.615 525.543 174.814 525.248 175.113C524.954 175.412 524.757 175.841 524.659 176.399C524.58 176.958 524.541 177.715 524.541 178.672V188.93C524.541 189.887 524.58 190.644 524.659 191.203C524.757 191.761 524.954 192.189 525.248 192.488C525.543 192.788 525.975 192.997 526.545 193.116C527.115 193.216 527.891 193.276 528.874 193.296V196.047H513.31V193.296C514.077 193.296 514.686 193.236 515.138 193.116C515.61 192.977 515.973 192.748 516.229 192.429C516.504 192.11 516.681 191.691 516.759 191.173C516.857 190.634 516.907 189.976 516.907 189.199V185.341H506.884V189.199C506.884 189.976 506.924 190.634 507.002 191.173C507.101 191.691 507.277 192.11 507.533 192.429C507.808 192.748 508.172 192.977 508.624 193.116C509.095 193.236 509.714 193.296 510.481 193.296V196.047H494.917V193.296C495.88 193.276 496.646 193.216 497.216 193.116C497.806 192.997 498.248 192.788 498.543 192.488C498.837 192.189 499.024 191.761 499.103 191.203C499.201 190.644 499.25 189.887 499.25 188.93V178.672C499.25 177.715 499.201 176.958 499.103 176.399C499.024 175.841 498.837 175.412 498.543 175.113C498.248 174.814 497.806 174.615 497.216 174.515C496.646 174.416 495.88 174.346 494.917 174.306V171.555H510.481V174.306C509.714 174.306 509.095 174.376 508.624 174.515C508.172 174.635 507.808 174.854 507.533 175.173C507.277 175.492 507.101 175.921 507.002 176.459C506.924 176.977 506.884 177.625 506.884 178.403V182.022H516.907V178.403C516.907 177.625 516.857 176.977 516.759 176.459C516.681 175.921 516.504 175.492 516.229 175.173C515.973 174.854 515.61 174.635 515.138 174.515C514.686 174.376 514.077 174.306 513.31 174.306V171.555H528.874V174.306Z" fill="white"/>
<path d="M576.744 183.726C576.744 185.74 576.371 187.574 575.624 189.229C574.877 190.864 573.855 192.259 572.558 193.416C571.261 194.572 569.748 195.459 568.019 196.077C566.29 196.715 564.442 197.034 562.477 197.034C560.669 197.034 558.881 196.755 557.113 196.197C555.344 195.658 553.762 194.811 552.367 193.655C550.972 192.478 549.842 190.983 548.977 189.169C548.132 187.355 547.71 185.172 547.71 182.62C547.71 180.526 547.847 178.273 548.122 175.861C548.397 173.449 548.938 170.907 549.743 168.235C550.176 166.74 550.638 165.404 551.129 164.228C551.62 163.031 552.229 162.025 552.956 161.207C553.703 160.37 554.627 159.732 555.727 159.293C556.847 158.855 558.252 158.635 559.942 158.635C560.768 158.635 561.554 158.655 562.3 158.695C563.067 158.735 563.814 158.755 564.541 158.755C565.602 158.755 566.624 158.665 567.606 158.486C568.608 158.286 569.63 157.868 570.672 157.23C571.301 156.851 571.831 156.373 572.264 155.794C572.716 155.216 573.148 154.618 573.561 154L575.182 155.525C574.966 156.163 574.73 156.821 574.474 157.499C574.219 158.177 573.924 158.805 573.59 159.383C573.04 160.32 572.431 161.078 571.762 161.656C571.114 162.214 570.416 162.653 569.67 162.972C568.923 163.291 568.127 163.51 567.282 163.63C566.437 163.749 565.563 163.839 564.659 163.899C563.774 163.939 562.861 163.978 561.917 164.018C560.974 164.058 560.011 164.158 559.029 164.317C557.614 164.537 556.464 165.005 555.58 165.723C554.715 166.441 554.018 167.318 553.487 168.355C552.976 169.391 552.583 170.548 552.308 171.824C552.033 173.1 551.768 174.416 551.512 175.771C552.278 174.774 553.104 173.947 553.988 173.289C554.892 172.611 555.816 172.073 556.759 171.674C557.702 171.275 558.655 170.996 559.618 170.837C560.581 170.657 561.524 170.568 562.448 170.568C564.708 170.568 566.722 170.927 568.491 171.644C570.259 172.342 571.753 173.289 572.971 174.485C574.209 175.682 575.142 177.077 575.771 178.672C576.42 180.267 576.744 181.952 576.744 183.726ZM568.608 183.547C568.608 181.872 568.51 180.397 568.314 179.121C568.137 177.845 567.803 176.778 567.311 175.921C566.82 175.063 566.152 174.416 565.307 173.977C564.482 173.538 563.421 173.319 562.124 173.319C560.886 173.319 559.864 173.528 559.058 173.947C558.252 174.366 557.614 175.014 557.142 175.891C556.67 176.748 556.336 177.855 556.14 179.21C555.943 180.546 555.845 182.141 555.845 183.995C555.845 184.733 555.865 185.501 555.904 186.298C555.943 187.095 556.032 187.873 556.169 188.631C556.327 189.388 556.543 190.116 556.818 190.814C557.113 191.492 557.496 192.09 557.967 192.608C558.459 193.126 559.058 193.535 559.766 193.834C560.473 194.133 561.328 194.283 562.33 194.283C563.706 194.283 564.806 193.984 565.631 193.386C566.457 192.788 567.086 191.99 567.518 190.993C567.97 189.996 568.265 188.86 568.402 187.584C568.54 186.288 568.608 184.942 568.608 183.547Z" fill="white"/>
<path d="M610.583 174.306C609.738 174.425 609.08 174.645 608.608 174.964C608.137 175.283 607.704 175.781 607.311 176.459C606.938 177.117 606.26 178.463 605.277 180.496L596.641 198.679C594.715 202.686 593.398 205.348 592.691 206.664C592.003 207.999 591.217 209.056 590.333 209.834C589.448 210.611 588.348 211 587.031 211C586.127 211 585.341 210.721 584.673 210.163C584.005 209.604 583.671 208.897 583.671 208.039C583.671 206.823 584.074 205.936 584.88 205.378C585.705 204.839 586.766 204.381 588.063 204.002C589.812 203.484 591.148 202.537 592.072 201.161C592.995 199.785 593.791 198.28 594.459 196.645L583.229 176.579C582.698 175.602 582.217 174.984 581.785 174.725C581.352 174.445 580.753 174.306 579.986 174.306V171.555H594.283V174.306H593.369C592.013 174.306 591.335 174.635 591.335 175.293C591.335 175.691 591.61 176.379 592.16 177.356L598.38 188.451L602.978 178.971C603.627 177.615 603.951 176.688 603.951 176.19C603.951 175.592 603.656 175.133 603.067 174.814C602.497 174.475 601.819 174.306 601.033 174.306V171.555H610.583V174.306Z" fill="white"/>
<path d="M651.998 194.014C651.998 194.293 651.968 194.701 651.909 195.24C651.87 195.778 651.772 196.496 651.615 197.393C651.457 198.29 651.222 199.367 650.907 200.623C650.612 201.899 650.21 203.384 649.699 205.079H647.812C647.419 203.763 647.085 202.607 646.81 201.61C646.554 200.633 646.338 199.785 646.161 199.068C645.985 198.37 645.847 197.772 645.749 197.273C645.67 196.795 645.611 196.386 645.572 196.047H617.746C617.707 196.386 617.638 196.795 617.54 197.273C617.441 197.772 617.304 198.38 617.127 199.098C616.95 199.815 616.724 200.663 616.449 201.64C616.194 202.616 615.879 203.763 615.506 205.079H613.619C613.108 203.384 612.705 201.899 612.411 200.623C612.116 199.367 611.88 198.29 611.703 197.393C611.546 196.496 611.438 195.778 611.379 195.24C611.34 194.701 611.32 194.293 611.32 194.014C611.32 193.814 611.399 193.645 611.556 193.505C611.713 193.366 611.949 193.296 612.263 193.296H615.948C617.54 193.176 618.896 192.887 620.016 192.429C621.136 191.97 622.05 191.322 622.757 190.485C623.464 189.627 623.975 188.581 624.29 187.345C624.624 186.089 624.791 184.603 624.791 182.889C624.791 182.031 624.781 181.364 624.761 180.885C624.761 180.407 624.742 179.988 624.702 179.629C624.683 179.27 624.653 178.921 624.614 178.582C624.575 178.243 624.516 177.785 624.437 177.207C624.359 176.629 624.231 176.16 624.054 175.801C623.897 175.422 623.641 175.133 623.288 174.934C622.954 174.715 622.511 174.565 621.961 174.485C621.411 174.386 620.713 174.326 619.868 174.306V171.555H650.73V174.306C649.767 174.326 649.001 174.406 648.431 174.545C647.861 174.665 647.419 174.884 647.105 175.203C646.81 175.502 646.613 175.911 646.515 176.429C646.437 176.948 646.397 177.595 646.397 178.373V190.425C646.397 191.322 646.682 192.02 647.252 192.518C647.822 193.017 648.873 193.276 650.406 193.296H651.055C651.369 193.296 651.605 193.366 651.762 193.505C651.919 193.645 651.998 193.814 651.998 194.014ZM631.217 176.07C631.217 176.29 631.286 176.958 631.423 178.074C631.561 179.171 631.629 180.775 631.629 182.889C631.629 184.105 631.551 185.221 631.394 186.238C631.256 187.255 631.001 188.192 630.627 189.049C630.274 189.907 629.792 190.694 629.183 191.412C628.574 192.11 627.817 192.738 626.913 193.296H633.722C634.842 193.296 635.737 193.246 636.405 193.146C637.073 193.027 637.584 192.847 637.937 192.608C638.291 192.369 638.517 192.07 638.615 191.711C638.733 191.352 638.792 190.923 638.792 190.425V177.207C638.792 176.23 638.547 175.502 638.055 175.024C637.584 174.545 636.68 174.306 635.344 174.306H634.371C633.231 174.306 632.415 174.455 631.924 174.754C631.453 175.034 631.217 175.472 631.217 176.07Z" fill="white"/>
<path d="M680.855 182.889H662.727C662.747 183.268 662.796 184.075 662.875 185.311C662.973 186.547 663.248 187.813 663.7 189.109C664.172 190.405 664.967 191.502 666.088 192.399C667.227 193.276 668.75 193.715 670.656 193.715C671.698 193.715 672.956 193.445 674.43 192.907C675.903 192.369 677.181 191.332 678.261 189.797L680.561 191.382C678.242 195.15 674.557 197.034 669.507 197.034C667.247 197.034 665.184 196.705 663.317 196.047C661.47 195.389 659.898 194.472 658.601 193.296C657.304 192.12 656.311 190.734 655.623 189.139C654.936 187.544 654.592 185.829 654.592 183.995C654.592 181.583 655.162 179.35 656.301 177.296C657.461 175.243 659.111 173.608 661.253 172.392C663.395 171.176 665.842 170.568 668.593 170.568C671.285 170.568 673.555 171.156 675.402 172.332C677.269 173.508 678.645 175.034 679.529 176.908C680.413 178.782 680.855 180.775 680.855 182.889ZM673.545 180.137C673.545 175.592 671.777 173.319 668.239 173.319C666.53 173.319 665.213 173.947 664.29 175.203C663.386 176.459 662.884 178.104 662.786 180.137H673.545Z" fill="white"/>
<path d="M684.717 171.555H714.017L714.282 182.081H711.776C711.423 180.407 711.049 179.091 710.656 178.134C710.283 177.177 709.821 176.459 709.271 175.981C708.721 175.482 708.043 175.173 707.237 175.054C706.451 174.934 705.468 174.874 704.289 174.874H703.169V188.511C703.169 190.126 703.454 191.332 704.024 192.13C704.299 192.528 704.741 192.827 705.35 193.027C705.979 193.206 706.608 193.296 707.237 193.296V196.047H691.496V193.296C692.125 193.296 692.744 193.206 693.353 193.027C693.982 192.827 694.434 192.528 694.709 192.13C695.279 191.332 695.564 190.126 695.564 188.511V174.874H694.444C693.265 174.874 692.273 174.934 691.467 175.054C690.681 175.173 690.013 175.482 689.463 175.981C688.912 176.459 688.441 177.177 688.048 178.134C687.674 179.091 687.311 180.407 686.957 182.081H684.452L684.717 171.555Z" fill="white"/>
<path d="M749.713 181.393C750.853 181.393 751.933 181.493 752.955 181.693C753.997 181.892 754.91 182.231 755.697 182.709C756.483 183.188 757.102 183.826 757.554 184.623C758.025 185.401 758.261 186.378 758.261 187.554C758.261 189.229 757.848 190.674 757.023 191.89C756.198 193.087 755.117 194.063 753.781 194.821C752.444 195.579 750.931 196.137 749.241 196.496C747.571 196.855 745.881 197.034 744.171 197.034C742.422 197.034 740.87 196.924 739.514 196.705C738.158 196.506 737.008 196.227 736.065 195.868C735.122 195.489 734.405 195.05 733.913 194.552C733.422 194.034 733.176 193.485 733.176 192.907C733.176 192.15 733.451 191.561 734.002 191.143C734.552 190.724 735.377 190.515 736.478 190.515C737.342 190.515 738.05 190.684 738.6 191.023C739.15 191.342 739.642 191.831 740.074 192.488C740.526 193.166 741.115 193.635 741.842 193.894C742.57 194.153 743.503 194.283 744.643 194.283C745.291 194.283 745.95 194.173 746.618 193.954C747.305 193.735 747.915 193.396 748.445 192.937C748.995 192.459 749.438 191.85 749.772 191.113C750.125 190.375 750.302 189.498 750.302 188.481C750.302 186.906 749.958 185.7 749.271 184.863C748.583 184.005 747.649 183.577 746.47 183.577C746.077 183.577 745.665 183.646 745.232 183.786C744.82 183.906 744.417 184.105 744.024 184.384C743.375 184.843 742.776 185.072 742.226 185.072C741.774 185.072 741.41 184.942 741.135 184.683C740.86 184.404 740.722 184.145 740.722 183.906C740.722 183.746 740.742 183.607 740.781 183.487C740.84 183.367 740.948 183.248 741.106 183.128C741.282 183.008 741.528 182.879 741.842 182.739C742.157 182.58 742.579 182.38 743.11 182.141C744.289 181.623 745.311 181.124 746.176 180.646C747.04 180.167 747.748 179.689 748.298 179.21C748.868 178.732 749.29 178.253 749.565 177.775C749.84 177.296 749.978 176.798 749.978 176.28C749.978 175.721 749.86 175.253 749.624 174.874C749.408 174.475 749.104 174.166 748.711 173.947C748.318 173.728 747.856 173.568 747.325 173.469C746.795 173.369 746.234 173.319 745.645 173.319C744.112 173.319 742.913 173.498 742.049 173.857C741.184 174.196 740.752 174.715 740.752 175.412C740.752 175.612 740.781 175.791 740.84 175.951C740.919 176.11 740.997 176.27 741.076 176.429C741.155 176.589 741.223 176.758 741.282 176.938C741.361 177.097 741.4 177.276 741.4 177.476C741.4 177.655 741.341 177.835 741.223 178.014C741.125 178.194 740.948 178.363 740.693 178.523C740.437 178.682 740.103 178.812 739.691 178.911C739.278 179.011 738.767 179.061 738.158 179.061C737.45 179.061 736.871 178.971 736.419 178.792C735.986 178.592 735.643 178.363 735.387 178.104C735.132 177.825 734.955 177.536 734.857 177.237C734.758 176.938 734.709 176.668 734.709 176.429C734.709 175.532 734.994 174.725 735.564 174.007C736.154 173.289 736.969 172.681 738.011 172.183C739.052 171.664 740.28 171.275 741.695 171.016C743.13 170.737 744.702 170.598 746.411 170.598C748.318 170.598 749.949 170.717 751.304 170.956C752.68 171.196 753.8 171.545 754.665 172.003C755.529 172.442 756.158 172.98 756.551 173.618C756.964 174.256 757.17 174.964 757.17 175.741C757.17 176.499 756.954 177.187 756.522 177.805C756.109 178.423 755.559 178.971 754.871 179.45C754.183 179.928 753.388 180.327 752.484 180.646C751.58 180.965 750.656 181.214 749.713 181.393Z" fill="white"/>
<path d="M800.855 194.014C800.855 194.293 800.825 194.701 800.766 195.24C800.727 195.778 800.629 196.496 800.471 197.393C800.314 198.29 800.078 199.367 799.764 200.623C799.469 201.899 799.066 203.384 798.555 205.079H796.669C796.276 203.763 795.942 202.607 795.667 201.61C795.411 200.633 795.195 199.785 795.018 199.068C794.841 198.37 794.704 197.772 794.606 197.273C794.527 196.795 794.468 196.386 794.429 196.047H766.603C766.564 196.386 766.495 196.795 766.397 197.273C766.298 197.772 766.161 198.38 765.984 199.098C765.807 199.815 765.581 200.663 765.306 201.64C765.05 202.616 764.736 203.763 764.363 205.079H762.476C761.965 203.384 761.562 201.899 761.268 200.623C760.973 199.367 760.737 198.29 760.56 197.393C760.403 196.496 760.295 195.778 760.236 195.24C760.197 194.701 760.177 194.293 760.177 194.014C760.177 193.814 760.256 193.645 760.413 193.505C760.57 193.366 760.806 193.296 761.12 193.296H764.805C766.397 193.176 767.752 192.887 768.873 192.429C769.993 191.97 770.906 191.322 771.614 190.485C772.321 189.627 772.832 188.581 773.147 187.345C773.481 186.089 773.648 184.603 773.648 182.889C773.648 182.031 773.638 181.364 773.618 180.885C773.618 180.407 773.599 179.988 773.559 179.629C773.54 179.27 773.51 178.921 773.471 178.582C773.432 178.243 773.373 177.785 773.294 177.207C773.215 176.629 773.088 176.16 772.911 175.801C772.754 175.422 772.498 175.133 772.144 174.934C771.81 174.715 771.368 174.565 770.818 174.485C770.268 174.386 769.57 174.326 768.725 174.306V171.555H799.587V174.306C798.624 174.326 797.858 174.406 797.288 174.545C796.718 174.665 796.276 174.884 795.962 175.203C795.667 175.502 795.47 175.911 795.372 176.429C795.293 176.948 795.254 177.595 795.254 178.373V190.425C795.254 191.322 795.539 192.02 796.109 192.518C796.679 193.017 797.73 193.276 799.263 193.296H799.911C800.226 193.296 800.462 193.366 800.619 193.505C800.776 193.645 800.855 193.814 800.855 194.014ZM780.074 176.07C780.074 176.29 780.142 176.958 780.28 178.074C780.418 179.171 780.486 180.775 780.486 182.889C780.486 184.105 780.408 185.221 780.251 186.238C780.113 187.255 779.857 188.192 779.484 189.049C779.13 189.907 778.649 190.694 778.04 191.412C777.431 192.11 776.674 192.738 775.77 193.296H782.579C783.699 193.296 784.593 193.246 785.262 193.146C785.93 193.027 786.441 192.847 786.794 192.608C787.148 192.369 787.374 192.07 787.472 191.711C787.59 191.352 787.649 190.923 787.649 190.425V177.207C787.649 176.23 787.404 175.502 786.912 175.024C786.441 174.545 785.537 174.306 784.2 174.306H783.228C782.088 174.306 781.272 174.455 780.781 174.754C780.309 175.034 780.074 175.472 780.074 176.07Z" fill="white"/>
<path d="M832.542 183.726C832.542 186.438 831.894 188.8 830.597 190.814C829.3 192.827 827.541 194.373 825.32 195.449C823.119 196.506 820.702 197.034 818.069 197.034C815.593 197.034 813.245 196.546 811.024 195.569C808.823 194.592 807.015 193.107 805.6 191.113C804.205 189.119 803.508 186.677 803.508 183.786C803.508 179.46 804.962 176.18 807.87 173.947C810.778 171.694 814.237 170.568 818.246 170.568C821.233 170.568 823.807 171.166 825.969 172.362C828.13 173.558 829.761 175.163 830.862 177.177C831.982 179.19 832.542 181.374 832.542 183.726ZM824.406 183.547C824.406 180.157 823.964 177.605 823.08 175.891C822.196 174.176 820.476 173.319 817.922 173.319C816.291 173.319 815.013 173.698 814.09 174.455C813.186 175.193 812.547 176.349 812.174 177.924C811.82 179.48 811.643 181.503 811.643 183.995C811.643 187.066 812.046 189.548 812.852 191.442C813.657 193.336 815.416 194.283 818.128 194.283C819.916 194.283 821.272 193.764 822.196 192.728C823.139 191.671 823.738 190.375 823.994 188.84C824.269 187.285 824.406 185.52 824.406 183.547Z" fill="white"/>
<path d="M869.093 183.367C869.093 185.82 868.523 188.102 867.383 190.216C866.263 192.309 864.701 193.974 862.697 195.21C860.712 196.426 858.481 197.034 856.005 197.034C852.901 197.034 850.198 195.928 847.899 193.715V203.284C847.899 204.421 847.968 205.268 848.106 205.826C848.263 206.405 848.597 206.833 849.108 207.112C849.638 207.411 850.444 207.561 851.525 207.561H853.146V210.312H836.02V207.561C837.357 207.561 838.319 207.441 838.909 207.202C839.498 206.983 839.872 206.594 840.029 206.036C840.206 205.477 840.294 204.56 840.294 203.284V179.868C840.294 178.712 840.206 177.875 840.029 177.356C839.872 176.838 839.498 176.469 838.909 176.25C838.339 176.01 837.376 175.891 836.02 175.891V173.14L847.487 170.568C847.722 171.365 847.86 172.631 847.899 174.366C849.196 173.05 850.533 172.093 851.908 171.495C853.303 170.877 854.905 170.568 856.713 170.568C858.678 170.568 860.437 170.927 861.989 171.644C863.542 172.362 864.839 173.329 865.88 174.545C866.922 175.741 867.717 177.117 868.268 178.672C868.818 180.207 869.093 181.772 869.093 183.367ZM860.957 183.068C860.957 176.948 858.845 173.887 854.62 173.887C853.244 173.887 851.977 174.296 850.818 175.113C849.678 175.911 848.705 176.888 847.899 178.044V189.857C848.666 191.033 849.658 191.97 850.876 192.668C852.115 193.366 853.382 193.715 854.679 193.715C858.865 193.715 860.957 190.166 860.957 183.068Z" fill="white"/>
<path d="M903.05 183.726C903.05 186.438 902.402 188.8 901.105 190.814C899.808 192.827 898.049 194.373 895.828 195.449C893.627 196.506 891.21 197.034 888.577 197.034C886.101 197.034 883.753 196.546 881.532 195.569C879.331 194.592 877.523 193.107 876.108 191.113C874.713 189.119 874.016 186.677 874.016 183.786C874.016 179.46 875.47 176.18 878.378 173.947C881.286 171.694 884.745 170.568 888.754 170.568C891.741 170.568 894.315 171.166 896.477 172.362C898.638 173.558 900.269 175.163 901.37 177.177C902.49 179.19 903.05 181.374 903.05 183.726ZM894.914 183.547C894.914 180.157 894.472 177.605 893.588 175.891C892.704 174.176 890.984 173.319 888.43 173.319C886.799 173.319 885.521 173.698 884.598 174.455C883.694 175.193 883.055 176.349 882.682 177.924C882.328 179.48 882.151 181.503 882.151 183.995C882.151 187.066 882.554 189.548 883.36 191.442C884.165 193.336 885.924 194.283 888.636 194.283C890.424 194.283 891.78 193.764 892.704 192.728C893.647 191.671 894.246 190.375 894.502 188.84C894.777 187.285 894.914 185.52 894.914 183.547Z" fill="white"/>
<path d="M939.1 189.109C939.1 190.525 938.668 191.681 937.803 192.578C936.958 193.475 935.838 194.183 934.443 194.701C933.067 195.2 931.505 195.549 929.756 195.748C928.027 195.948 926.278 196.047 924.509 196.047H906.853V193.296C908.032 193.276 908.965 193.216 909.653 193.116C910.36 193.017 910.891 192.867 911.245 192.668C911.598 192.449 911.824 192.189 911.923 191.89C912.021 191.571 912.07 191.183 912.07 190.724V176.848C912.07 176.369 912.001 175.971 911.864 175.652C911.726 175.313 911.461 175.044 911.068 174.844C910.694 174.645 910.164 174.505 909.476 174.425C908.808 174.346 907.933 174.306 906.853 174.306V171.555C908.385 171.535 909.839 171.515 911.215 171.495C912.61 171.455 913.996 171.425 915.371 171.405C916.747 171.385 918.152 171.375 919.586 171.375C921.021 171.355 922.564 171.345 924.214 171.345C924.863 171.345 925.639 171.365 926.543 171.405C927.466 171.425 928.42 171.505 929.402 171.644C930.385 171.764 931.357 171.953 932.32 172.212C933.303 172.472 934.177 172.831 934.944 173.289C935.71 173.728 936.329 174.286 936.801 174.964C937.292 175.642 937.538 176.459 937.538 177.416C937.538 178.174 937.41 178.871 937.154 179.509C936.919 180.147 936.516 180.706 935.946 181.184C935.396 181.663 934.659 182.061 933.735 182.38C932.812 182.699 931.672 182.909 930.316 183.008C932.085 183.168 933.539 183.417 934.678 183.756C935.818 184.095 936.712 184.524 937.361 185.042C938.029 185.56 938.481 186.158 938.717 186.836C938.972 187.514 939.1 188.272 939.1 189.109ZM929.579 177.984C929.579 176.908 929.078 176.03 928.076 175.353C927.093 174.655 925.56 174.306 923.477 174.306H919.763V181.842H923.035C925.334 181.842 926.995 181.503 928.017 180.825C929.058 180.147 929.579 179.2 929.579 177.984ZM930.434 188.96C930.434 187.504 929.893 186.348 928.813 185.491C927.732 184.633 926.189 184.205 924.185 184.205H919.763V190.066C919.763 190.644 919.832 191.143 919.97 191.561C920.107 191.96 920.343 192.289 920.677 192.548C921.031 192.807 921.502 192.997 922.092 193.116C922.681 193.236 923.438 193.296 924.362 193.296C924.971 193.296 925.629 193.226 926.337 193.087C927.044 192.947 927.702 192.708 928.312 192.369C928.921 192.03 929.422 191.581 929.815 191.023C930.227 190.465 930.434 189.777 930.434 188.96Z" fill="white"/>
<path d="M942.313 171.555H957.877V174.306C957.11 174.306 956.491 174.376 956.02 174.515C955.568 174.635 955.204 174.854 954.929 175.173C954.673 175.492 954.497 175.921 954.398 176.459C954.32 176.977 954.28 177.625 954.28 178.403V181.842H957.611C960.323 181.842 962.681 181.972 964.686 182.231C966.71 182.47 968.38 182.879 969.697 183.457C971.033 184.015 972.025 184.763 972.674 185.7C973.342 186.617 973.676 187.753 973.676 189.109C973.676 190.525 973.244 191.681 972.379 192.578C971.534 193.475 970.414 194.183 969.019 194.701C967.643 195.2 966.081 195.549 964.332 195.748C962.603 195.948 960.854 196.047 959.085 196.047H942.313V193.296C943.276 193.276 944.042 193.216 944.612 193.116C945.202 192.997 945.644 192.788 945.939 192.488C946.233 192.189 946.42 191.761 946.499 191.203C946.597 190.644 946.646 189.887 946.646 188.93V178.672C946.646 177.715 946.597 176.958 946.499 176.399C946.42 175.841 946.233 175.412 945.939 175.113C945.644 174.814 945.202 174.615 944.612 174.515C944.042 174.416 943.276 174.346 942.313 174.306V171.555ZM965.01 188.96C965.01 187.504 964.469 186.348 963.389 185.491C962.308 184.633 960.765 184.205 958.761 184.205H954.28V190.066C954.28 190.644 954.349 191.143 954.487 191.561C954.624 191.96 954.87 192.289 955.224 192.548C955.577 192.807 956.049 192.997 956.639 193.116C957.248 193.236 958.014 193.296 958.938 193.296C959.547 193.296 960.205 193.226 960.913 193.087C961.62 192.947 962.278 192.708 962.888 192.369C963.497 192.03 963.998 191.581 964.391 191.023C964.804 190.465 965.01 189.777 965.01 188.96ZM993.072 196.047H977.066V193.296H977.921C979.06 193.296 979.886 193.136 980.397 192.817C980.927 192.498 981.252 192.05 981.369 191.472C981.487 190.893 981.546 190.046 981.546 188.93V180.048C981.546 178.812 981.468 177.934 981.31 177.416C981.173 176.898 980.79 176.519 980.161 176.28C979.552 176.04 978.52 175.911 977.066 175.891V173.14L989.151 170.568V188.93C989.151 190.604 989.358 191.751 989.77 192.369C990.183 192.987 991.283 193.296 993.072 193.296V196.047Z" fill="white"/>
<path d="M1037.49 196.047H1019.22V193.296C1020.42 193.276 1021.36 193.176 1022.05 192.997C1022.73 192.817 1023.26 192.538 1023.61 192.159C1023.96 191.781 1024.19 191.292 1024.29 190.694C1024.39 190.096 1024.44 189.368 1024.46 188.511V179.151L1015.15 196.047H1013.5L1003.98 179.151V187.225C1003.98 187.863 1003.99 188.421 1004.01 188.9C1004.03 189.378 1004.06 189.797 1004.1 190.156C1004.15 190.515 1004.23 190.834 1004.33 191.113C1004.43 191.392 1004.56 191.651 1004.71 191.89C1005.05 192.369 1005.57 192.728 1006.28 192.967C1006.98 193.186 1007.99 193.296 1009.28 193.296V196.047H995.783V193.296C997.08 193.296 998.073 193.176 998.761 192.937C999.468 192.698 999.989 192.339 1000.32 191.86C1000.48 191.621 1000.61 191.362 1000.71 191.083C1000.8 190.804 1000.87 190.485 1000.91 190.126C1000.97 189.767 1001 189.358 1001 188.9C1001.02 188.421 1001.03 187.863 1001.03 187.225V180.317C1001.03 178.642 1000.95 177.406 1000.79 176.609C1000.72 176.23 1000.57 175.901 1000.35 175.622C1000.16 175.323 999.861 175.083 999.468 174.904C999.075 174.705 998.574 174.555 997.965 174.455C997.375 174.356 996.648 174.306 995.783 174.306V171.555H1009.11L1016.77 185.431L1024.46 171.555H1037.49V174.306C1035.25 174.306 1033.8 174.675 1033.13 175.412C1032.48 176.13 1032.16 177.356 1032.16 179.091V188.511C1032.16 189.328 1032.21 190.036 1032.3 190.634C1032.42 191.212 1032.66 191.701 1033.01 192.1C1033.39 192.478 1033.93 192.768 1034.63 192.967C1035.34 193.166 1036.29 193.276 1037.49 193.296V196.047Z" fill="white"/>
<path d="M1089.11 174.306C1088.12 174.346 1087.35 174.416 1086.78 174.515C1086.21 174.615 1085.78 174.814 1085.48 175.113C1085.19 175.412 1084.99 175.841 1084.89 176.399C1084.81 176.958 1084.77 177.715 1084.77 178.672V188.93C1084.77 189.887 1084.81 190.644 1084.89 191.203C1084.99 191.761 1085.19 192.189 1085.48 192.488C1085.78 192.788 1086.21 192.997 1086.78 193.116C1087.35 193.216 1088.12 193.276 1089.11 193.296V196.047H1073.54V193.296C1074.31 193.296 1074.92 193.236 1075.37 193.116C1075.84 192.977 1076.21 192.748 1076.46 192.429C1076.74 192.11 1076.91 191.691 1076.99 191.173C1077.09 190.634 1077.14 189.976 1077.14 189.199V181.633L1067.12 190.006C1067.14 190.644 1067.21 191.173 1067.32 191.591C1067.46 192.01 1067.66 192.349 1067.91 192.608C1068.19 192.847 1068.55 193.027 1069 193.146C1069.46 193.246 1070.03 193.296 1070.71 193.296V196.047H1055.15V193.296C1056.11 193.276 1056.88 193.216 1057.45 193.116C1058.04 192.997 1058.48 192.788 1058.77 192.488C1059.07 192.189 1059.26 191.761 1059.34 191.203C1059.43 190.644 1059.48 189.887 1059.48 188.93V178.672C1059.48 177.715 1059.43 176.958 1059.34 176.399C1059.26 175.841 1059.07 175.412 1058.77 175.113C1058.48 174.814 1058.04 174.615 1057.45 174.515C1056.88 174.416 1056.11 174.346 1055.15 174.306V171.555H1070.71V174.306C1069.95 174.306 1069.33 174.376 1068.86 174.515C1068.4 174.635 1068.04 174.854 1067.77 175.173C1067.51 175.492 1067.33 175.921 1067.23 176.459C1067.16 176.977 1067.12 177.625 1067.12 178.403V185.7L1077.11 177.356C1077.07 176.778 1076.98 176.3 1076.84 175.921C1076.73 175.522 1076.53 175.203 1076.25 174.964C1076 174.725 1075.65 174.555 1075.19 174.455C1074.76 174.356 1074.21 174.306 1073.54 174.306V171.555H1089.11V174.306Z" fill="white"/>
<path d="M1133.59 189.976C1131.21 194.682 1127.39 197.034 1122.12 197.034C1119.66 197.034 1117.34 196.526 1115.13 195.509C1112.95 194.492 1111.19 193.017 1109.86 191.083C1108.54 189.149 1107.88 186.886 1107.88 184.294C1107.88 182.5 1108.24 180.785 1108.94 179.151C1109.67 177.516 1110.71 176.04 1112.07 174.725C1113.42 173.409 1115.03 172.392 1116.87 171.674C1118.74 170.937 1120.73 170.568 1122.86 170.568C1125.57 170.568 1127.96 171.116 1130.02 172.212C1132.08 173.289 1133.11 174.784 1133.11 176.698C1133.11 177.576 1132.79 178.323 1132.14 178.941C1131.49 179.559 1130.75 179.868 1129.9 179.868C1129.1 179.868 1128.48 179.679 1128.04 179.3C1127.61 178.921 1127.33 178.533 1127.19 178.134C1127.05 177.735 1126.86 177.027 1126.6 176.01C1126.35 175.034 1125.92 174.346 1125.33 173.947C1124.74 173.528 1123.92 173.319 1122.86 173.319C1121.07 173.319 1119.48 173.997 1118.08 175.353C1116.71 176.688 1116.02 179.2 1116.02 182.889C1116.02 184.863 1116.29 186.677 1116.84 188.332C1117.41 189.986 1118.3 191.302 1119.5 192.279C1120.72 193.236 1122.2 193.715 1123.95 193.715C1125.89 193.715 1127.38 193.226 1128.4 192.249C1129.42 191.272 1130.32 190.126 1131.11 188.81L1133.59 189.976Z" fill="white"/>
<path d="M1157.4 193.296C1158.17 193.296 1158.78 193.236 1159.23 193.116C1159.7 192.977 1160.07 192.748 1160.32 192.429C1160.6 192.11 1160.77 191.691 1160.85 191.173C1160.95 190.634 1161 189.976 1161 189.199V177.207C1161 176.23 1160.76 175.502 1160.29 175.024C1159.82 174.545 1158.92 174.306 1157.58 174.306H1156.61C1155.47 174.306 1154.65 174.455 1154.16 174.754C1153.69 175.034 1153.45 175.472 1153.45 176.07C1153.45 176.29 1153.52 176.958 1153.66 178.074C1153.8 179.171 1153.87 180.775 1153.87 182.889C1153.87 184.663 1153.69 186.388 1153.34 188.062C1153 189.717 1152.43 191.193 1151.63 192.488C1150.84 193.784 1149.78 194.831 1148.44 195.629C1147.11 196.406 1145.46 196.795 1143.49 196.795C1140.98 196.795 1139.06 196.376 1137.74 195.539C1136.43 194.682 1135.77 193.475 1135.77 191.92C1135.77 190.963 1136 190.236 1136.48 189.737C1136.95 189.219 1137.62 188.96 1138.48 188.96C1139.17 188.96 1139.76 189.139 1140.25 189.498C1140.74 189.857 1140.99 190.445 1140.99 191.262C1140.99 191.601 1140.94 191.92 1140.84 192.219C1140.76 192.498 1140.72 192.728 1140.72 192.907C1140.72 193.804 1141.12 194.253 1141.93 194.253C1142.75 194.253 1143.48 193.954 1144.11 193.356C1144.76 192.738 1145.3 191.91 1145.73 190.874C1146.16 189.837 1146.49 188.631 1146.7 187.255C1146.92 185.879 1147.03 184.424 1147.03 182.889C1147.03 182.031 1147.02 181.364 1147 180.885C1147 180.407 1146.98 179.988 1146.94 179.629C1146.92 179.27 1146.89 178.921 1146.85 178.582C1146.81 178.243 1146.75 177.785 1146.67 177.207C1146.6 176.629 1146.47 176.16 1146.29 175.801C1146.13 175.422 1145.88 175.133 1145.52 174.934C1145.19 174.715 1144.75 174.565 1144.2 174.485C1143.65 174.386 1142.95 174.326 1142.11 174.306V171.555H1172.97V174.306C1172 174.326 1171.24 174.406 1170.67 174.545C1170.1 174.665 1169.66 174.884 1169.34 175.203C1169.05 175.502 1168.85 175.911 1168.75 176.429C1168.67 176.948 1168.63 177.595 1168.63 178.373V188.93C1168.63 189.887 1168.67 190.644 1168.75 191.203C1168.85 191.761 1169.05 192.189 1169.34 192.488C1169.64 192.788 1170.07 192.997 1170.64 193.116C1171.21 193.216 1171.98 193.276 1172.97 193.296V196.047H1157.4V193.296Z" fill="white"/>
<path d="M1206.98 189.737C1206.98 191.252 1206.68 192.548 1206.07 193.625C1205.46 194.682 1204.64 195.469 1203.59 195.987C1202.57 196.486 1201.41 196.735 1200.12 196.735C1198.46 196.735 1197.09 196.346 1195.99 195.569C1194.89 194.771 1194.23 193.824 1194.01 192.728C1190.73 195.399 1187.43 196.735 1184.11 196.735C1181.99 196.735 1180.25 196.217 1178.89 195.18C1177.54 194.123 1176.86 192.738 1176.86 191.023C1176.86 189.608 1177.22 188.332 1177.95 187.195C1178.68 186.039 1179.74 185.012 1181.13 184.115C1182.55 183.218 1184.23 182.43 1186.17 181.752C1188.12 181.055 1190.55 180.327 1193.45 179.569V177.865C1193.45 176.449 1193.12 175.343 1192.45 174.545C1191.8 173.728 1190.59 173.319 1188.83 173.319C1187.31 173.319 1186.22 173.638 1185.55 174.276C1184.89 174.914 1184.44 175.881 1184.23 177.177C1184.07 178.094 1183.78 178.852 1183.34 179.45C1182.93 180.028 1182.06 180.317 1180.72 180.317C1179.89 180.317 1179.17 180.078 1178.54 179.599C1177.91 179.121 1177.6 178.413 1177.6 177.476C1177.6 175.622 1178.59 174.007 1180.57 172.631C1182.56 171.256 1185.6 170.568 1189.71 170.568C1194.03 170.568 1197 171.305 1198.61 172.781C1200.24 174.256 1201.06 176.23 1201.06 178.702V188.152C1201.06 189.348 1201.09 190.226 1201.15 190.784C1201.21 191.342 1201.36 191.771 1201.62 192.07C1201.89 192.349 1202.32 192.488 1202.89 192.488C1203.4 192.488 1203.84 192.219 1204.21 191.681C1204.61 191.143 1204.8 190.495 1204.8 189.737H1206.98ZM1193.45 189.976V182.56C1189.72 183.756 1187.34 184.932 1186.32 186.089C1185.32 187.225 1184.82 188.342 1184.82 189.438C1184.82 190.355 1185.09 191.093 1185.64 191.651C1186.19 192.209 1186.97 192.488 1187.97 192.488C1189.05 192.488 1190 192.259 1190.83 191.801C1191.66 191.342 1192.53 190.734 1193.45 189.976Z" fill="white"/>
<path d="M1247.66 194.014C1247.66 194.293 1247.63 194.701 1247.57 195.24C1247.53 195.778 1247.44 196.496 1247.28 197.393C1247.12 198.29 1246.88 199.367 1246.57 200.623C1246.28 201.899 1245.87 203.384 1245.36 205.079H1243.48C1243.08 203.763 1242.75 202.607 1242.47 201.61C1242.22 200.633 1242 199.785 1241.82 199.068C1241.65 198.37 1241.51 197.772 1241.41 197.273C1241.33 196.795 1241.27 196.386 1241.24 196.047H1213.41C1213.37 196.386 1213.3 196.795 1213.2 197.273C1213.1 197.772 1212.97 198.38 1212.79 199.098C1212.61 199.815 1212.39 200.663 1212.11 201.64C1211.86 202.616 1211.54 203.763 1211.17 205.079H1209.28C1208.77 203.384 1208.37 201.899 1208.07 200.623C1207.78 199.367 1207.54 198.29 1207.37 197.393C1207.21 196.496 1207.1 195.778 1207.04 195.24C1207 194.701 1206.98 194.293 1206.98 194.014C1206.98 193.814 1207.06 193.645 1207.22 193.505C1207.38 193.366 1207.61 193.296 1207.93 193.296H1211.61C1213.2 193.176 1214.56 192.887 1215.68 192.429C1216.8 191.97 1217.71 191.322 1218.42 190.485C1219.13 189.627 1219.64 188.581 1219.95 187.345C1220.29 186.089 1220.45 184.603 1220.45 182.889C1220.45 182.031 1220.44 181.364 1220.42 180.885C1220.42 180.407 1220.41 179.988 1220.37 179.629C1220.35 179.27 1220.32 178.921 1220.28 178.582C1220.24 178.243 1220.18 177.785 1220.1 177.207C1220.02 176.629 1219.89 176.16 1219.72 175.801C1219.56 175.422 1219.3 175.133 1218.95 174.934C1218.62 174.715 1218.17 174.565 1217.62 174.485C1217.07 174.386 1216.38 174.326 1215.53 174.306V171.555H1246.39V174.306C1245.43 174.326 1244.66 174.406 1244.09 174.545C1243.52 174.665 1243.08 174.884 1242.77 175.203C1242.47 175.502 1242.28 175.911 1242.18 176.429C1242.1 176.948 1242.06 177.595 1242.06 178.373V190.425C1242.06 191.322 1242.35 192.02 1242.92 192.518C1243.49 193.017 1244.54 193.276 1246.07 193.296H1246.72C1247.03 193.296 1247.27 193.366 1247.43 193.505C1247.58 193.645 1247.66 193.814 1247.66 194.014ZM1226.88 176.07C1226.88 176.29 1226.95 176.958 1227.09 178.074C1227.22 179.171 1227.29 180.775 1227.29 182.889C1227.29 184.105 1227.21 185.221 1227.06 186.238C1226.92 187.255 1226.66 188.192 1226.29 189.049C1225.94 189.907 1225.46 190.694 1224.85 191.412C1224.24 192.11 1223.48 192.738 1222.58 193.296H1229.39C1230.51 193.296 1231.4 193.246 1232.07 193.146C1232.74 193.027 1233.25 192.847 1233.6 192.608C1233.95 192.369 1234.18 192.07 1234.28 191.711C1234.4 191.352 1234.46 190.923 1234.46 190.425V177.207C1234.46 176.23 1234.21 175.502 1233.72 175.024C1233.25 174.545 1232.34 174.306 1231.01 174.306H1230.03C1228.89 174.306 1228.08 174.455 1227.59 174.754C1227.12 175.034 1226.88 175.472 1226.88 176.07Z" fill="white"/>
<path d="M1261.07 189.199C1261.07 189.976 1261.11 190.634 1261.19 191.173C1261.29 191.691 1261.47 192.11 1261.72 192.429C1262 192.748 1262.36 192.977 1262.81 193.116C1263.28 193.236 1263.9 193.296 1264.67 193.296V196.047H1249.11V193.296C1250.07 193.276 1250.83 193.216 1251.4 193.116C1251.99 192.997 1252.44 192.788 1252.73 192.488C1253.03 192.189 1253.21 191.761 1253.29 191.203C1253.39 190.644 1253.44 189.887 1253.44 188.93V178.672C1253.44 177.715 1253.39 176.958 1253.29 176.399C1253.21 175.841 1253.03 175.412 1252.73 175.113C1252.44 174.814 1251.99 174.615 1251.4 174.515C1250.83 174.416 1250.07 174.346 1249.11 174.306V171.555H1264.67V174.306C1263.9 174.306 1263.28 174.376 1262.81 174.515C1262.36 174.635 1262 174.854 1261.72 175.173C1261.47 175.492 1261.29 175.921 1261.19 176.459C1261.11 176.977 1261.07 177.625 1261.07 178.403V182.321L1271.83 173.857C1272.13 173.618 1272.48 173.349 1272.89 173.05C1273.31 172.751 1273.74 172.472 1274.19 172.212C1274.64 171.953 1275.1 171.734 1275.58 171.555C1276.05 171.375 1276.5 171.285 1276.93 171.285C1277.68 171.285 1278.23 171.545 1278.58 172.063C1278.94 172.561 1279.11 173.14 1279.11 173.797C1279.11 174.057 1279.05 174.346 1278.94 174.665C1278.84 174.984 1278.68 175.283 1278.46 175.562C1278.27 175.821 1278.02 176.04 1277.73 176.22C1277.43 176.399 1277.11 176.489 1276.75 176.489C1276.32 176.489 1275.91 176.449 1275.52 176.369C1275.14 176.27 1274.76 176.22 1274.37 176.22C1274.03 176.22 1273.67 176.28 1273.28 176.399C1272.9 176.519 1272.49 176.758 1272.04 177.117L1269.36 179.27C1270.52 181.523 1271.55 183.437 1272.45 185.012C1273.35 186.587 1274.15 187.903 1274.84 188.96C1275.55 189.996 1276.15 190.814 1276.64 191.412C1277.15 192.01 1277.57 192.459 1277.9 192.758C1278.26 193.057 1278.54 193.246 1278.76 193.326C1278.98 193.406 1279.14 193.445 1279.26 193.445C1279.48 193.445 1279.64 193.416 1279.76 193.356L1280 196.047C1279.54 196.286 1279.06 196.466 1278.55 196.586C1278.04 196.725 1277.38 196.795 1276.58 196.795C1275.79 196.795 1275.05 196.735 1274.37 196.615C1273.7 196.516 1273.05 196.306 1272.42 195.987C1271.79 195.648 1271.16 195.19 1270.53 194.612C1269.91 194.014 1269.24 193.236 1268.53 192.279C1267.82 191.302 1267.06 190.126 1266.23 188.75C1265.41 187.375 1264.48 185.74 1263.46 183.846L1261.07 185.7V189.199Z" fill="white"/>
<path d="M1316.37 174.306C1315.39 174.346 1314.61 174.416 1314.04 174.515C1313.47 174.615 1313.04 174.814 1312.75 175.113C1312.45 175.412 1312.25 175.841 1312.16 176.399C1312.08 176.958 1312.04 177.715 1312.04 178.672V188.93C1312.04 189.887 1312.08 190.644 1312.16 191.203C1312.25 191.761 1312.45 192.189 1312.75 192.488C1313.04 192.788 1313.47 192.997 1314.04 193.116C1314.61 193.216 1315.39 193.276 1316.37 193.296V196.047H1300.81V193.296C1301.57 193.296 1302.18 193.236 1302.63 193.116C1303.11 192.977 1303.47 192.748 1303.73 192.429C1304 192.11 1304.18 191.691 1304.26 191.173C1304.35 190.634 1304.4 189.976 1304.4 189.199V181.633L1294.38 190.006C1294.4 190.644 1294.47 191.173 1294.59 191.591C1294.73 192.01 1294.92 192.349 1295.18 192.608C1295.45 192.847 1295.82 193.027 1296.27 193.146C1296.72 193.246 1297.29 193.296 1297.98 193.296V196.047H1282.41V193.296C1283.38 193.276 1284.14 193.216 1284.71 193.116C1285.3 192.997 1285.74 192.788 1286.04 192.488C1286.33 192.189 1286.52 191.761 1286.6 191.203C1286.7 190.644 1286.75 189.887 1286.75 188.93V178.672C1286.75 177.715 1286.7 176.958 1286.6 176.399C1286.52 175.841 1286.33 175.412 1286.04 175.113C1285.74 174.814 1285.3 174.615 1284.71 174.515C1284.14 174.416 1283.38 174.346 1282.41 174.306V171.555H1297.98V174.306C1297.21 174.306 1296.59 174.376 1296.12 174.515C1295.67 174.635 1295.31 174.854 1295.03 175.173C1294.77 175.492 1294.6 175.921 1294.5 176.459C1294.42 176.977 1294.38 177.625 1294.38 178.403V185.7L1304.37 177.356C1304.33 176.778 1304.25 176.3 1304.11 175.921C1303.99 175.522 1303.79 175.203 1303.52 174.964C1303.26 174.725 1302.91 174.555 1302.46 174.455C1302.03 174.356 1301.48 174.306 1300.81 174.306V171.555H1316.37V174.306Z" fill="white"/>
<path d="M1360.62 196.047H1342.34V193.296C1343.54 193.276 1344.48 193.176 1345.17 192.997C1345.86 192.817 1346.38 192.538 1346.73 192.159C1347.09 191.781 1347.31 191.292 1347.41 190.694C1347.51 190.096 1347.57 189.368 1347.59 188.511V179.151L1338.27 196.047H1336.62L1327.1 179.151V187.225C1327.1 187.863 1327.11 188.421 1327.13 188.9C1327.15 189.378 1327.18 189.797 1327.22 190.156C1327.28 190.515 1327.36 190.834 1327.45 191.113C1327.55 191.392 1327.68 191.651 1327.84 191.89C1328.17 192.369 1328.69 192.728 1329.4 192.967C1330.11 193.186 1331.11 193.296 1332.41 193.296V196.047H1318.91V193.296C1320.2 193.296 1321.2 193.176 1321.88 192.937C1322.59 192.698 1323.11 192.339 1323.45 191.86C1323.6 191.621 1323.73 191.362 1323.83 191.083C1323.93 190.804 1324 190.485 1324.03 190.126C1324.09 189.767 1324.12 189.358 1324.12 188.9C1324.14 188.421 1324.15 187.863 1324.15 187.225V180.317C1324.15 178.642 1324.07 177.406 1323.92 176.609C1323.84 176.23 1323.69 175.901 1323.47 175.622C1323.28 175.323 1322.98 175.083 1322.59 174.904C1322.2 174.705 1321.7 174.555 1321.09 174.455C1320.5 174.356 1319.77 174.306 1318.91 174.306V171.555H1332.23L1339.89 185.431L1347.59 171.555H1360.62V174.306C1358.38 174.306 1356.92 174.675 1356.25 175.412C1355.6 176.13 1355.28 177.356 1355.28 179.091V188.511C1355.28 189.328 1355.33 190.036 1355.43 190.634C1355.55 191.212 1355.78 191.701 1356.14 192.1C1356.51 192.478 1357.05 192.768 1357.76 192.967C1358.46 193.166 1359.42 193.276 1360.62 193.296V196.047Z" fill="white"/>
<path d="M1374.29 158.934C1374.29 159.552 1374.27 160.111 1374.23 160.609C1374.19 161.108 1374.12 161.895 1374 162.972L1371.7 182.56H1369.05L1366.75 162.972C1366.55 161.217 1366.45 159.871 1366.45 158.934C1366.45 157.419 1366.84 156.303 1367.63 155.585C1368.42 154.867 1369.31 154.508 1370.31 154.508C1371.45 154.508 1372.4 154.877 1373.14 155.615C1373.91 156.333 1374.29 157.439 1374.29 158.934ZM1375 192.369C1375 193.685 1374.55 194.791 1373.64 195.688C1372.74 196.586 1371.65 197.034 1370.37 197.034C1369.11 197.034 1368.03 196.586 1367.13 195.688C1366.23 194.791 1365.77 193.685 1365.77 192.369C1365.77 191.053 1366.22 189.937 1367.1 189.019C1367.98 188.102 1369.08 187.644 1370.37 187.644C1371.67 187.644 1372.76 188.102 1373.64 189.019C1374.55 189.917 1375 191.033 1375 192.369Z" fill="white"/>
</svg>
