<svg width="72" height="73" viewBox="0 0 72 73" fill="none" xmlns="http://www.w3.org/2000/svg">
<g style="mix-blend-mode:multiply">
<path d="M35.8338 72.9502C55.3646 72.9502 71.1975 56.6197 71.1975 36.4751C71.1975 16.3305 55.3646 0 35.8338 0C16.3031 0 0.470215 16.3305 0.470215 36.4751C0.470215 56.6197 16.3031 72.9502 35.8338 72.9502Z" fill="#F4F4F4"/>
</g>
<path d="M55.9908 32.3137C55.935 30.512 55.1884 28.8066 53.915 27.572C53.193 26.8481 52.3315 26.2888 51.3865 25.9306C52.0041 25.0665 52.4225 24.0685 52.6101 23.0126C52.7452 22.2589 52.7253 21.4844 52.5517 20.7392C52.3781 19.9939 52.0546 19.2946 51.6022 18.6866C50.9961 17.8686 50.1619 17.2615 49.2116 16.9467C48.3192 16.6462 47.3797 16.5224 46.4426 16.582C45.2651 16.6514 44.1064 16.9188 43.0124 17.3735C42.5277 16.2788 41.8139 15.3084 40.9224 14.5321C39.4789 13.1296 37.5708 12.3486 35.5878 12.3486C33.6048 12.3486 31.6966 13.1296 30.2532 14.5321C29.3616 15.3084 28.6479 16.2788 28.1632 17.3735C27.0692 16.9188 25.9105 16.6514 24.7329 16.582C23.7959 16.5224 22.8564 16.6462 21.9639 16.9467C21.011 17.2602 20.1742 17.8674 19.5663 18.6866C19.1139 19.2946 18.7904 19.9939 18.6168 20.7392C18.4432 21.4844 18.4233 22.2589 18.5584 23.0126C18.7459 24.0685 19.1644 25.0665 19.782 25.9306C18.8369 26.2888 17.9755 26.8481 17.2535 27.572C16.6073 28.1726 16.0892 28.9053 15.7321 29.7234C15.375 30.5415 15.1866 31.4273 15.179 32.3245C15.1713 33.2216 15.3445 34.1107 15.6877 34.9352C16.0308 35.7596 16.5363 36.5016 17.1722 37.1138C17.8838 37.8511 18.7381 38.4253 19.6794 38.799C19.5535 39.0319 19.4481 39.2761 19.3647 39.5285C19.1644 40.1089 19.08 40.7251 19.1165 41.34C19.1529 41.9549 19.3095 42.5558 19.5769 43.1067C19.9686 43.8237 20.505 44.4455 21.1499 44.9301C21.7948 45.4146 22.5331 45.7506 23.3148 45.9153C24.9815 48.2497 27.2301 50.0748 29.8217 51.1969C32.6593 52.4349 35.7904 52.7713 38.8144 52.1631C41.8384 51.5549 44.6176 50.0297 46.7963 47.7828C47.4162 47.145 47.9829 46.4544 48.4902 45.7183C49.8167 45.2872 50.932 44.3471 51.6057 43.0921C51.8731 42.5412 52.0297 41.9403 52.0662 41.3254C52.1026 40.7105 52.0182 40.0943 51.8179 39.5139C51.7345 39.2615 51.6292 39.0173 51.5032 38.7844C52.4445 38.4107 53.2988 37.8365 54.0105 37.0993C55.2597 35.838 55.972 34.1166 55.9908 32.3137ZM47.1499 43.8034C46.9034 44.2077 46.6366 44.5985 46.3507 44.9742C46.0772 45.3341 45.7837 45.6819 45.4701 46.0174L45.2721 46.2253C44.0308 47.5058 42.5571 48.5215 40.9352 49.2145C39.3133 49.9075 37.575 50.2641 35.8194 50.2641C34.0639 50.2641 32.3255 49.9075 30.7036 49.2145C29.0817 48.5215 27.608 47.5058 26.3667 46.2253L26.1121 45.9554C25.8174 45.6344 25.5392 45.3025 25.2775 44.9597C25.0158 44.6168 24.7671 44.252 24.5313 43.8654C23.7153 42.547 23.1255 41.0935 22.7879 39.5686C24.0512 40.5331 25.6082 40.9977 27.1756 40.8779C28.743 40.758 30.2166 40.0617 31.3282 38.9157C32.5209 37.6929 34.1342 37.0065 35.8159 37.0065C37.4975 37.0065 39.1109 37.6929 40.3035 38.9157C41.4151 40.0617 42.8887 40.758 44.4561 40.8779C46.0235 40.9977 47.5805 40.5331 48.8438 39.5686C48.515 41.0687 47.9423 42.5006 47.1499 43.8034ZM48.0835 37.3765C47.6717 37.8015 47.1827 38.1387 46.6445 38.3687C46.1063 38.5988 45.5294 38.7172 44.9468 38.7172C44.3642 38.7172 43.7873 38.5988 43.249 38.3687C42.7108 38.1387 42.2218 37.8015 41.81 37.3765C40.2217 35.7382 38.0674 34.8179 35.8212 34.8179C33.5749 34.8179 31.4207 35.7382 29.8323 37.3765C29.2964 37.9288 28.6323 38.3304 27.9032 38.5431C27.1742 38.7558 26.4045 38.7724 25.6674 38.5914C24.9304 38.4104 24.2506 38.0378 23.6927 37.5091C23.1348 36.9804 22.7174 36.3131 22.4802 35.5709C22.6689 32.4798 23.8696 29.5463 25.8858 27.251C27.5903 28.5283 29.548 29.4003 31.6182 29.8042C32.1952 29.9184 32.7812 29.9783 33.3687 29.983C34.2898 30.0037 35.2018 29.7907 36.0245 29.3629C36.7847 28.9442 37.4019 28.2948 37.7927 27.5027L37.8387 27.4042C38.4751 27.7928 39.177 28.0539 39.9074 28.1738C40.6614 28.311 41.4348 28.2846 42.1782 28.0962C42.9217 27.9078 43.6189 27.5615 44.2253 27.0795C44.4769 26.8726 44.7068 26.6391 44.9114 26.3829C45.0293 26.4947 45.1471 26.6102 45.265 26.7294C47.5666 29.0881 48.9505 32.2348 49.155 35.5746C48.942 36.2521 48.5787 36.8691 48.0941 37.3765H48.0835Z" fill="black"/>
<path d="M42.1281 42.4168C41.8119 42.7426 41.4727 43.0438 41.1132 43.3178C40.9293 43.4564 40.7419 43.5877 40.5509 43.7117C39.0614 44.6693 37.3306 45.1512 35.5763 45.0967C33.8219 45.0422 32.1224 44.4537 30.6915 43.4053L30.5571 43.3068C30.1977 43.0328 29.8585 42.7317 29.5422 42.4059C29.3415 42.2023 29.0706 42.0892 28.7891 42.0916C28.5075 42.094 28.2385 42.2116 28.041 42.4186C27.8436 42.6257 27.734 42.9051 27.7363 43.1955C27.7386 43.4859 27.8527 43.7634 28.0534 43.967L28.2161 44.1312C28.4929 44.4053 28.7833 44.6647 29.086 44.9081C30.9857 46.4304 33.3163 47.2695 35.7218 47.2971C38.1273 47.3248 40.4754 46.5395 42.4075 45.0613C42.7223 44.8189 43.0245 44.5596 43.3128 44.2843C43.4224 44.1822 43.5285 44.0764 43.6346 43.967C43.7335 43.8657 43.8121 43.7453 43.8659 43.6127C43.9198 43.48 43.9477 43.3377 43.9482 43.194C43.9487 43.0502 43.9217 42.9077 43.8688 42.7747C43.8159 42.6417 43.7382 42.5207 43.6399 42.4186C43.5417 42.3166 43.425 42.2355 43.2964 42.1801C43.1678 42.1246 43.0298 42.0957 42.8904 42.0952C42.751 42.0947 42.6129 42.1225 42.4839 42.1771C42.355 42.2317 42.2377 42.3119 42.1387 42.4132L42.1281 42.4168ZM28.0145 62.2155H23.3182C23.3149 62.2171 23.3113 62.2179 23.3076 62.2179C23.3039 62.2179 23.3003 62.2171 23.297 62.2155C23.2948 62.2116 23.2937 62.2072 23.2937 62.2027C23.2937 62.1982 23.2948 62.1938 23.297 62.1899C23.7001 60.5449 24.4569 57.4701 24.9662 55.3217C24.9994 55.1821 25.0056 55.0371 24.9844 54.8949C24.9633 54.7528 24.9153 54.6164 24.843 54.4935C24.7708 54.3705 24.6758 54.2635 24.5634 54.1784C24.451 54.0933 24.3235 54.0319 24.1882 53.9976C24.0528 53.9634 23.9122 53.957 23.7744 53.9788C23.6366 54.0006 23.5044 54.0501 23.3852 54.1246C23.266 54.1992 23.1622 54.2972 23.0797 54.4131C22.9972 54.529 22.9377 54.6605 22.9045 54.8001L22.5862 56.1314C22.1158 58.0755 21.5642 60.3261 21.2388 61.6501C21.158 61.9774 21.1508 62.3194 21.2177 62.6501C21.2845 62.9807 21.4237 63.2912 21.6247 63.5579C21.8256 63.8247 22.0829 64.0405 22.3771 64.189C22.6712 64.3375 22.9943 64.4148 23.3217 64.4149H26.4408L25.7937 66.0563C25.4509 66.9212 25.2821 67.8488 25.2972 68.783C25.3124 69.7172 25.5114 70.6385 25.8821 71.4911C26.8605 71.7853 27.8554 72.037 28.8668 72.2461L28.3009 71.4546C27.8394 70.8028 27.5468 70.0402 27.4509 69.2391C27.355 68.4381 27.4589 67.625 27.7528 66.877L28.9976 63.7292C29.0631 63.563 29.088 63.3828 29.0701 63.2044C29.0522 63.0259 28.9921 62.8548 28.8949 62.706C28.7978 62.5572 28.6667 62.4353 28.5132 62.351C28.3597 62.2667 28.1884 62.2227 28.0145 62.2228V62.2155ZM49.0842 56.1205L48.7659 54.7892C48.6988 54.5072 48.5259 54.2642 48.2852 54.1137C48.0444 53.9632 47.7556 53.9175 47.4822 53.9867C47.2088 54.0559 46.9732 54.2342 46.8273 54.4825C46.6814 54.7308 46.6371 55.0288 46.7042 55.3107C47.2134 57.4518 47.9702 60.534 48.3734 62.179C48.3755 62.1829 48.3767 62.1873 48.3767 62.1918C48.3767 62.1962 48.3755 62.2006 48.3734 62.2045C48.37 62.2061 48.3664 62.207 48.3627 62.207C48.3591 62.207 48.3555 62.2061 48.3521 62.2045H43.6523C43.4784 62.2045 43.3071 62.2485 43.1536 62.3328C43.0001 62.417 42.869 62.5389 42.7719 62.6877C42.6748 62.8365 42.6146 63.0077 42.5967 63.1861C42.5788 63.3645 42.6037 63.5448 42.6692 63.7109L43.914 66.8587C44.2079 67.6068 44.3118 68.4198 44.2159 69.2209C44.12 70.022 43.8274 70.7845 43.3659 71.4363L42.8 72.2279C43.8114 72.0187 44.8063 71.767 45.7847 71.4728C46.157 70.6195 46.357 69.6971 46.3729 68.7615C46.3887 67.826 46.2198 66.8969 45.8767 66.0307L45.2295 64.3894H48.3486C48.6761 64.3893 48.9992 64.312 49.2933 64.1635C49.5874 64.015 49.8447 63.7991 50.0457 63.5324C50.2466 63.2657 50.3858 62.9552 50.4527 62.6246C50.5196 62.2939 50.5123 61.9519 50.4315 61.6246C50.1062 60.3151 49.5545 58.061 49.0842 56.1205Z" fill="black"/>
<path d="M26.7093 38.7148C27.2919 38.7167 27.8692 38.5993 28.4076 38.3695C28.9461 38.1397 29.4349 37.8021 29.846 37.3761C31.4344 35.7379 33.5886 34.8176 35.8348 34.8176C38.0811 34.8176 40.2353 35.7379 41.8237 37.3761C42.3596 37.9285 43.0238 38.3301 43.7528 38.5428C44.4818 38.7554 45.2515 38.7721 45.9886 38.5911C46.7256 38.4101 47.4055 38.0375 47.9634 37.5088C48.5213 36.98 48.9387 36.3128 49.1758 35.5706C48.9712 32.2308 47.5873 29.0841 45.2858 26.7254C45.1726 26.6087 45.0547 26.4932 44.9321 26.3789C44.7276 26.6351 44.4977 26.8686 44.2461 27.0756C43.6397 27.5576 42.9425 27.9038 42.199 28.0922C41.4555 28.2807 40.6821 28.3071 39.9282 28.1698C39.1978 28.0499 38.4959 27.7888 37.8594 27.4002L37.8134 27.4987C37.4226 28.2909 36.8054 28.9402 36.0453 29.3589C35.2226 29.7868 34.3106 29.9997 33.3894 29.979C32.8019 29.9743 32.216 29.9145 31.6389 29.8003C29.5687 29.3964 27.611 28.5244 25.9065 27.247C23.8903 29.5424 22.6896 32.4758 22.501 35.567C22.7935 36.4819 23.3583 37.2783 24.1152 37.8428C24.8721 38.4074 25.7823 38.7112 26.7163 38.7111L26.7093 38.7148ZM24.7713 54.3845C24.8684 54.5143 24.936 54.6649 24.969 54.8253C25.0021 54.9856 24.9998 55.1516 24.9623 55.3109C24.4531 57.4557 23.6963 60.5342 23.2931 62.1792C23.291 62.1831 23.2898 62.1875 23.2898 62.192C23.2898 62.1964 23.291 62.2008 23.2931 62.2047C23.2964 62.2063 23.3001 62.2072 23.3037 62.2072C23.3074 62.2072 23.311 62.2063 23.3143 62.2047H28.0142C28.1881 62.2047 28.3593 62.2487 28.5129 62.333C28.6664 62.4172 28.7975 62.5391 28.8946 62.6879C28.9917 62.8367 29.0519 63.0079 29.0698 63.1863C29.0877 63.3647 29.0628 63.545 28.9973 63.7111L27.7525 66.8589C27.4586 67.607 27.3546 68.4201 27.4506 69.2211C27.5465 70.0222 27.8391 70.7847 28.3006 71.4366L28.8664 72.2281C30.7189 72.6095 32.598 72.8376 34.4857 72.9102L28.725 51.2476L24.7713 54.3845Z" fill="#F3D26A"/>
<path d="M25.7864 66.0456L26.4335 64.4042H23.318C22.9909 64.404 22.6682 64.3267 22.3744 64.1784C22.0806 64.0301 21.8235 63.8147 21.6227 63.5484C21.4218 63.2821 21.2825 62.9721 21.2153 62.642C21.1482 62.3118 21.1549 61.9702 21.2351 61.6431C21.5604 60.3191 22.1121 58.0686 22.5824 56.1245L12.6382 64.0066C16.4775 67.4578 20.9954 70.0111 25.8819 71.4912C25.5096 70.6379 25.3096 69.7155 25.2937 68.78C25.2779 67.8444 25.4468 66.9154 25.7899 66.0492L25.7864 66.0456ZM50.4313 61.6431C50.5121 61.9704 50.5193 62.3124 50.4525 62.6431C50.3856 62.9737 50.2464 63.2842 50.0454 63.5509C49.8445 63.8176 49.5872 64.0335 49.2931 64.182C48.999 64.3305 48.6758 64.4078 48.3484 64.4079H45.2293L45.8765 66.0492C46.2196 66.9154 46.3884 67.8444 46.3726 68.78C46.3568 69.7155 46.1567 70.6379 45.7845 71.4912C50.6703 70.0133 55.1883 67.4625 59.0282 64.0139L49.0839 56.1282C49.5543 58.0613 50.106 60.3154 50.4313 61.6431Z" fill="#F3D26A"/>
<path d="M44.218 69.2333C44.3135 68.4316 44.2088 67.6181 43.9139 66.8698L42.6691 63.722C42.6036 63.5558 42.5787 63.3756 42.5966 63.1972C42.6145 63.0188 42.6747 62.8476 42.7718 62.6988C42.8689 62.55 43 62.4281 43.1535 62.3438C43.307 62.2596 43.4783 62.2155 43.6522 62.2156H48.3485C48.3518 62.2172 48.3554 62.2181 48.3591 62.2181C48.3628 62.2181 48.3664 62.2172 48.3697 62.2156C48.3719 62.2117 48.373 62.2073 48.373 62.2028C48.373 62.1983 48.3719 62.1939 48.3697 62.1901C47.963 60.545 47.2098 57.4483 46.7006 55.3218C46.6631 55.1625 46.6608 54.9966 46.6938 54.8362C46.7269 54.6758 46.7944 54.5252 46.8915 54.3954L42.9379 51.2585L37.1807 72.9355C39.0684 72.863 40.9475 72.6349 42.8 72.2535L43.3658 71.462C43.8301 70.8066 44.1236 70.0392 44.218 69.2333Z" fill="#F3D26A"/>
</svg>
