<svg width="36" height="35" viewBox="0 0 36 35" fill="none" xmlns="http://www.w3.org/2000/svg">
<path d="M24.2169 14.052C24.9076 13.6256 25.3687 13.0468 25.5925 12.3078C24.9597 12.6504 24.2806 12.8993 23.5763 13.0468C23.2883 12.73 22.9357 12.4787 22.5422 12.31C22.1488 12.1412 21.7237 12.0589 21.2957 12.0686C20.4004 12.0686 19.646 12.3831 19.0286 12.9928C18.7311 13.283 18.4959 13.6308 18.3374 14.0149C18.1788 14.3991 18.1002 14.8115 18.1064 15.2271C18.1064 15.4914 18.1392 15.7287 18.2067 15.9294C15.5672 15.8368 13.385 14.7447 11.664 12.6378C11.3817 13.1176 11.2306 13.6632 11.226 14.2199C11.226 15.3351 11.6968 16.2188 12.6345 16.869C12.1418 16.8357 11.6617 16.6982 11.226 16.4658C11.226 17.2626 11.4595 17.9283 11.9302 18.5148C12.3991 19.0936 13.0049 19.4641 13.742 19.6204C13.4677 19.6898 13.1856 19.7242 12.9027 19.7226C12.7096 19.7337 12.516 19.7095 12.3316 19.6512C12.5322 20.3015 12.9027 20.8263 13.4391 21.2295C13.9735 21.6347 14.5909 21.8469 15.2855 21.8662C14.1706 22.7526 12.7833 23.2258 11.3591 23.2052C10.9964 23.2052 10.7417 23.2014 10.5874 23.1724C12.0338 24.1133 13.7261 24.6053 15.4515 24.5867C17.2863 24.5867 18.909 24.1217 20.3175 23.1917C21.726 22.2675 22.7698 21.1273 23.4374 19.7824C24.0984 18.483 24.4428 17.0457 24.4426 15.5879V15.1846C25.0909 14.6965 25.6176 14.1466 26.0209 13.5369C25.4469 13.7929 24.8395 13.9663 24.2169 14.052ZM17.8903 34.7297C13.086 34.7297 8.94735 33.0125 5.58821 29.6245C2.22908 26.246 0.525391 22.1209 0.525391 17.3649C0.525391 12.5644 2.23101 8.42389 5.594 5.06475C8.95121 1.70562 13.0879 0 17.8903 0C22.6482 0 26.7733 1.70369 30.1499 5.06282C33.5379 8.42389 35.2551 12.5644 35.2551 17.3649C35.2551 22.1209 33.5399 26.248 30.1537 29.6302C26.7753 33.0125 22.6502 34.7297 17.8903 34.7297ZM17.8903 3.85886C14.097 3.85886 10.9675 5.14579 8.32414 7.79489C5.67118 10.4421 4.38425 13.5716 4.38425 17.3649C4.38425 21.1157 5.67311 24.2375 8.32607 26.9059C10.9733 29.5743 14.1009 30.8709 17.8903 30.8709C21.6391 30.8709 24.759 29.5724 27.4255 26.902C30.0978 24.2317 31.3963 21.1099 31.3963 17.3649C31.3963 13.5774 30.0997 10.4479 27.4313 7.80068C24.7629 5.14772 21.643 3.85886 17.8903 3.85886Z" fill="white"/>
</svg>
