<svg width="18" height="17" viewBox="0 0 18 17" fill="none" xmlns="http://www.w3.org/2000/svg">
<path d="M0.757895 0.980012C0.341053 0.980012 0 1.33299 0 1.7644C0 2.19582 0.341053 2.54879 0.757895 2.54879H2.43966L4.42914 10.7849C4.59739 11.483 5.20219 11.9615 5.89718 11.9615H14.5895C15.2731 11.9615 15.8536 11.4924 16.034 10.8092L18 3.33318H5.30526L5.68421 4.90196H16.034L14.5895 10.3927H5.89718L3.90771 2.1566C3.82574 1.81877 3.63658 1.51919 3.37054 1.30586C3.1045 1.09252 2.77697 0.97778 2.44042 0.980012H0.757895ZM13.6421 11.9615C12.3954 11.9615 11.3684 13.0243 11.3684 14.3146C11.3684 15.605 12.3954 16.6678 13.6421 16.6678C14.8888 16.6678 15.9158 15.605 15.9158 14.3146C15.9158 13.0243 14.8888 11.9615 13.6421 11.9615ZM6.82105 11.9615C5.57432 11.9615 4.54737 13.0243 4.54737 14.3146C4.54737 15.605 5.57432 16.6678 6.82105 16.6678C8.06779 16.6678 9.09474 15.605 9.09474 14.3146C9.09474 13.0243 8.06779 11.9615 6.82105 11.9615ZM6.82105 13.5303C7.24775 13.5303 7.57895 13.8738 7.57895 14.3146C7.57895 14.7563 7.24699 15.099 6.82105 15.099C6.39436 15.099 6.06316 14.7555 6.06316 14.3146C6.06316 13.873 6.39512 13.5303 6.82105 13.5303ZM13.6421 13.5303C14.0688 13.5303 14.4 13.8738 14.4 14.3146C14.4 14.7563 14.068 15.099 13.6421 15.099C13.2154 15.099 12.8842 14.7555 12.8842 14.3146C12.8842 13.873 13.2162 13.5303 13.6421 13.5303Z" fill="#1F316A"/>
</svg>
